Arapey-Italic.otf.ufo
<glyph name="exclam" format="1">
  <advance width="260"/>
  <unicode hex="0021"/>
  <outline>
    <contour>
      <point x="130" y="170" type="line" name="hr00"/>
      <point x="172" y="338" smooth="yes"/>
      <point x="257" y="556" smooth="yes"/>
      <point x="257" y="605" type="curve" smooth="yes"/>
      <point x="257" y="629" smooth="yes"/>
      <point x="245" y="642" smooth="yes"/>
      <point x="223" y="642" type="curve" smooth="yes"/>
      <point x="195" y="642" smooth="yes"/>
      <point x="170" y="619" smooth="yes"/>
      <point x="165" y="583" type="curve" smooth="yes"/>
      <point x="161" y="553"/>
      <point x="128" y="320"/>
      <point x="106" y="170" type="curve"/>
    </contour>
    <contour>
      <point x="45" y="36" type="curve" smooth="yes"/>
      <point x="45" y="10" smooth="yes"/>
      <point x="67" y="-12" smooth="yes"/>
      <point x="93" y="-12" type="curve" smooth="yes"/>
      <point x="119" y="-12" smooth="yes"/>
      <point x="141" y="10" smooth="yes"/>
      <point x="141" y="36" type="curve" smooth="yes"/>
      <point x="141" y="62" smooth="yes"/>
      <point x="119" y="84" smooth="yes"/>
      <point x="93" y="84" type="curve" smooth="yes"/>
      <point x="67" y="84" smooth="yes"/>
      <point x="45" y="62" smooth="yes"/>
    </contour>
  </outline>
</glyph>
<glyph name="quotedbl" format="1">
  <advance width="214"/>
  <unicode hex="0022"/>
  <outline>
    <contour>
      <point x="92" y="444" type="line" name="hr00"/>
      <point x="146" y="580" smooth="yes"/>
      <point x="165" y="615" smooth="yes"/>
      <point x="165" y="633" type="curve" smooth="yes"/>
      <point x="165" y="657" smooth="yes"/>
      <point x="150" y="668" smooth="yes"/>
      <point x="132" y="668" type="curve" smooth="yes"/>
      <point x="107" y="668" smooth="yes"/>
      <point x="83" y="651" smooth="yes"/>
      <point x="82" y="618" type="curve" smooth="yes"/>
      <point x="75" y="444" type="line"/>
    </contour>
    <contour>
      <point x="216" y="444" type="line"/>
      <point x="270" y="580" smooth="yes"/>
      <point x="289" y="615" smooth="yes"/>
      <point x="289" y="633" type="curve" smooth="yes"/>
      <point x="289" y="657" smooth="yes"/>
      <point x="274" y="668" smooth="yes"/>
      <point x="256" y="668" type="curve" smooth="yes"/>
      <point x="231" y="668" smooth="yes"/>
      <point x="207" y="651" smooth="yes"/>
      <point x="206" y="618" type="curve" smooth="yes"/>
      <point x="199" y="444" type="line"/>
    </contour>
  </outline>
</glyph>
<glyph name="numbersign" format="1">
  <advance width="463"/>
  <unicode hex="0023"/>
  <outline>
    <contour>
      <point x="14" y="-101" type="line" name="hr00"/>
      <point x="239" y="667" type="line"/>
      <point x="206" y="667" type="line"/>
      <point x="-19" y="-101" type="line"/>
    </contour>
    <contour>
      <point x="437" y="233" type="line"/>
      <point x="-38" y="233" type="line"/>
      <point x="-48" y="202" type="line"/>
      <point x="427" y="202" type="line"/>
    </contour>
    <contour>
      <point x="219" y="-101" type="line"/>
      <point x="444" y="667" type="line"/>
      <point x="411" y="667" type="line"/>
      <point x="186" y="-101" type="line"/>
    </contour>
    <contour>
      <point x="486" y="400" type="line"/>
      <point x="11" y="400" type="line"/>
      <point x="1" y="369" type="line"/>
      <point x="476" y="369" type="line"/>
    </contour>
  </outline>
</glyph>
<glyph name="dollar" format="1">
  <advance width="440"/>
  <unicode hex="0024"/>
  <outline>
    <contour>
      <point x="155" y="-12" type="curve" smooth="yes"/>
      <point x="274" y="-12" smooth="yes"/>
      <point x="382" y="67" smooth="yes"/>
      <point x="382" y="172" type="curve" smooth="yes"/>
      <point x="382" y="218" smooth="yes"/>
      <point x="357" y="262" smooth="yes"/>
      <point x="304" y="290" type="curve" smooth="yes"/>
      <point x="212" y="338" type="line" smooth="yes"/>
      <point x="172" y="359" smooth="yes"/>
      <point x="158" y="387" smooth="yes"/>
      <point x="158" y="418" type="curve" smooth="yes"/>
      <point x="158" y="478" smooth="yes"/>
      <point x="204" y="551" smooth="yes"/>
      <point x="288" y="551" type="curve" smooth="yes"/>
      <point x="335" y="551" smooth="yes"/>
      <point x="355" y="523" smooth="yes"/>
      <point x="355" y="489" type="curve" smooth="yes" name="hr01"/>
      <point x="355" y="463"/>
      <point x="344" y="439"/>
      <point x="329" y="414" type="curve"/>
      <point x="335" y="407" smooth="yes"/>
      <point x="350" y="399" smooth="yes"/>
      <point x="369" y="399" type="curve" smooth="yes"/>
      <point x="401" y="399" smooth="yes"/>
      <point x="419" y="442" smooth="yes"/>
      <point x="419" y="482" type="curve" smooth="yes"/>
      <point x="419" y="536" smooth="yes"/>
      <point x="383" y="579" smooth="yes"/>
      <point x="294" y="579" type="curve" smooth="yes"/>
      <point x="167" y="579" smooth="yes"/>
      <point x="94" y="474" smooth="yes"/>
      <point x="94" y="383" type="curve" smooth="yes"/>
      <point x="94" y="340" smooth="yes"/>
      <point x="114" y="302" smooth="yes"/>
      <point x="160" y="278" type="curve" smooth="yes"/>
      <point x="250" y="230" type="line" smooth="yes"/>
      <point x="290" y="208" smooth="yes"/>
      <point x="307" y="175" smooth="yes"/>
      <point x="307" y="144" type="curve" smooth="yes" name="hr02"/>
      <point x="307" y="82" smooth="yes"/>
      <point x="243" y="12" smooth="yes"/>
      <point x="160" y="12" type="curve" smooth="yes"/>
      <point x="113" y="12" smooth="yes"/>
      <point x="77" y="39" smooth="yes"/>
      <point x="77" y="77" type="curve" smooth="yes"/>
      <point x="77" y="98"/>
      <point x="88" y="129"/>
      <point x="106" y="152" type="curve"/>
      <point x="99" y="160" smooth="yes"/>
      <point x="84" y="168" smooth="yes"/>
      <point x="64" y="168" type="curve" smooth="yes"/>
      <point x="37" y="168" smooth="yes"/>
      <point x="16" y="128" smooth="yes"/>
      <point x="16" y="90" type="curve" smooth="yes"/>
      <point x="16" y="34" smooth="yes"/>
      <point x="65" y="-12" smooth="yes"/>
    </contour>
    <contour>
      <point x="159" y="-101" type="line"/>
      <point x="322" y="667" type="line"/>
      <point x="292" y="667" type="line"/>
      <point x="129" y="-101" type="line"/>
    </contour>
  </outline>
</glyph>
<glyph name="percent" format="1">
  <advance width="879"/>
  <unicode hex="0025"/>
  <outline>
    <contour>
      <point x="90" y="326" type="curve" smooth="yes" name="hr00"/>
      <point x="90" y="248" smooth="yes"/>
      <point x="127" y="205" smooth="yes"/>
      <point x="186" y="205" type="curve" smooth="yes"/>
      <point x="305" y="205" smooth="yes"/>
      <point x="362" y="366" smooth="yes"/>
      <point x="362" y="460" type="curve" smooth="yes"/>
      <point x="362" y="537" smooth="yes"/>
      <point x="325" y="579" smooth="yes"/>
      <point x="266" y="579" type="curve" smooth="yes"/>
      <point x="147" y="579" smooth="yes"/>
      <point x="90" y="419" smooth="yes"/>
    </contour>
    <contour>
      <point x="262" y="560" type="curve" smooth="yes"/>
      <point x="289" y="560" smooth="yes"/>
      <point x="307" y="529" smooth="yes"/>
      <point x="307" y="474" type="curve" smooth="yes"/>
      <point x="307" y="377" smooth="yes"/>
      <point x="249" y="225" smooth="yes"/>
      <point x="191" y="225" type="curve" smooth="yes"/>
      <point x="163" y="225" smooth="yes"/>
      <point x="146" y="256" smooth="yes"/>
      <point x="146" y="312" type="curve" smooth="yes"/>
      <point x="146" y="409" smooth="yes"/>
      <point x="203" y="560" smooth="yes"/>
    </contour>
    <contour>
      <point x="517" y="113" type="curve" smooth="yes"/>
      <point x="517" y="35" smooth="yes"/>
      <point x="554" y="-8" smooth="yes"/>
      <point x="613" y="-8" type="curve" smooth="yes"/>
      <point x="732" y="-8" smooth="yes"/>
      <point x="789" y="153" smooth="yes"/>
      <point x="789" y="247" type="curve" smooth="yes"/>
      <point x="789" y="324" smooth="yes"/>
      <point x="752" y="366" smooth="yes"/>
      <point x="693" y="366" type="curve" smooth="yes"/>
      <point x="574" y="366" smooth="yes"/>
      <point x="517" y="206" smooth="yes"/>
    </contour>
    <contour>
      <point x="689" y="347" type="curve" smooth="yes"/>
      <point x="716" y="347" smooth="yes"/>
      <point x="734" y="316" smooth="yes"/>
      <point x="734" y="261" type="curve" smooth="yes"/>
      <point x="734" y="164" smooth="yes"/>
      <point x="676" y="12" smooth="yes"/>
      <point x="618" y="12" type="curve" smooth="yes"/>
      <point x="590" y="12" smooth="yes"/>
      <point x="573" y="43" smooth="yes"/>
      <point x="573" y="99" type="curve" smooth="yes"/>
      <point x="573" y="196" smooth="yes"/>
      <point x="630" y="347" smooth="yes"/>
    </contour>
    <component  base="fraction" xOffset="280"/>
  </outline>
</glyph>
<glyph name="ampersand" format="1">
  <advance width="574"/>
  <unicode hex="0026"/>
  <outline>
    <contour>
      <point x="334" y="-45" type="curve" smooth="yes"/>
      <point x="334" y="-101" smooth="yes"/>
      <point x="356" y="-125" smooth="yes"/>
      <point x="401" y="-125" type="curve" smooth="yes"/>
      <point x="444" y="-125"/>
      <point x="487" y="-89"/>
      <point x="521" y="5" type="curve"/>
      <point x="503" y="9" type="line"/>
      <point x="480" y="-61" smooth="yes"/>
      <point x="445" y="-95" smooth="yes"/>
      <point x="419" y="-95" type="curve" smooth="yes"/>
      <point x="401" y="-95" smooth="yes"/>
      <point x="392" y="-80" smooth="yes"/>
      <point x="392" y="-60" type="curve" smooth="yes"/>
      <point x="392" y="0"/>
      <point x="437" y="173"/>
      <point x="476" y="311" type="curve"/>
      <point x="569" y="311" type="line"/>
      <point x="574" y="331" type="line"/>
      <point x="481" y="331" type="line"/>
      <point x="495" y="379"/>
      <point x="508" y="422"/>
      <point x="516" y="452" type="curve"/>
      <point x="501" y="463" type="line"/>
      <point x="465" y="369" smooth="yes"/>
      <point x="394" y="331" smooth="yes"/>
      <point x="330" y="331" type="curve" smooth="yes"/>
      <point x="234" y="331" smooth="yes"/>
      <point x="195" y="388" smooth="yes"/>
      <point x="195" y="448" type="curve" smooth="yes"/>
      <point x="195" y="517" smooth="yes"/>
      <point x="245" y="590" smooth="yes"/>
      <point x="318" y="590" type="curve" smooth="yes"/>
      <point x="363" y="590" smooth="yes"/>
      <point x="381" y="564" smooth="yes"/>
      <point x="381" y="528" type="curve" smooth="yes" name="hr01"/>
      <point x="381" y="499"/>
      <point x="370" y="472"/>
      <point x="350" y="444" type="curve"/>
      <point x="358" y="436" smooth="yes"/>
      <point x="370" y="428" smooth="yes"/>
      <point x="389" y="428" type="curve" smooth="yes"/>
      <point x="427" y="428" smooth="yes"/>
      <point x="447" y="470" smooth="yes"/>
      <point x="447" y="514" type="curve" smooth="yes"/>
      <point x="447" y="565" smooth="yes"/>
      <point x="416" y="620" smooth="yes"/>
      <point x="324" y="620" type="curve" smooth="yes"/>
      <point x="209" y="620" smooth="yes"/>
      <point x="127" y="526" smooth="yes"/>
      <point x="127" y="447" type="curve" smooth="yes"/>
      <point x="127" y="401"/>
      <point x="141" y="340"/>
      <point x="243" y="319" type="curve"/>
      <point x="100" y="290" smooth="yes"/>
      <point x="20" y="190" smooth="yes"/>
      <point x="20" y="107" type="curve" smooth="yes"/>
      <point x="20" y="42" smooth="yes"/>
      <point x="69" y="-12" smooth="yes"/>
      <point x="177" y="-12" type="curve" smooth="yes"/>
      <point x="243" y="-12"/>
      <point x="307" y="22"/>
      <point x="351" y="86" type="curve"/>
      <point x="356" y="86" type="line"/>
      <point x="344" y="30" smooth="yes"/>
      <point x="334" y="-24" smooth="yes"/>
    </contour>
    <contour>
      <point x="182" y="14" type="curve" smooth="yes"/>
      <point x="122" y="14" smooth="yes"/>
      <point x="89" y="51" smooth="yes"/>
      <point x="89" y="99" type="curve" smooth="yes"/>
      <point x="89" y="187" smooth="yes"/>
      <point x="165" y="311" smooth="yes"/>
      <point x="322" y="311" type="curve" smooth="yes"/>
      <point x="410" y="311" type="line"/>
      <point x="387" y="222" type="line" smooth="yes"/>
      <point x="348" y="72" smooth="yes"/>
      <point x="256" y="14" smooth="yes"/>
    </contour>
  </outline>
</glyph>
<glyph name="quotesingle" format="1">
  <advance width="90"/>
  <unicode hex="0027"/>
  <outline>
    <contour>
      <point x="92" y="444" type="line" name="hr00"/>
      <point x="146" y="580" smooth="yes"/>
      <point x="165" y="615" smooth="yes"/>
      <point x="165" y="633" type="curve" smooth="yes"/>
      <point x="165" y="657" smooth="yes"/>
      <point x="150" y="668" smooth="yes"/>
      <point x="132" y="668" type="curve" smooth="yes"/>
      <point x="107" y="668" smooth="yes"/>
      <point x="83" y="651" smooth="yes"/>
      <point x="82" y="618" type="curve" smooth="yes"/>
      <point x="75" y="444" type="line"/>
    </contour>
  </outline>
</glyph>
<glyph name="parenleft" format="1">
  <advance width="273"/>
  <unicode hex="0028"/>
  <outline>
    <contour>
      <point x="335" y="620" type="curve" name="hr00"/>
      <point x="328" y="635" type="line"/>
      <point x="149" y="547" smooth="yes"/>
      <point x="41" y="339" smooth="yes"/>
      <point x="41" y="155" type="curve" smooth="yes"/>
      <point x="41" y="43"/>
      <point x="82" y="-59"/>
      <point x="169" y="-113" type="curve"/>
      <point x="183" y="-98" type="line"/>
      <point x="136" y="-50" smooth="yes"/>
      <point x="115" y="32" smooth="yes"/>
      <point x="115" y="122" type="curve" smooth="yes"/>
      <point x="115" y="305" smooth="yes"/>
      <point x="191" y="513" smooth="yes"/>
    </contour>
  </outline>
</glyph>
<glyph name="parenright" format="1">
  <advance width="273"/>
  <unicode hex="0029"/>
  <outline>
    <contour>
      <point x="-46" y="-98" type="curve" name="hr00"/>
      <point x="-42" y="-113" type="line"/>
      <point x="139" y="-26" smooth="yes"/>
      <point x="246" y="184" smooth="yes"/>
      <point x="246" y="367" type="curve" smooth="yes"/>
      <point x="246" y="480"/>
      <point x="206" y="581"/>
      <point x="117" y="635" type="curve"/>
      <point x="105" y="620" type="line"/>
      <point x="151" y="571" smooth="yes"/>
      <point x="172" y="490" smooth="yes"/>
      <point x="172" y="400" type="curve" smooth="yes"/>
      <point x="172" y="222" smooth="yes"/>
      <point x="93" y="7" smooth="yes"/>
    </contour>
  </outline>
</glyph>
<glyph name="asterisk" format="1">
  <advance width="398"/>
  <unicode hex="002A"/>
  <outline>
    <contour>
      <point x="318" y="620" type="curve" smooth="yes" name="hr00"/>
      <point x="319" y="624" smooth="yes"/>
      <point x="319" y="629" smooth="yes"/>
      <point x="319" y="632" type="curve" smooth="yes"/>
      <point x="319" y="650" smooth="yes"/>
      <point x="308" y="660" smooth="yes"/>
      <point x="292" y="660" type="curve" smooth="yes"/>
      <point x="267" y="660" smooth="yes"/>
      <point x="246" y="639" smooth="yes"/>
      <point x="246" y="599" type="curve" smooth="yes"/>
      <point x="246" y="575"/>
      <point x="250" y="540"/>
      <point x="250" y="499" type="curve"/>
      <point x="198" y="534" smooth="yes"/>
      <point x="173" y="567" smooth="yes"/>
      <point x="148" y="567" type="curve" smooth="yes"/>
      <point x="126" y="567" smooth="yes"/>
      <point x="105" y="544" smooth="yes"/>
      <point x="105" y="519" type="curve" smooth="yes"/>
      <point x="105" y="481"/>
      <point x="155" y="495"/>
      <point x="242" y="483" type="curve"/>
      <point x="170" y="425" smooth="yes"/>
      <point x="120" y="407" smooth="yes"/>
      <point x="120" y="371" type="curve" smooth="yes"/>
      <point x="120" y="355" smooth="yes"/>
      <point x="131" y="341" smooth="yes"/>
      <point x="148" y="341" type="curve" smooth="yes"/>
      <point x="186" y="341"/>
      <point x="198" y="391"/>
      <point x="252" y="474" type="curve"/>
      <point x="272" y="391" smooth="yes"/>
      <point x="262" y="341" smooth="yes"/>
      <point x="300" y="341" type="curve" smooth="yes"/>
      <point x="322" y="341" smooth="yes"/>
      <point x="344" y="364" smooth="yes"/>
      <point x="344" y="385" type="curve" smooth="yes"/>
      <point x="344" y="413"/>
      <point x="307" y="433"/>
      <point x="266" y="483" type="curve"/>
      <point x="369" y="496" smooth="yes"/>
      <point x="423" y="481" smooth="yes"/>
      <point x="423" y="537" type="curve" smooth="yes"/>
      <point x="423" y="554" smooth="yes"/>
      <point x="411" y="567" smooth="yes"/>
      <point x="395" y="567" type="curve" smooth="yes"/>
      <point x="370" y="567"/>
      <point x="331" y="534"/>
      <point x="266" y="499" type="curve"/>
      <point x="287" y="554" smooth="yes"/>
      <point x="313" y="596" smooth="yes"/>
    </contour>
  </outline>
</glyph>
<glyph name="plus" format="1">
  <advance width="505"/>
  <unicode hex="002B"/>
  <outline>
    <contour>
      <point x="332" y="392" type="line" name="hr00"/>
      <point x="282" y="392" type="line"/>
      <point x="246" y="223" type="line"/>
      <point x="85" y="223" type="line"/>
      <point x="74" y="170" type="line"/>
      <point x="235" y="170" type="line"/>
      <point x="199" y="0" type="line"/>
      <point x="249" y="0" type="line"/>
      <point x="285" y="170" type="line"/>
      <point x="447" y="170" type="line"/>
      <point x="458" y="223" type="line"/>
      <point x="296" y="223" type="line"/>
    </contour>
  </outline>
</glyph>
<glyph name="comma" format="1">
  <advance width="182"/>
  <unicode hex="002C"/>
  <outline>
    <contour>
      <point x="5" y="-111" type="curve" name="hr00"/>
      <point x="13" y="-125" type="line"/>
      <point x="95" y="-83" smooth="yes"/>
      <point x="153" y="8" smooth="yes"/>
      <point x="153" y="59" type="curve" smooth="yes"/>
      <point x="153" y="83" smooth="yes"/>
      <point x="141" y="100" smooth="yes"/>
      <point x="112" y="100" type="curve" smooth="yes"/>
      <point x="84" y="100"/>
      <point x="56" y="74"/>
      <point x="49" y="43" type="curve"/>
      <point x="61" y="32" smooth="yes"/>
      <point x="70" y="15" smooth="yes"/>
      <point x="70" y="-6" type="curve" smooth="yes"/>
      <point x="70" y="-51" smooth="yes"/>
      <point x="36" y="-87" smooth="yes"/>
    </contour>
  </outline>
</glyph>
<glyph name="hyphen" format="1">
  <advance width="279"/>
  <unicode hex="002D"/>
  <outline>
    <contour>
      <point x="30" y="211" type="line" name="hr00"/>
      <point x="270" y="211" type="line"/>
      <point x="279" y="251" type="line"/>
      <point x="39" y="251" type="line"/>
    </contour>
  </outline>
</glyph>
<glyph name="slash" format="1">
  <advance width="319"/>
  <unicode hex="002F"/>
  <outline>
    <contour>
      <point x="51" y="-74" type="line" name="hr00"/>
      <point x="301" y="648" type="line"/>
      <point x="267" y="648" type="line"/>
      <point x="18" y="-74" type="line"/>
    </contour>
  </outline>
</glyph>
<glyph name="zero" format="1">
  <advance width="499"/>
  <unicode hex="0030"/>
  <outline>
    <contour>
      <point x="60" y="174" type="curve" smooth="yes" name="hr00"/>
      <point x="60" y="54" smooth="yes"/>
      <point x="116" y="-12" smooth="yes"/>
      <point x="206" y="-12" type="curve" smooth="yes"/>
      <point x="391" y="-12" smooth="yes"/>
      <point x="479" y="246" smooth="yes"/>
      <point x="479" y="390" type="curve" smooth="yes"/>
      <point x="479" y="512" smooth="yes"/>
      <point x="422" y="579" smooth="yes"/>
      <point x="332" y="579" type="curve" smooth="yes"/>
      <point x="148" y="579" smooth="yes"/>
      <point x="60" y="317" smooth="yes"/>
    </contour>
    <contour>
      <point x="327" y="557" type="curve" smooth="yes"/>
      <point x="376" y="557" smooth="yes"/>
      <point x="409" y="504" smooth="yes"/>
      <point x="409" y="408" type="curve" smooth="yes"/>
      <point x="409" y="244" smooth="yes"/>
      <point x="309" y="9" smooth="yes"/>
      <point x="210" y="9" type="curve" smooth="yes"/>
      <point x="162" y="9" smooth="yes"/>
      <point x="131" y="61" smooth="yes"/>
      <point x="131" y="155" type="curve" smooth="yes"/>
      <point x="131" y="317" smooth="yes"/>
      <point x="229" y="557" smooth="yes"/>
    </contour>
  </outline>
</glyph>
<glyph name="one" format="1">
  <advance width="307"/>
  <unicode hex="0031"/>
  <outline>
    <contour>
      <point x="74" y="0" type="line" name="hr00"/>
      <point x="145" y="0" type="line"/>
      <point x="243" y="465" type="line" smooth="yes"/>
      <point x="255" y="522"/>
      <point x="268" y="560"/>
      <point x="277" y="579" type="curve"/>
      <point x="253" y="570" smooth="yes"/>
      <point x="194" y="555" smooth="yes"/>
      <point x="141" y="547" type="curve" smooth="yes"/>
      <point x="51" y="534" type="line"/>
      <point x="48" y="510" type="line"/>
      <point x="155" y="516" type="line"/>
      <point x="173" y="516" smooth="yes"/>
      <point x="179" y="512" smooth="yes"/>
      <point x="179" y="500" type="curve" smooth="yes"/>
      <point x="179" y="497"/>
      <point x="178" y="494"/>
      <point x="178" y="491" type="curve"/>
    </contour>
    <contour>
      <point x="81" y="33" type="line"/>
      <point x="79" y="25" smooth="yes"/>
      <point x="73" y="19" smooth="yes"/>
      <point x="65" y="19" type="curve" smooth="yes"/>
      <point x="-46" y="19" type="line"/>
      <point x="-50" y="0" type="line"/>
      <point x="249" y="0" type="line"/>
      <point x="253" y="19" type="line"/>
      <point x="163" y="19" type="line" smooth="yes"/>
      <point x="156" y="19" smooth="yes"/>
      <point x="151" y="23" smooth="yes"/>
      <point x="151" y="29" type="curve" smooth="yes"/>
      <point x="151" y="30"/>
      <point x="152" y="32"/>
      <point x="152" y="33" type="curve"/>
    </contour>
  </outline>
</glyph>
<glyph name="two" format="1">
  <advance width="461"/>
  <unicode hex="0032"/>
  <outline>
    <contour>
      <point x="295" y="557" type="curve" smooth="yes"/>
      <point x="342" y="557" smooth="yes"/>
      <point x="366" y="527" smooth="yes"/>
      <point x="366" y="477" type="curve" smooth="yes"/>
      <point x="366" y="436" smooth="yes"/>
      <point x="346" y="335" smooth="yes"/>
      <point x="254" y="250" type="curve" smooth="yes"/>
      <point x="-15" y="0" type="line"/>
      <point x="266" y="0" type="line" smooth="yes"/>
      <point x="321" y="0"/>
      <point x="356" y="-4"/>
      <point x="373" y="-9" type="curve" name="hr01"/>
      <point x="373" y="9" smooth="yes"/>
      <point x="379" y="66" smooth="yes"/>
      <point x="391" y="124" type="curve" smooth="yes"/>
      <point x="401" y="172" type="line"/>
      <point x="380" y="172" type="line"/>
      <point x="349" y="85" type="line" smooth="yes"/>
      <point x="342" y="67" smooth="yes"/>
      <point x="331" y="63" smooth="yes"/>
      <point x="318" y="63" type="curve" smooth="yes" name="hr02"/>
      <point x="89" y="63" type="line"/>
      <point x="265" y="224" type="line" smooth="yes"/>
      <point x="339" y="292" smooth="yes"/>
      <point x="441" y="370" smooth="yes"/>
      <point x="441" y="472" type="curve" smooth="yes"/>
      <point x="441" y="529" smooth="yes"/>
      <point x="397" y="579" smooth="yes"/>
      <point x="296" y="579" type="curve" smooth="yes"/>
      <point x="182" y="579" smooth="yes"/>
      <point x="116" y="506" smooth="yes"/>
      <point x="116" y="431" type="curve" smooth="yes"/>
      <point x="116" y="412" smooth="yes"/>
      <point x="123" y="399" smooth="yes"/>
      <point x="141" y="399" type="curve" smooth="yes"/>
      <point x="161" y="399"/>
      <point x="179" y="407"/>
      <point x="188" y="414" type="curve"/>
      <point x="186" y="422" smooth="yes"/>
      <point x="185" y="431" smooth="yes"/>
      <point x="185" y="440" type="curve" smooth="yes"/>
      <point x="185" y="500" smooth="yes"/>
      <point x="219" y="557" smooth="yes"/>
    </contour>
  </outline>
</glyph>
<glyph name="three" format="1">
  <advance width="457"/>
  <unicode hex="0033"/>
  <outline>
    <contour>
      <point x="124" y="282" type="line"/>
      <point x="140" y="285" smooth="yes"/>
      <point x="157" y="286" smooth="yes"/>
      <point x="172" y="286" type="curve" smooth="yes"/>
      <point x="254" y="286" smooth="yes"/>
      <point x="313" y="252" smooth="yes"/>
      <point x="313" y="178" type="curve" smooth="yes"/>
      <point x="313" y="97" smooth="yes"/>
      <point x="249" y="9" smooth="yes"/>
      <point x="154" y="9" type="curve" smooth="yes"/>
      <point x="104" y="9" smooth="yes"/>
      <point x="83" y="36" smooth="yes"/>
      <point x="83" y="71" type="curve" smooth="yes"/>
      <point x="83" y="94"/>
      <point x="92" y="126"/>
      <point x="108" y="152" type="curve"/>
      <point x="93" y="163" smooth="yes"/>
      <point x="79" y="168" smooth="yes"/>
      <point x="68" y="168" type="curve" smooth="yes"/>
      <point x="33" y="168" smooth="yes"/>
      <point x="20" y="125" smooth="yes"/>
      <point x="20" y="84" type="curve" smooth="yes"/>
      <point x="20" y="30" smooth="yes"/>
      <point x="61" y="-12" smooth="yes"/>
      <point x="149" y="-12" type="curve" smooth="yes"/>
      <point x="297" y="-12" smooth="yes"/>
      <point x="387" y="92" smooth="yes"/>
      <point x="387" y="187" type="curve" smooth="yes"/>
      <point x="387" y="245"/>
      <point x="340" y="296"/>
      <point x="247" y="307" type="curve"/>
      <point x="352" y="336" smooth="yes"/>
      <point x="407" y="414" smooth="yes"/>
      <point x="407" y="479" type="curve" smooth="yes" name="hr01"/>
      <point x="407" y="544" smooth="yes"/>
      <point x="338" y="579" smooth="yes"/>
      <point x="267" y="579" type="curve" smooth="yes"/>
      <point x="192" y="579" smooth="yes"/>
      <point x="105" y="537" smooth="yes"/>
      <point x="105" y="443" type="curve" smooth="yes"/>
      <point x="105" y="423" smooth="yes"/>
      <point x="114" y="408" smooth="yes"/>
      <point x="130" y="408" type="curve" smooth="yes"/>
      <point x="147" y="408"/>
      <point x="166" y="413"/>
      <point x="178" y="423" type="curve"/>
      <point x="173" y="434" smooth="yes"/>
      <point x="173" y="447" smooth="yes"/>
      <point x="173" y="459" type="curve" smooth="yes"/>
      <point x="173" y="510" smooth="yes"/>
      <point x="207" y="557" smooth="yes"/>
      <point x="265" y="557" type="curve" smooth="yes"/>
      <point x="313" y="557" smooth="yes"/>
      <point x="337" y="523" smooth="yes"/>
      <point x="337" y="480" type="curve" smooth="yes"/>
      <point x="337" y="399"/>
      <point x="247" y="309"/>
      <point x="124" y="301" type="curve"/>
    </contour>
  </outline>
</glyph>
<glyph name="four" format="1">
  <advance width="438"/>
  <unicode hex="0034"/>
  <outline>
    <contour>
      <point x="344" y="134" type="line" smooth="yes" name="hr00"/>
      <point x="351" y="134" smooth="yes"/>
      <point x="356" y="131" smooth="yes"/>
      <point x="356" y="123" type="curve" smooth="yes"/>
      <point x="356" y="122"/>
      <point x="356" y="120"/>
      <point x="346" y="71" type="curve"/>
      <point x="363" y="71" type="line"/>
      <point x="398" y="226" type="line"/>
      <point x="381" y="226" type="line"/>
      <point x="368" y="177" type="line" smooth="yes"/>
      <point x="367" y="169" smooth="yes"/>
      <point x="360" y="163" smooth="yes"/>
      <point x="351" y="163" type="curve" smooth="yes"/>
      <point x="303" y="163" type="line"/>
      <point x="395" y="579" type="line"/>
      <point x="364" y="579" type="line"/>
      <point x="-35" y="134" type="line"/>
      <point x="226" y="134" type="line"/>
      <point x="205" y="33" type="line" smooth="yes"/>
      <point x="202" y="25" smooth="yes"/>
      <point x="195" y="19" smooth="yes"/>
      <point x="187" y="19" type="curve" smooth="yes"/>
      <point x="122" y="19" type="line"/>
      <point x="119" y="0" type="line"/>
      <point x="348" y="0" type="line"/>
      <point x="351" y="19" type="line"/>
      <point x="285" y="19" type="line" smooth="yes"/>
      <point x="280" y="19" smooth="yes"/>
      <point x="274" y="21" smooth="yes"/>
      <point x="274" y="29" type="curve" smooth="yes"/>
      <point x="275" y="30"/>
      <point x="275" y="32"/>
      <point x="296" y="134" type="curve"/>
    </contour>
    <contour>
      <point x="22" y="163" type="line"/>
      <point x="301" y="471" type="line"/>
      <point x="233" y="163" type="line"/>
    </contour>
  </outline>
</glyph>
<glyph name="five" format="1">
  <advance width="463"/>
  <unicode hex="0035"/>
  <outline>
    <contour>
      <point x="113" y="288" type="line" name="hr00"/>
      <point x="145" y="298" smooth="yes"/>
      <point x="174" y="302" smooth="yes"/>
      <point x="202" y="302" type="curve" smooth="yes"/>
      <point x="282" y="302" smooth="yes"/>
      <point x="338" y="264" smooth="yes"/>
      <point x="338" y="186" type="curve" smooth="yes"/>
      <point x="338" y="102" smooth="yes"/>
      <point x="278" y="9" smooth="yes"/>
      <point x="177" y="9" type="curve" smooth="yes"/>
      <point x="128" y="9" smooth="yes"/>
      <point x="108" y="36" smooth="yes"/>
      <point x="108" y="72" type="curve" smooth="yes"/>
      <point x="108" y="94"/>
      <point x="116" y="127"/>
      <point x="133" y="152" type="curve"/>
      <point x="126" y="160" smooth="yes"/>
      <point x="110" y="168" smooth="yes"/>
      <point x="91" y="168" type="curve" smooth="yes"/>
      <point x="60" y="168" smooth="yes"/>
      <point x="45" y="123" smooth="yes"/>
      <point x="45" y="84" type="curve" smooth="yes"/>
      <point x="45" y="30" smooth="yes"/>
      <point x="85" y="-12" smooth="yes"/>
      <point x="172" y="-12" type="curve" smooth="yes"/>
      <point x="322" y="-12" smooth="yes"/>
      <point x="412" y="92" smooth="yes"/>
      <point x="412" y="189" type="curve" smooth="yes"/>
      <point x="412" y="263" smooth="yes"/>
      <point x="358" y="331" smooth="yes"/>
      <point x="236" y="331" type="curve" smooth="yes"/>
      <point x="211" y="331"/>
      <point x="183" y="327"/>
      <point x="150" y="321" type="curve"/>
      <point x="197" y="504" type="line"/>
      <point x="357" y="504" type="line" smooth="yes"/>
      <point x="413" y="504" smooth="yes"/>
      <point x="430" y="505" smooth="yes"/>
      <point x="449" y="575" type="curve" smooth="yes"/>
      <point x="458" y="609" type="line"/>
      <point x="438" y="609" type="line"/>
      <point x="432" y="589" type="line" smooth="yes"/>
      <point x="427" y="571" smooth="yes"/>
      <point x="415" y="566" smooth="yes"/>
      <point x="401" y="566" type="curve" smooth="yes"/>
      <point x="183" y="566" type="line"/>
    </contour>
  </outline>
</glyph>
<glyph name="six" format="1">
  <advance width="453"/>
  <unicode hex="0036"/>
  <outline>
    <contour>
      <point x="156" y="302" type="line" name="hr00"/>
      <point x="227" y="462"/>
      <point x="364" y="546"/>
      <point x="428" y="565" type="curve"/>
      <point x="420" y="588" type="line"/>
      <point x="186" y="517" smooth="yes"/>
      <point x="45" y="295" smooth="yes"/>
      <point x="45" y="143" type="curve" smooth="yes"/>
      <point x="45" y="54" smooth="yes"/>
      <point x="93" y="-12" smooth="yes"/>
      <point x="202" y="-12" type="curve" smooth="yes"/>
      <point x="310" y="-12" smooth="yes"/>
      <point x="416" y="65" smooth="yes"/>
      <point x="416" y="194" type="curve" smooth="yes"/>
      <point x="416" y="287" smooth="yes"/>
      <point x="350" y="344" smooth="yes"/>
      <point x="273" y="344" type="curve" smooth="yes"/>
      <point x="234" y="344"/>
      <point x="192" y="330"/>
      <point x="159" y="300" type="curve"/>
    </contour>
    <contour>
      <point x="255" y="315" type="curve" smooth="yes"/>
      <point x="305" y="315" smooth="yes"/>
      <point x="344" y="275" smooth="yes"/>
      <point x="344" y="197" type="curve" smooth="yes"/>
      <point x="344" y="80" smooth="yes"/>
      <point x="266" y="9" smooth="yes"/>
      <point x="204" y="9" type="curve" smooth="yes"/>
      <point x="155" y="9" smooth="yes"/>
      <point x="120" y="51" smooth="yes"/>
      <point x="120" y="127" type="curve" smooth="yes"/>
      <point x="120" y="208" smooth="yes"/>
      <point x="159" y="315" smooth="yes"/>
    </contour>
  </outline>
</glyph>
<glyph name="seven" format="1">
  <advance width="394"/>
  <unicode hex="0037"/>
  <outline>
    <contour>
      <point x="444" y="566" type="line"/>
      <point x="197" y="566" type="line" smooth="yes"/>
      <point x="142" y="566"/>
      <point x="107" y="571"/>
      <point x="91" y="576" type="curve" name="hr01"/>
      <point x="90" y="557" smooth="yes"/>
      <point x="84" y="500" smooth="yes"/>
      <point x="71" y="443" type="curve" smooth="yes"/>
      <point x="60" y="394" type="line"/>
      <point x="83" y="394" type="line"/>
      <point x="114" y="481" type="line" smooth="yes"/>
      <point x="121" y="500" smooth="yes"/>
      <point x="129" y="504" smooth="yes"/>
      <point x="146" y="504" type="curve" smooth="yes" name="hr02"/>
      <point x="375" y="504" type="line"/>
      <point x="198" y="188" type="line" smooth="yes"/>
      <point x="155" y="120" smooth="yes"/>
      <point x="112" y="50" smooth="yes"/>
      <point x="112" y="14" type="curve" smooth="yes"/>
      <point x="112" y="-3" smooth="yes"/>
      <point x="120" y="-12" smooth="yes"/>
      <point x="142" y="-12" type="curve" smooth="yes"/>
      <point x="159" y="-12"/>
      <point x="177" y="-7"/>
      <point x="190" y="3" type="curve"/>
      <point x="187" y="20" smooth="yes"/>
      <point x="185" y="36" smooth="yes"/>
      <point x="185" y="53" type="curve" smooth="yes"/>
      <point x="185" y="95" smooth="yes"/>
      <point x="199" y="137" smooth="yes"/>
      <point x="228" y="188" type="curve" smooth="yes"/>
    </contour>
  </outline>
</glyph>
<glyph name="eight" format="1">
  <advance width="490"/>
  <unicode hex="0038"/>
  <outline>
    <contour>
      <point x="126" y="399" type="curve" smooth="yes"/>
      <point x="126" y="350"/>
      <point x="150" y="316"/>
      <point x="191" y="300" type="curve"/>
      <point x="103" y="273" smooth="yes"/>
      <point x="40" y="197" smooth="yes"/>
      <point x="40" y="109" type="curve" smooth="yes"/>
      <point x="40" y="31" smooth="yes"/>
      <point x="101" y="-12" smooth="yes"/>
      <point x="192" y="-12" type="curve" smooth="yes"/>
      <point x="306" y="-12" smooth="yes"/>
      <point x="414" y="61" smooth="yes"/>
      <point x="414" y="187" type="curve" smooth="yes"/>
      <point x="414" y="245"/>
      <point x="381" y="285"/>
      <point x="327" y="301" type="curve"/>
      <point x="396" y="323" smooth="yes"/>
      <point x="450" y="383" smooth="yes"/>
      <point x="450" y="471" type="curve" smooth="yes" name="hr01"/>
      <point x="450" y="540" smooth="yes"/>
      <point x="400" y="579" smooth="yes"/>
      <point x="320" y="579" type="curve" smooth="yes"/>
      <point x="212" y="579" smooth="yes"/>
      <point x="126" y="496" smooth="yes"/>
    </contour>
    <contour>
      <point x="259" y="289" type="curve" smooth="yes"/>
      <point x="307" y="289" smooth="yes"/>
      <point x="342" y="255" smooth="yes"/>
      <point x="342" y="194" type="curve" smooth="yes" name="hr02"/>
      <point x="342" y="78" smooth="yes"/>
      <point x="259" y="9" smooth="yes"/>
      <point x="195" y="9" type="curve" smooth="yes"/>
      <point x="147" y="9" smooth="yes"/>
      <point x="114" y="43" smooth="yes"/>
      <point x="114" y="103" type="curve" smooth="yes"/>
      <point x="114" y="183" smooth="yes"/>
      <point x="166" y="289" smooth="yes"/>
    </contour>
    <contour>
      <point x="316" y="557" type="curve" smooth="yes"/>
      <point x="356" y="557" smooth="yes"/>
      <point x="385" y="528" smooth="yes"/>
      <point x="385" y="476" type="curve" smooth="yes" name="hr03"/>
      <point x="385" y="371" smooth="yes"/>
      <point x="313" y="311" smooth="yes"/>
      <point x="260" y="311" type="curve" smooth="yes"/>
      <point x="221" y="311" smooth="yes"/>
      <point x="192" y="339" smooth="yes"/>
      <point x="192" y="392" type="curve" smooth="yes"/>
      <point x="192" y="458" smooth="yes"/>
      <point x="235" y="557" smooth="yes"/>
    </contour>
  </outline>
</glyph>
<glyph name="nine" format="1">
  <advance width="454"/>
  <unicode hex="0039"/>
  <outline>
    <contour>
      <point x="330" y="255" type="line" name="hr00"/>
      <point x="270" y="111"/>
      <point x="127" y="31"/>
      <point x="65" y="11" type="curve"/>
      <point x="73" y="-12" type="line"/>
      <point x="308" y="60" smooth="yes"/>
      <point x="444" y="276" smooth="yes"/>
      <point x="444" y="426" type="curve" smooth="yes"/>
      <point x="444" y="514" smooth="yes"/>
      <point x="392" y="579" smooth="yes"/>
      <point x="282" y="579" type="curve" smooth="yes"/>
      <point x="179" y="579" smooth="yes"/>
      <point x="79" y="500" smooth="yes"/>
      <point x="79" y="368" type="curve" smooth="yes"/>
      <point x="79" y="274" smooth="yes"/>
      <point x="142" y="217" smooth="yes"/>
      <point x="213" y="217" type="curve" smooth="yes"/>
      <point x="252" y="217"/>
      <point x="291" y="230"/>
      <point x="324" y="259" type="curve"/>
    </contour>
    <contour>
      <point x="237" y="246" type="curve" smooth="yes"/>
      <point x="190" y="246" smooth="yes"/>
      <point x="152" y="286" smooth="yes"/>
      <point x="152" y="365" type="curve" smooth="yes"/>
      <point x="152" y="485" smooth="yes"/>
      <point x="230" y="557" smooth="yes"/>
      <point x="289" y="557" type="curve" smooth="yes"/>
      <point x="339" y="557" smooth="yes"/>
      <point x="370" y="513" smooth="yes"/>
      <point x="370" y="436" type="curve" smooth="yes"/>
      <point x="370" y="356" smooth="yes"/>
      <point x="332" y="246" smooth="yes"/>
    </contour>
  </outline>
</glyph>
<glyph name="colon" format="1">
  <advance width="218"/>
  <unicode hex="003A"/>
  <outline>
    <contour>
      <point x="37" y="44" type="curve" smooth="yes"/>
      <point x="37" y="13" smooth="yes"/>
      <point x="62" y="-12" smooth="yes"/>
      <point x="93" y="-12" type="curve" smooth="yes"/>
      <point x="124" y="-12" smooth="yes"/>
      <point x="149" y="13" smooth="yes"/>
      <point x="149" y="44" type="curve" smooth="yes"/>
      <point x="149" y="75" smooth="yes"/>
      <point x="124" y="100" smooth="yes"/>
      <point x="93" y="100" type="curve" smooth="yes"/>
      <point x="62" y="100" smooth="yes"/>
      <point x="37" y="75" smooth="yes"/>
    </contour>
    <contour>
      <point x="37" y="376" type="curve" smooth="yes"/>
      <point x="37" y="345" smooth="yes"/>
      <point x="62" y="320" smooth="yes"/>
      <point x="93" y="320" type="curve" smooth="yes"/>
      <point x="124" y="320" smooth="yes"/>
      <point x="149" y="345" smooth="yes"/>
      <point x="149" y="376" type="curve" smooth="yes"/>
      <point x="149" y="407" smooth="yes"/>
      <point x="124" y="432" smooth="yes"/>
      <point x="93" y="432" type="curve" smooth="yes"/>
      <point x="62" y="432" smooth="yes"/>
      <point x="37" y="407" smooth="yes"/>
    </contour>
    <component  base="period" xOffset="-3"/>
    <component  base="period" xOffset="69" yOffset="332"/>
  </outline>
</glyph>
<glyph name="less" format="1">
  <advance width="505"/>
  <unicode hex="003C"/>
  <outline>
    <contour>
      <point x="506" y="450" type="line" name="hr00"/>
      <point x="518" y="505" type="line"/>
      <point x="106" y="323" type="line"/>
      <point x="95" y="270" type="line"/>
      <point x="429" y="88" type="line"/>
      <point x="441" y="143" type="line"/>
      <point x="155" y="296" type="line"/>
    </contour>
  </outline>
</glyph>
<glyph name="equal" format="1">
  <advance width="505"/>
  <unicode hex="003D"/>
  <outline>
    <contour>
      <point x="437" y="255" type="line" name="hr00"/>
      <point x="448" y="308" type="line"/>
      <point x="75" y="308" type="line"/>
      <point x="64" y="255" type="line"/>
    </contour>
    <contour>
      <point x="401" y="85" type="line"/>
      <point x="412" y="138" type="line"/>
      <point x="39" y="138" type="line"/>
      <point x="28" y="85" type="line"/>
    </contour>
  </outline>
</glyph>
<glyph name="greater" format="1">
  <advance width="505"/>
  <unicode hex="003E"/>
  <outline>
    <contour>
      <point x="68" y="143" type="line" name="hr00"/>
      <point x="56" y="88" type="line"/>
      <point x="468" y="270" type="line"/>
      <point x="479" y="323" type="line"/>
      <point x="145" y="505" type="line"/>
      <point x="133" y="450" type="line"/>
      <point x="418" y="296" type="line"/>
    </contour>
  </outline>
</glyph>
<glyph name="question" format="1">
  <advance width="337"/>
  <unicode hex="003F"/>
  <outline>
    <contour>
      <point x="255" y="621" type="curve" smooth="yes"/>
      <point x="149" y="621" smooth="yes"/>
      <point x="86" y="551" smooth="yes"/>
      <point x="86" y="479" type="curve" smooth="yes"/>
      <point x="86" y="460" smooth="yes"/>
      <point x="92" y="446" smooth="yes"/>
      <point x="109" y="446" type="curve" smooth="yes"/>
      <point x="128" y="446"/>
      <point x="147" y="454"/>
      <point x="155" y="461" type="curve"/>
      <point x="153" y="469" smooth="yes"/>
      <point x="152" y="478" smooth="yes"/>
      <point x="152" y="486" type="curve" smooth="yes"/>
      <point x="152" y="544" smooth="yes"/>
      <point x="184" y="600" smooth="yes"/>
      <point x="251" y="600" type="curve" smooth="yes"/>
      <point x="282" y="600" smooth="yes"/>
      <point x="313" y="578" smooth="yes"/>
      <point x="313" y="534" type="curve" smooth="yes"/>
      <point x="313" y="423" smooth="yes"/>
      <point x="111" y="361" smooth="yes"/>
      <point x="111" y="245" type="curve" smooth="yes" name="hr01"/>
      <point x="111" y="216"/>
      <point x="124" y="183"/>
      <point x="157" y="145" type="curve"/>
      <point x="172" y="157" type="line"/>
      <point x="157" y="180" smooth="yes"/>
      <point x="151" y="200" smooth="yes"/>
      <point x="151" y="219" type="curve" smooth="yes"/>
      <point x="151" y="332" smooth="yes"/>
      <point x="373" y="383" smooth="yes"/>
      <point x="373" y="515" type="curve" smooth="yes"/>
      <point x="373" y="586" smooth="yes"/>
      <point x="315" y="621" smooth="yes"/>
    </contour>
    <contour>
      <point x="65" y="36" type="curve" smooth="yes"/>
      <point x="65" y="10" smooth="yes"/>
      <point x="87" y="-12" smooth="yes"/>
      <point x="113" y="-12" type="curve" smooth="yes"/>
      <point x="139" y="-12" smooth="yes"/>
      <point x="161" y="10" smooth="yes"/>
      <point x="161" y="36" type="curve" smooth="yes"/>
      <point x="161" y="62" smooth="yes"/>
      <point x="139" y="84" smooth="yes"/>
      <point x="113" y="84" type="curve" smooth="yes"/>
      <point x="87" y="84" smooth="yes"/>
      <point x="65" y="62" smooth="yes"/>
    </contour>
  </outline>
</glyph>
<glyph name="at" format="1">
  <advance width="795"/>
  <unicode hex="0040"/>
  <outline>
    <contour>
      <point x="457" y="115" type="line" name="hr00"/>
      <point x="452" y="91" smooth="yes"/>
      <point x="448" y="66" smooth="yes"/>
      <point x="448" y="43" type="curve" smooth="yes"/>
      <point x="448" y="-9" smooth="yes"/>
      <point x="468" y="-52" smooth="yes"/>
      <point x="534" y="-52" type="curve" smooth="yes"/>
      <point x="614" y="-52" smooth="yes"/>
      <point x="735" y="49" smooth="yes"/>
      <point x="735" y="231" type="curve" smooth="yes"/>
      <point x="735" y="403" smooth="yes"/>
      <point x="602" y="538" smooth="yes"/>
      <point x="427" y="538" type="curve" smooth="yes"/>
      <point x="232" y="538" smooth="yes"/>
      <point x="58" y="371" smooth="yes"/>
      <point x="58" y="171" type="curve" smooth="yes"/>
      <point x="58" y="-3"/>
      <point x="192" y="-137"/>
      <point x="368" y="-137" type="curve"/>
      <point x="371" y="-101" type="line"/>
      <point x="213" y="-101" smooth="yes"/>
      <point x="94" y="19" smooth="yes"/>
      <point x="94" y="174" type="curve" smooth="yes"/>
      <point x="94" y="353" smooth="yes"/>
      <point x="249" y="502" smooth="yes"/>
      <point x="424" y="502" type="curve" smooth="yes"/>
      <point x="581" y="502" smooth="yes"/>
      <point x="699" y="381" smooth="yes"/>
      <point x="699" y="227" type="curve" smooth="yes"/>
      <point x="699" y="72" smooth="yes"/>
      <point x="600" y="-16" smooth="yes"/>
      <point x="538" y="-16" type="curve" smooth="yes"/>
      <point x="511" y="-16" smooth="yes"/>
      <point x="482" y="-8" smooth="yes"/>
      <point x="482" y="50" type="curve" smooth="yes"/>
      <point x="482" y="68" smooth="yes"/>
      <point x="485" y="89" smooth="yes"/>
      <point x="490" y="115" type="curve" smooth="yes"/>
      <point x="554" y="432" type="line"/>
      <point x="528" y="432" type="line"/>
      <point x="517" y="398" type="line"/>
      <point x="305" y="395" smooth="yes"/>
      <point x="199" y="246" smooth="yes"/>
      <point x="199" y="125" type="curve" smooth="yes"/>
      <point x="199" y="56" smooth="yes"/>
      <point x="235" y="0" smooth="yes"/>
      <point x="308" y="0" type="curve" smooth="yes"/>
      <point x="349" y="0"/>
      <point x="410" y="24"/>
      <point x="451" y="115" type="curve"/>
    </contour>
    <contour>
      <point x="509" y="373" type="curve"/>
      <point x="490" y="292" type="line" smooth="yes"/>
      <point x="465" y="186" smooth="yes"/>
      <point x="412" y="34" smooth="yes"/>
      <point x="329" y="34" type="curve" smooth="yes"/>
      <point x="298" y="34" smooth="yes"/>
      <point x="274" y="60" smooth="yes"/>
      <point x="274" y="120" type="curve" smooth="yes"/>
      <point x="274" y="260" smooth="yes"/>
      <point x="380" y="365" smooth="yes"/>
    </contour>
  </outline>
</glyph>
<glyph name="A" format="1">
  <advance width="510"/>
  <unicode hex="0041"/>
  <outline>
    <contour>
      <point x="361" y="18" type="line" name="hr00"/>
      <point x="299" y="18" type="line"/>
      <point x="296" y="0" type="line"/>
      <point x="477" y="0" type="line"/>
      <point x="480" y="18" type="line"/>
      <point x="445" y="18" type="line" smooth="yes"/>
      <point x="435" y="18" smooth="yes"/>
      <point x="431" y="24" smooth="yes"/>
      <point x="430" y="32" type="curve" smooth="yes"/>
      <point x="348" y="630" type="line"/>
      <point x="316" y="630" type="line"/>
      <point x="-20" y="32" type="line" smooth="yes"/>
      <point x="-24" y="24" smooth="yes"/>
      <point x="-31" y="18" smooth="yes"/>
      <point x="-41" y="18" type="curve" smooth="yes"/>
      <point x="-76" y="18" type="line"/>
      <point x="-80" y="0" type="line"/>
      <point x="64" y="0" type="line"/>
      <point x="67" y="18" type="line"/>
      <point x="5" y="18" type="line"/>
      <point x="113" y="211" type="line"/>
      <point x="334" y="211" type="line"/>
    </contour>
    <contour>
      <point x="291" y="528" type="line"/>
      <point x="330" y="239" type="line"/>
      <point x="128" y="239" type="line"/>
    </contour>
  </outline>
</glyph>
<glyph name="B" format="1">
  <advance width="530"/>
  <unicode hex="0042"/>
  <outline>
    <contour>
      <point x="140" y="612" type="line"/>
      <point x="184" y="612" type="line" smooth="yes"/>
      <point x="189" y="612" smooth="yes"/>
      <point x="195" y="610" smooth="yes"/>
      <point x="195" y="604" type="curve" smooth="yes"/>
      <point x="195" y="600"/>
      <point x="184" y="549"/>
      <point x="75" y="33" type="curve"/>
      <point x="73" y="23" smooth="yes"/>
      <point x="69" y="18" smooth="yes"/>
      <point x="59" y="18" type="curve" smooth="yes"/>
      <point x="13" y="18" type="line"/>
      <point x="10" y="0" type="line"/>
      <point x="256" y="0" type="line" smooth="yes"/>
      <point x="367" y="0" smooth="yes"/>
      <point x="489" y="81" smooth="yes"/>
      <point x="489" y="210" type="curve" smooth="yes"/>
      <point x="489" y="279"/>
      <point x="442" y="323"/>
      <point x="376" y="336" type="curve"/>
      <point x="451" y="365" smooth="yes"/>
      <point x="510" y="432" smooth="yes"/>
      <point x="510" y="512" type="curve" smooth="yes" name="hr01"/>
      <point x="510" y="584" smooth="yes"/>
      <point x="440" y="630" smooth="yes"/>
      <point x="359" y="630" type="curve" smooth="yes"/>
      <point x="143" y="630" type="line"/>
    </contour>
    <contour>
      <point x="320" y="321" type="line" smooth="yes"/>
      <point x="385" y="321" smooth="yes"/>
      <point x="413" y="271" smooth="yes"/>
      <point x="413" y="212" type="curve" smooth="yes" name="hr02"/>
      <point x="413" y="128" smooth="yes"/>
      <point x="350" y="23" smooth="yes"/>
      <point x="257" y="23" type="curve" smooth="yes"/>
      <point x="141" y="23" type="line"/>
      <point x="204" y="321" type="line"/>
    </contour>
    <contour>
      <point x="334" y="607" type="line" smooth="yes"/>
      <point x="413" y="607" smooth="yes"/>
      <point x="447" y="560" smooth="yes"/>
      <point x="447" y="506" type="curve" smooth="yes" name="hr03"/>
      <point x="447" y="431" smooth="yes"/>
      <point x="381" y="341" smooth="yes"/>
      <point x="277" y="341" type="curve" smooth="yes"/>
      <point x="208" y="341" type="line"/>
      <point x="264" y="607" type="line"/>
    </contour>
  </outline>
</glyph>
<glyph name="C" format="1">
  <advance width="549"/>
  <unicode hex="0043"/>
  <outline>
    <contour>
      <point x="436" y="0" type="line"/>
      <point x="454" y="0" type="line"/>
      <point x="489" y="167" type="line"/>
      <point x="472" y="167" type="line"/>
      <point x="436" y="58" smooth="yes"/>
      <point x="351" y="17" smooth="yes"/>
      <point x="265" y="17" type="curve" smooth="yes" name="hr01"/>
      <point x="176" y="17" smooth="yes"/>
      <point x="119" y="83" smooth="yes"/>
      <point x="119" y="204" type="curve" smooth="yes"/>
      <point x="119" y="358" smooth="yes"/>
      <point x="209" y="613" smooth="yes"/>
      <point x="395" y="613" type="curve" smooth="yes"/>
      <point x="474" y="613" smooth="yes"/>
      <point x="536" y="578" smooth="yes"/>
      <point x="536" y="486" type="curve" smooth="yes"/>
      <point x="536" y="479"/>
      <point x="536" y="471"/>
      <point x="535" y="463" type="curve"/>
      <point x="552" y="463" type="line"/>
      <point x="589" y="636" type="line" name="hr02"/>
      <point x="571" y="636" type="line"/>
      <point x="565" y="616" type="line" smooth="yes"/>
      <point x="560" y="601" smooth="yes"/>
      <point x="554" y="595" smooth="yes"/>
      <point x="546" y="595" type="curve" smooth="yes"/>
      <point x="523" y="595" smooth="yes"/>
      <point x="493" y="642" smooth="yes"/>
      <point x="404" y="642" type="curve" smooth="yes" name="hr03"/>
      <point x="178" y="642" smooth="yes"/>
      <point x="50" y="406" smooth="yes"/>
      <point x="50" y="216" type="curve" smooth="yes"/>
      <point x="50" y="70" smooth="yes"/>
      <point x="135" y="-12" smooth="yes"/>
      <point x="265" y="-12" type="curve" smooth="yes"/>
      <point x="354" y="-12" smooth="yes"/>
      <point x="404" y="35" smooth="yes"/>
      <point x="427" y="35" type="curve" smooth="yes"/>
      <point x="433" y="35" smooth="yes"/>
      <point x="438" y="31" smooth="yes"/>
      <point x="438" y="22" type="curve" smooth="yes" name="hr04"/>
      <point x="438" y="20" smooth="yes"/>
      <point x="437" y="17" smooth="yes"/>
      <point x="437" y="14" type="curve" smooth="yes"/>
    </contour>
  </outline>
</glyph>
<glyph name="D" format="1">
  <advance width="611"/>
  <unicode hex="0044"/>
  <outline>
    <contour>
      <point x="379" y="607" type="line" smooth="yes" name="hr00"/>
      <point x="468" y="607" smooth="yes"/>
      <point x="530" y="539" smooth="yes"/>
      <point x="530" y="417" type="curve" smooth="yes"/>
      <point x="530" y="265" smooth="yes"/>
      <point x="437" y="23" smooth="yes"/>
      <point x="257" y="23" type="curve" smooth="yes"/>
      <point x="141" y="23" type="line"/>
      <point x="264" y="607" type="line"/>
    </contour>
    <contour>
      <point x="143" y="630" type="line"/>
      <point x="140" y="612" type="line"/>
      <point x="184" y="612" type="line" smooth="yes"/>
      <point x="189" y="612" smooth="yes"/>
      <point x="195" y="610" smooth="yes"/>
      <point x="195" y="604" type="curve" smooth="yes"/>
      <point x="195" y="600" smooth="yes"/>
      <point x="184" y="549" smooth="yes"/>
      <point x="75" y="33" type="curve" smooth="yes"/>
      <point x="73" y="23" smooth="yes"/>
      <point x="69" y="18" smooth="yes"/>
      <point x="59" y="18" type="curve" smooth="yes"/>
      <point x="13" y="18" type="line"/>
      <point x="10" y="0" type="line"/>
      <point x="252" y="0" type="line" smooth="yes"/>
      <point x="471" y="0" smooth="yes"/>
      <point x="601" y="221" smooth="yes"/>
      <point x="601" y="408" type="curve" smooth="yes"/>
      <point x="601" y="550" smooth="yes"/>
      <point x="516" y="630" smooth="yes"/>
      <point x="385" y="630" type="curve" smooth="yes"/>
    </contour>
  </outline>
</glyph>
<glyph name="E" format="1">
  <advance width="542"/>
  <unicode hex="0045"/>
  <outline>
    <contour>
      <point x="143" y="630" type="line"/>
      <point x="140" y="612" type="line"/>
      <point x="184" y="612" type="line" smooth="yes"/>
      <point x="189" y="612" smooth="yes"/>
      <point x="195" y="610" smooth="yes"/>
      <point x="195" y="604" type="curve" smooth="yes"/>
      <point x="195" y="600" smooth="yes"/>
      <point x="184" y="549" smooth="yes"/>
      <point x="75" y="33" type="curve" smooth="yes"/>
      <point x="73" y="23" smooth="yes"/>
      <point x="69" y="18" smooth="yes"/>
      <point x="59" y="18" type="curve" smooth="yes"/>
      <point x="13" y="18" type="line"/>
      <point x="10" y="0" type="line"/>
      <point x="325" y="0" type="line" smooth="yes"/>
      <point x="378" y="0"/>
      <point x="412" y="-4"/>
      <point x="428" y="-9" type="curve" name="hr01"/>
      <point x="428" y="10" smooth="yes"/>
      <point x="435" y="64" smooth="yes"/>
      <point x="447" y="120" type="curve" smooth="yes"/>
      <point x="457" y="167" type="line"/>
      <point x="435" y="167" type="line"/>
      <point x="393" y="45" type="line" smooth="yes"/>
      <point x="387" y="27" smooth="yes"/>
      <point x="377" y="23" smooth="yes"/>
      <point x="362" y="23" type="curve" smooth="yes" name="hr02"/>
      <point x="141" y="23" type="line"/>
      <point x="200" y="301" type="line"/>
      <point x="400" y="301" type="line" smooth="yes"/>
      <point x="408" y="301"/>
      <point x="411" y="295"/>
      <point x="411" y="287" type="curve"/>
      <point x="402" y="225" type="line"/>
      <point x="419" y="225" type="line"/>
      <point x="458" y="405" type="line"/>
      <point x="441" y="405" type="line"/>
      <point x="421" y="343" type="line" smooth="yes"/>
      <point x="419" y="336"/>
      <point x="414" y="330"/>
      <point x="407" y="329" type="curve"/>
      <point x="205" y="329" type="line"/>
      <point x="264" y="607" type="line"/>
      <point x="475" y="607" type="line" smooth="yes"/>
      <point x="488" y="607" smooth="yes"/>
      <point x="497" y="604" smooth="yes"/>
      <point x="497" y="590" type="curve" smooth="yes"/>
      <point x="484" y="463" type="line"/>
      <point x="506" y="463" type="line"/>
      <point x="516" y="510" type="line" smooth="yes"/>
      <point x="528" y="565"/>
      <point x="544" y="621"/>
      <point x="552" y="639" type="curve" name="hr03"/>
      <point x="534" y="634" smooth="yes"/>
      <point x="498" y="630" smooth="yes"/>
      <point x="444" y="630" type="curve" smooth="yes" name="hr04"/>
    </contour>
  </outline>
</glyph>
<glyph name="F" format="1">
  <advance width="501"/>
  <unicode hex="0046"/>
  <outline>
    <contour>
      <point x="143" y="630" type="line"/>
      <point x="140" y="612" type="line"/>
      <point x="184" y="612" type="line" smooth="yes"/>
      <point x="189" y="612" smooth="yes"/>
      <point x="195" y="610" smooth="yes"/>
      <point x="195" y="604" type="curve" smooth="yes"/>
      <point x="195" y="600" smooth="yes"/>
      <point x="184" y="549" smooth="yes"/>
      <point x="75" y="33" type="curve" smooth="yes"/>
      <point x="73" y="23" smooth="yes"/>
      <point x="69" y="18" smooth="yes"/>
      <point x="59" y="18" type="curve" smooth="yes"/>
      <point x="13" y="18" type="line"/>
      <point x="10" y="0" type="line"/>
      <point x="232" y="0" type="line"/>
      <point x="235" y="18" type="line"/>
      <point x="152" y="18" type="line" smooth="yes"/>
      <point x="146" y="18"/>
      <point x="142" y="23"/>
      <point x="142" y="28" type="curve"/>
      <point x="199" y="301" type="line"/>
      <point x="394" y="301" type="line" smooth="yes"/>
      <point x="402" y="301"/>
      <point x="406" y="295"/>
      <point x="406" y="287" type="curve"/>
      <point x="396" y="225" type="line"/>
      <point x="413" y="225" type="line"/>
      <point x="452" y="405" type="line"/>
      <point x="435" y="405" type="line"/>
      <point x="417" y="343" type="line" smooth="yes"/>
      <point x="415" y="335"/>
      <point x="409" y="330"/>
      <point x="402" y="329" type="curve"/>
      <point x="205" y="329" type="line"/>
      <point x="263" y="602" type="line"/>
      <point x="467" y="602" type="line" smooth="yes"/>
      <point x="480" y="602"/>
      <point x="489" y="599"/>
      <point x="489" y="586" type="curve"/>
      <point x="479" y="463" type="line"/>
      <point x="501" y="463" type="line"/>
      <point x="511" y="510" type="line" smooth="yes"/>
      <point x="523" y="565"/>
      <point x="538" y="621"/>
      <point x="546" y="639" type="curve" name="hr01"/>
      <point x="528" y="634" smooth="yes"/>
      <point x="492" y="630" smooth="yes"/>
      <point x="439" y="630" type="curve" smooth="yes" name="hr02"/>
    </contour>
  </outline>
</glyph>
<glyph name="G" format="1">
  <advance width="579"/>
  <unicode hex="0047"/>
  <outline>
    <contour>
      <point x="531" y="226" type="line" smooth="yes"/>
      <point x="533" y="234" smooth="yes"/>
      <point x="541" y="240" smooth="yes"/>
      <point x="549" y="240" type="curve" smooth="yes"/>
      <point x="574" y="240" type="line"/>
      <point x="577" y="258" type="line"/>
      <point x="394" y="258" type="line"/>
      <point x="391" y="240" type="line"/>
      <point x="454" y="240" type="line" smooth="yes"/>
      <point x="459" y="240"/>
      <point x="464" y="236"/>
      <point x="464" y="229" type="curve"/>
      <point x="440" y="84" smooth="yes"/>
      <point x="384" y="17" smooth="yes"/>
      <point x="270" y="17" type="curve" smooth="yes"/>
      <point x="177" y="17" smooth="yes"/>
      <point x="119" y="83" smooth="yes"/>
      <point x="119" y="204" type="curve" smooth="yes"/>
      <point x="119" y="358" smooth="yes"/>
      <point x="209" y="613" smooth="yes"/>
      <point x="395" y="613" type="curve" smooth="yes"/>
      <point x="474" y="613" smooth="yes"/>
      <point x="536" y="578" smooth="yes"/>
      <point x="536" y="486" type="curve" smooth="yes"/>
      <point x="536" y="479"/>
      <point x="536" y="471"/>
      <point x="535" y="463" type="curve"/>
      <point x="552" y="463" type="line"/>
      <point x="589" y="636" type="line" name="hr01"/>
      <point x="571" y="636" type="line"/>
      <point x="565" y="616" type="line" smooth="yes"/>
      <point x="560" y="601" smooth="yes"/>
      <point x="554" y="595" smooth="yes"/>
      <point x="546" y="595" type="curve" smooth="yes"/>
      <point x="523" y="595" smooth="yes"/>
      <point x="493" y="642" smooth="yes"/>
      <point x="404" y="642" type="curve" smooth="yes" name="hr02"/>
      <point x="178" y="642" smooth="yes"/>
      <point x="50" y="406" smooth="yes"/>
      <point x="50" y="216" type="curve" smooth="yes"/>
      <point x="50" y="70" smooth="yes"/>
      <point x="135" y="-12" smooth="yes"/>
      <point x="265" y="-12" type="curve" smooth="yes"/>
      <point x="391" y="-12" smooth="yes"/>
      <point x="499" y="73" smooth="yes"/>
      <point x="524" y="192" type="curve" smooth="yes"/>
    </contour>
  </outline>
</glyph>
<glyph name="H" format="1">
  <advance width="673"/>
  <unicode hex="0048"/>
  <outline>
    <contour>
      <point x="628" y="598" type="curve" smooth="yes" name="hr00"/>
      <point x="631" y="610" smooth="yes"/>
      <point x="638" y="612" smooth="yes"/>
      <point x="645" y="612" type="curve" smooth="yes"/>
      <point x="690" y="612" type="line"/>
      <point x="693" y="630" type="line"/>
      <point x="509" y="630" type="line"/>
      <point x="506" y="612" type="line"/>
      <point x="550" y="612" type="line" smooth="yes"/>
      <point x="555" y="612" smooth="yes"/>
      <point x="561" y="610" smooth="yes"/>
      <point x="561" y="604" type="curve" smooth="yes"/>
      <point x="561" y="601"/>
      <point x="554" y="569"/>
      <point x="503" y="329" type="curve"/>
      <point x="204" y="329" type="line"/>
      <point x="262" y="598" type="line" smooth="yes"/>
      <point x="265" y="610" smooth="yes"/>
      <point x="272" y="612" smooth="yes"/>
      <point x="279" y="612" type="curve" smooth="yes"/>
      <point x="324" y="612" type="line"/>
      <point x="327" y="630" type="line"/>
      <point x="143" y="630" type="line"/>
      <point x="140" y="612" type="line"/>
      <point x="184" y="612" type="line" smooth="yes"/>
      <point x="189" y="612" smooth="yes"/>
      <point x="195" y="610" smooth="yes"/>
      <point x="195" y="604" type="curve" smooth="yes"/>
      <point x="195" y="600" smooth="yes"/>
      <point x="184" y="549" smooth="yes"/>
      <point x="75" y="33" type="curve" smooth="yes"/>
      <point x="73" y="23" smooth="yes"/>
      <point x="69" y="18" smooth="yes"/>
      <point x="59" y="18" type="curve" smooth="yes"/>
      <point x="13" y="18" type="line"/>
      <point x="10" y="0" type="line"/>
      <point x="194" y="0" type="line"/>
      <point x="197" y="18" type="line"/>
      <point x="153" y="18" type="line" smooth="yes"/>
      <point x="148" y="18" smooth="yes"/>
      <point x="142" y="21" smooth="yes"/>
      <point x="142" y="28" type="curve" smooth="yes"/>
      <point x="142" y="34"/>
      <point x="168" y="159"/>
      <point x="198" y="301" type="curve"/>
      <point x="498" y="301" type="line"/>
      <point x="441" y="33" type="line" smooth="yes"/>
      <point x="439" y="23" smooth="yes"/>
      <point x="435" y="18" smooth="yes"/>
      <point x="425" y="18" type="curve" smooth="yes"/>
      <point x="379" y="18" type="line"/>
      <point x="376" y="0" type="line"/>
      <point x="560" y="0" type="line"/>
      <point x="563" y="18" type="line"/>
      <point x="519" y="18" type="line" smooth="yes"/>
      <point x="514" y="18" smooth="yes"/>
      <point x="508" y="21" smooth="yes"/>
      <point x="508" y="28" type="curve" smooth="yes"/>
      <point x="508" y="38" smooth="yes"/>
      <point x="588" y="408" smooth="yes"/>
    </contour>
  </outline>
</glyph>
<glyph name="I" format="1">
  <advance width="307"/>
  <unicode hex="0049"/>
  <outline>
    <contour>
      <point x="262" y="598" type="curve" name="hr00"/>
      <point x="265" y="610" smooth="yes"/>
      <point x="272" y="612" smooth="yes"/>
      <point x="279" y="612" type="curve" smooth="yes"/>
      <point x="324" y="612" type="line"/>
      <point x="327" y="630" type="line"/>
      <point x="143" y="630" type="line"/>
      <point x="140" y="612" type="line"/>
      <point x="184" y="612" type="line" smooth="yes"/>
      <point x="189" y="612" smooth="yes"/>
      <point x="195" y="610" smooth="yes"/>
      <point x="195" y="604" type="curve" smooth="yes"/>
      <point x="195" y="600" smooth="yes"/>
      <point x="184" y="549" smooth="yes"/>
      <point x="75" y="33" type="curve" smooth="yes"/>
      <point x="73" y="23" smooth="yes"/>
      <point x="69" y="18" smooth="yes"/>
      <point x="59" y="18" type="curve" smooth="yes"/>
      <point x="13" y="18" type="line"/>
      <point x="10" y="0" type="line"/>
      <point x="194" y="0" type="line"/>
      <point x="197" y="18" type="line"/>
      <point x="153" y="18" type="line" smooth="yes"/>
      <point x="148" y="18" smooth="yes"/>
      <point x="142" y="21" smooth="yes"/>
      <point x="142" y="28" type="curve" smooth="yes"/>
      <point x="142" y="38"/>
      <point x="222" y="408"/>
    </contour>
  </outline>
</glyph>
<glyph name="J" format="1">
  <advance width="297"/>
  <unicode hex="004A"/>
  <outline>
    <contour>
      <point x="58" y="-45" type="curve" smooth="yes" name="hr00"/>
      <point x="44" y="-110" smooth="yes"/>
      <point x="11" y="-135" smooth="yes"/>
      <point x="-20" y="-135" type="curve" smooth="yes"/>
      <point x="-42" y="-135" smooth="yes"/>
      <point x="-53" y="-120" smooth="yes"/>
      <point x="-53" y="-102" type="curve" smooth="yes"/>
      <point x="-53" y="-81"/>
      <point x="-40" y="-50"/>
      <point x="-24" y="-27" type="curve"/>
      <point x="-32" y="-17" smooth="yes"/>
      <point x="-49" y="-12" smooth="yes"/>
      <point x="-66" y="-12" type="curve" smooth="yes"/>
      <point x="-96" y="-12" smooth="yes"/>
      <point x="-116" y="-53" smooth="yes"/>
      <point x="-116" y="-90" type="curve" smooth="yes"/>
      <point x="-116" y="-125" smooth="yes"/>
      <point x="-96" y="-159" smooth="yes"/>
      <point x="-33" y="-159" type="curve" smooth="yes"/>
      <point x="60" y="-159" smooth="yes"/>
      <point x="122" y="-61" smooth="yes"/>
      <point x="162" y="127" type="curve" smooth="yes"/>
      <point x="262" y="598" type="line" smooth="yes"/>
      <point x="265" y="610" smooth="yes"/>
      <point x="272" y="612" smooth="yes"/>
      <point x="279" y="612" type="curve" smooth="yes"/>
      <point x="324" y="612" type="line"/>
      <point x="327" y="630" type="line"/>
      <point x="143" y="630" type="line"/>
      <point x="140" y="612" type="line"/>
      <point x="184" y="612" type="line" smooth="yes"/>
      <point x="189" y="612" smooth="yes"/>
      <point x="195" y="610" smooth="yes"/>
      <point x="195" y="604" type="curve" smooth="yes"/>
      <point x="195" y="600" smooth="yes"/>
      <point x="167" y="471" smooth="yes"/>
    </contour>
  </outline>
</glyph>
<glyph name="K" format="1">
  <advance width="568"/>
  <unicode hex="004B"/>
  <outline>
    <contour>
      <point x="262" y="598" type="curve" smooth="yes"/>
      <point x="265" y="610" smooth="yes"/>
      <point x="272" y="612" smooth="yes"/>
      <point x="279" y="612" type="curve" smooth="yes"/>
      <point x="324" y="612" type="line"/>
      <point x="327" y="630" type="line"/>
      <point x="143" y="630" type="line"/>
      <point x="140" y="612" type="line"/>
      <point x="184" y="612" type="line" smooth="yes"/>
      <point x="189" y="612" smooth="yes"/>
      <point x="195" y="610" smooth="yes"/>
      <point x="195" y="604" type="curve" smooth="yes"/>
      <point x="195" y="600" smooth="yes"/>
      <point x="184" y="549" smooth="yes"/>
      <point x="75" y="33" type="curve" smooth="yes"/>
      <point x="73" y="23" smooth="yes"/>
      <point x="69" y="18" smooth="yes"/>
      <point x="59" y="18" type="curve" smooth="yes"/>
      <point x="13" y="18" type="line"/>
      <point x="10" y="0" type="line" name="hr01"/>
      <point x="194" y="0" type="line"/>
      <point x="197" y="18" type="line" name="hr02"/>
      <point x="153" y="18" type="line" smooth="yes"/>
      <point x="148" y="18" smooth="yes"/>
      <point x="142" y="21" smooth="yes"/>
      <point x="142" y="28" type="curve" smooth="yes"/>
      <point x="142" y="38" smooth="yes"/>
      <point x="222" y="408" smooth="yes"/>
    </contour>
    <contour>
      <point x="405" y="175" type="line" smooth="yes"/>
      <point x="403" y="254"/>
      <point x="379" y="325"/>
      <point x="274" y="327" type="curve"/>
      <point x="545" y="598" type="line" smooth="yes"/>
      <point x="556" y="610" smooth="yes"/>
      <point x="559" y="612" smooth="yes"/>
      <point x="574" y="612" type="curve" smooth="yes"/>
      <point x="600" y="612" type="line"/>
      <point x="603" y="630" type="line"/>
      <point x="474" y="630" type="line"/>
      <point x="471" y="612" type="line"/>
      <point x="518" y="612" type="line"/>
      <point x="233" y="325" type="line"/>
      <point x="228" y="309" type="line"/>
      <point x="300" y="309" smooth="yes"/>
      <point x="330" y="281" smooth="yes"/>
      <point x="334" y="193" type="curve" smooth="yes"/>
      <point x="338" y="95" type="line" smooth="yes"/>
      <point x="341" y="18" smooth="yes"/>
      <point x="368" y="-12" smooth="yes"/>
      <point x="413" y="-12" type="curve" smooth="yes"/>
      <point x="465" y="-12"/>
      <point x="506" y="30"/>
      <point x="506" y="99" type="curve"/>
      <point x="487" y="96" type="line"/>
      <point x="487" y="51" smooth="yes"/>
      <point x="467" y="21" smooth="yes"/>
      <point x="440" y="21" type="curve" smooth="yes" name="hr03"/>
      <point x="417" y="21" smooth="yes"/>
      <point x="408" y="42" smooth="yes"/>
      <point x="407" y="83" type="curve" smooth="yes"/>
    </contour>
  </outline>
</glyph>
<glyph name="L" format="1">
  <advance width="453"/>
  <unicode hex="004C"/>
  <outline>
    <contour>
      <point x="262" y="598" type="line" smooth="yes"/>
      <point x="265" y="610" smooth="yes"/>
      <point x="272" y="612" smooth="yes"/>
      <point x="279" y="612" type="curve" smooth="yes"/>
      <point x="324" y="612" type="line"/>
      <point x="327" y="630" type="line"/>
      <point x="143" y="630" type="line"/>
      <point x="140" y="612" type="line"/>
      <point x="184" y="612" type="line" smooth="yes"/>
      <point x="189" y="612" smooth="yes"/>
      <point x="195" y="610" smooth="yes"/>
      <point x="195" y="604" type="curve" smooth="yes"/>
      <point x="195" y="600" smooth="yes"/>
      <point x="184" y="549" smooth="yes"/>
      <point x="75" y="33" type="curve" smooth="yes"/>
      <point x="73" y="23" smooth="yes"/>
      <point x="69" y="18" smooth="yes"/>
      <point x="59" y="18" type="curve" smooth="yes"/>
      <point x="13" y="18" type="line"/>
      <point x="10" y="0" type="line"/>
      <point x="301" y="0" type="line" smooth="yes"/>
      <point x="354" y="0"/>
      <point x="388" y="-4"/>
      <point x="404" y="-9" type="curve" name="hr01"/>
      <point x="404" y="9" smooth="yes"/>
      <point x="411" y="65" smooth="yes"/>
      <point x="423" y="120" type="curve" smooth="yes"/>
      <point x="433" y="167" type="line"/>
      <point x="411" y="167" type="line"/>
      <point x="370" y="45" type="line" smooth="yes"/>
      <point x="364" y="27" smooth="yes"/>
      <point x="353" y="23" smooth="yes"/>
      <point x="338" y="23" type="curve" smooth="yes" name="hr02"/>
      <point x="141" y="23" type="line"/>
    </contour>
  </outline>
</glyph>
<glyph name="M" format="1">
  <advance width="769"/>
  <unicode hex="004D"/>
  <outline>
    <contour>
      <point x="649" y="565" type="line" name="hr00"/>
      <point x="537" y="33" type="line" smooth="yes"/>
      <point x="535" y="23" smooth="yes"/>
      <point x="531" y="18" smooth="yes"/>
      <point x="521" y="18" type="curve" smooth="yes"/>
      <point x="475" y="18" type="line"/>
      <point x="472" y="0" type="line"/>
      <point x="656" y="0" type="line"/>
      <point x="659" y="18" type="line"/>
      <point x="615" y="18" type="line" smooth="yes"/>
      <point x="610" y="18" smooth="yes"/>
      <point x="604" y="21" smooth="yes"/>
      <point x="604" y="28" type="curve" smooth="yes"/>
      <point x="604" y="38" smooth="yes"/>
      <point x="684" y="408" smooth="yes"/>
      <point x="724" y="598" type="curve" smooth="yes"/>
      <point x="727" y="610" smooth="yes"/>
      <point x="734" y="612" smooth="yes"/>
      <point x="741" y="612" type="curve" smooth="yes"/>
      <point x="786" y="612" type="line"/>
      <point x="789" y="630" type="line"/>
      <point x="653" y="630" type="line"/>
      <point x="344" y="94" type="line"/>
      <point x="269" y="630" type="line"/>
      <point x="133" y="630" type="line"/>
      <point x="130" y="612" type="line"/>
      <point x="174" y="612" type="line" smooth="yes"/>
      <point x="179" y="612" smooth="yes"/>
      <point x="185" y="610" smooth="yes"/>
      <point x="185" y="604" type="curve" smooth="yes"/>
      <point x="185" y="600" smooth="yes"/>
      <point x="174" y="549" smooth="yes"/>
      <point x="65" y="33" type="curve" smooth="yes"/>
      <point x="63" y="23" smooth="yes"/>
      <point x="59" y="18" smooth="yes"/>
      <point x="49" y="18" type="curve" smooth="yes"/>
      <point x="3" y="18" type="line"/>
      <point x="0" y="0" type="line"/>
      <point x="149" y="0" type="line"/>
      <point x="152" y="18" type="line"/>
      <point x="108" y="18" type="line" smooth="yes"/>
      <point x="103" y="18" smooth="yes"/>
      <point x="97" y="21" smooth="yes"/>
      <point x="97" y="28" type="curve" smooth="yes"/>
      <point x="97" y="38"/>
      <point x="169" y="375"/>
      <point x="209" y="565" type="curve"/>
      <point x="289" y="0" type="line"/>
      <point x="321" y="0" type="line"/>
    </contour>
  </outline>
</glyph>
<glyph name="N" format="1">
  <advance width="639"/>
  <unicode hex="004E"/>
  <outline>
    <contour>
      <point x="273" y="630" type="line" name="hr00"/>
      <point x="133" y="630" type="line"/>
      <point x="130" y="612" type="line"/>
      <point x="174" y="612" type="line" smooth="yes"/>
      <point x="179" y="612" smooth="yes"/>
      <point x="185" y="610" smooth="yes"/>
      <point x="185" y="604" type="curve" smooth="yes"/>
      <point x="185" y="600" smooth="yes"/>
      <point x="174" y="549" smooth="yes"/>
      <point x="65" y="33" type="curve" smooth="yes"/>
      <point x="63" y="23" smooth="yes"/>
      <point x="59" y="18" smooth="yes"/>
      <point x="49" y="18" type="curve" smooth="yes"/>
      <point x="3" y="18" type="line"/>
      <point x="0" y="0" type="line"/>
      <point x="149" y="0" type="line"/>
      <point x="152" y="18" type="line"/>
      <point x="108" y="18" type="line" smooth="yes"/>
      <point x="103" y="18" smooth="yes"/>
      <point x="97" y="21" smooth="yes"/>
      <point x="97" y="28" type="curve" smooth="yes"/>
      <point x="97" y="38" smooth="yes"/>
      <point x="174" y="397" smooth="yes"/>
      <point x="214" y="587" type="curve" smooth="yes"/>
      <point x="448" y="0" type="line"/>
      <point x="478" y="0" type="line"/>
      <point x="604" y="598" type="line" smooth="yes"/>
      <point x="607" y="610" smooth="yes"/>
      <point x="614" y="612" smooth="yes"/>
      <point x="621" y="612" type="curve" smooth="yes"/>
      <point x="666" y="612" type="line"/>
      <point x="669" y="630" type="line"/>
      <point x="521" y="630" type="line"/>
      <point x="518" y="612" type="line"/>
      <point x="562" y="612" type="line" smooth="yes"/>
      <point x="567" y="612" smooth="yes"/>
      <point x="573" y="610" smooth="yes"/>
      <point x="573" y="604" type="curve" smooth="yes"/>
      <point x="573" y="598"/>
      <point x="531" y="404"/>
      <point x="472" y="125" type="curve"/>
    </contour>
  </outline>
</glyph>
<glyph name="O" format="1">
  <advance width="627"/>
  <unicode hex="004F"/>
  <outline>
    <contour>
      <point x="50" y="216" type="curve" smooth="yes" name="hr00"/>
      <point x="50" y="70" smooth="yes"/>
      <point x="134" y="-12" smooth="yes"/>
      <point x="264" y="-12" type="curve" smooth="yes"/>
      <point x="491" y="-12" smooth="yes"/>
      <point x="617" y="224" smooth="yes"/>
      <point x="617" y="415" type="curve" smooth="yes"/>
      <point x="617" y="561" smooth="yes"/>
      <point x="533" y="642" smooth="yes"/>
      <point x="403" y="642" type="curve" smooth="yes"/>
      <point x="178" y="642" smooth="yes"/>
      <point x="50" y="405" smooth="yes"/>
    </contour>
    <contour>
      <point x="400" y="616" type="curve" smooth="yes"/>
      <point x="486" y="616" smooth="yes"/>
      <point x="547" y="547" smooth="yes"/>
      <point x="547" y="423" type="curve" smooth="yes"/>
      <point x="547" y="274" smooth="yes"/>
      <point x="453" y="14" smooth="yes"/>
      <point x="266" y="14" type="curve" smooth="yes"/>
      <point x="179" y="14" smooth="yes"/>
      <point x="120" y="82" smooth="yes"/>
      <point x="120" y="206" type="curve" smooth="yes"/>
      <point x="120" y="356" smooth="yes"/>
      <point x="213" y="616" smooth="yes"/>
    </contour>
  </outline>
</glyph>
<glyph name="P" format="1">
  <advance width="492"/>
  <unicode hex="0050"/>
  <outline>
    <contour>
      <point x="286" y="251" type="line" smooth="yes" name="hr00"/>
      <point x="397" y="251" smooth="yes"/>
      <point x="522" y="338" smooth="yes"/>
      <point x="522" y="487" type="curve" smooth="yes"/>
      <point x="522" y="579" smooth="yes"/>
      <point x="454" y="630" smooth="yes"/>
      <point x="366" y="630" type="curve" smooth="yes"/>
      <point x="143" y="630" type="line"/>
      <point x="140" y="612" type="line"/>
      <point x="184" y="612" type="line" smooth="yes"/>
      <point x="189" y="612" smooth="yes"/>
      <point x="195" y="610" smooth="yes"/>
      <point x="195" y="604" type="curve" smooth="yes"/>
      <point x="195" y="600" smooth="yes"/>
      <point x="184" y="549" smooth="yes"/>
      <point x="75" y="33" type="curve" smooth="yes"/>
      <point x="73" y="23" smooth="yes"/>
      <point x="69" y="18" smooth="yes"/>
      <point x="59" y="18" type="curve" smooth="yes"/>
      <point x="13" y="18" type="line"/>
      <point x="10" y="0" type="line"/>
      <point x="223" y="0" type="line"/>
      <point x="226" y="18" type="line"/>
      <point x="153" y="18" type="line" smooth="yes"/>
      <point x="148" y="18" smooth="yes"/>
      <point x="142" y="21" smooth="yes"/>
      <point x="142" y="28" type="curve" smooth="yes"/>
      <point x="142" y="33"/>
      <point x="162" y="131"/>
      <point x="188" y="251" type="curve"/>
    </contour>
    <contour>
      <point x="355" y="607" type="line" smooth="yes"/>
      <point x="426" y="607" smooth="yes"/>
      <point x="456" y="553" smooth="yes"/>
      <point x="456" y="491" type="curve" smooth="yes"/>
      <point x="456" y="397" smooth="yes"/>
      <point x="389" y="274" smooth="yes"/>
      <point x="287" y="274" type="curve" smooth="yes"/>
      <point x="193" y="274" type="line"/>
      <point x="264" y="607" type="line"/>
    </contour>
  </outline>
</glyph>
<glyph name="Q" format="1">
  <advance width="627"/>
  <unicode hex="0051"/>
  <outline>
    <contour>
      <point x="344" y="9" type="line" name="hr00"/>
      <point x="306" y="-5" smooth="yes"/>
      <point x="273" y="-11" smooth="yes"/>
      <point x="242" y="-11" type="curve" smooth="yes"/>
      <point x="117" y="-11" smooth="yes"/>
      <point x="50" y="93" smooth="yes"/>
      <point x="50" y="216" type="curve" smooth="yes"/>
      <point x="50" y="405" smooth="yes"/>
      <point x="178" y="642" smooth="yes"/>
      <point x="403" y="642" type="curve" smooth="yes"/>
      <point x="533" y="642" smooth="yes"/>
      <point x="617" y="561" smooth="yes"/>
      <point x="617" y="415" type="curve" smooth="yes"/>
      <point x="617" y="80"/>
      <point x="355" y="-85"/>
      <point x="180" y="-85" type="curve"/>
      <point x="180" y="-90" type="line"/>
      <point x="239" y="-90" smooth="yes"/>
      <point x="278" y="-139" smooth="yes"/>
      <point x="338" y="-139" type="curve" smooth="yes"/>
      <point x="375" y="-139"/>
      <point x="420" y="-111"/>
      <point x="462" y="-43" type="curve"/>
      <point x="474" y="-49" type="line"/>
      <point x="412" y="-166" smooth="yes"/>
      <point x="363" y="-198" smooth="yes"/>
      <point x="319" y="-198" type="curve" smooth="yes"/>
      <point x="247" y="-198" smooth="yes"/>
      <point x="210" y="-116" smooth="yes"/>
      <point x="153" y="-116" type="curve" smooth="yes"/>
      <point x="117" y="-116"/>
      <point x="96" y="-137"/>
      <point x="70" y="-184" type="curve"/>
      <point x="58" y="-179" type="line"/>
      <point x="76" y="-130" smooth="yes"/>
      <point x="97" y="-71" smooth="yes"/>
      <point x="180" y="-63" type="curve" smooth="yes"/>
      <point x="292" y="-51" smooth="yes"/>
      <point x="547" y="17" smooth="yes"/>
      <point x="547" y="423" type="curve" smooth="yes"/>
      <point x="547" y="547" smooth="yes"/>
      <point x="486" y="616" smooth="yes"/>
      <point x="400" y="616" type="curve" smooth="yes"/>
      <point x="213" y="616" smooth="yes"/>
      <point x="120" y="356" smooth="yes"/>
      <point x="120" y="206" type="curve" smooth="yes"/>
      <point x="120" y="110" smooth="yes"/>
      <point x="156" y="14" smooth="yes"/>
      <point x="263" y="14" type="curve" smooth="yes"/>
      <point x="285" y="14"/>
      <point x="310" y="18"/>
      <point x="338" y="27" type="curve"/>
    </contour>
  </outline>
</glyph>
<glyph name="R" format="1">
  <advance width="567"/>
  <unicode hex="0052"/>
  <outline>
    <contour>
      <point x="259" y="291" type="line" smooth="yes"/>
      <point x="340" y="291" smooth="yes"/>
      <point x="366" y="261" smooth="yes"/>
      <point x="366" y="202" type="curve" smooth="yes"/>
      <point x="366" y="150" smooth="yes"/>
      <point x="347" y="105" smooth="yes"/>
      <point x="347" y="58" type="curve" smooth="yes" name="hr01"/>
      <point x="347" y="5" smooth="yes"/>
      <point x="374" y="-12" smooth="yes"/>
      <point x="399" y="-12" type="curve" smooth="yes"/>
      <point x="458" y="-12"/>
      <point x="501" y="31"/>
      <point x="537" y="139" type="curve"/>
      <point x="520" y="143" type="line"/>
      <point x="494" y="62" smooth="yes"/>
      <point x="459" y="22" smooth="yes"/>
      <point x="431" y="22" type="curve" smooth="yes"/>
      <point x="415" y="22" smooth="yes"/>
      <point x="409" y="33" smooth="yes"/>
      <point x="409" y="50" type="curve" smooth="yes"/>
      <point x="409" y="82" smooth="yes"/>
      <point x="428" y="137" smooth="yes"/>
      <point x="428" y="189" type="curve" smooth="yes" name="hr02"/>
      <point x="428" y="234"/>
      <point x="413" y="277"/>
      <point x="358" y="298" type="curve"/>
      <point x="449" y="321" smooth="yes"/>
      <point x="530" y="392" smooth="yes"/>
      <point x="530" y="498" type="curve" smooth="yes"/>
      <point x="530" y="581" smooth="yes"/>
      <point x="460" y="630" smooth="yes"/>
      <point x="370" y="630" type="curve" smooth="yes"/>
      <point x="143" y="630" type="line"/>
      <point x="140" y="612" type="line"/>
      <point x="184" y="612" type="line" smooth="yes"/>
      <point x="189" y="612" smooth="yes"/>
      <point x="195" y="610" smooth="yes"/>
      <point x="195" y="604" type="curve" smooth="yes"/>
      <point x="195" y="600" smooth="yes"/>
      <point x="184" y="549" smooth="yes"/>
      <point x="75" y="33" type="curve" smooth="yes"/>
      <point x="73" y="23" smooth="yes"/>
      <point x="69" y="18" smooth="yes"/>
      <point x="59" y="18" type="curve" smooth="yes"/>
      <point x="13" y="18" type="line"/>
      <point x="10" y="0" type="line"/>
      <point x="214" y="0" type="line"/>
      <point x="217" y="18" type="line"/>
      <point x="153" y="18" type="line" smooth="yes"/>
      <point x="148" y="18" smooth="yes"/>
      <point x="142" y="21" smooth="yes"/>
      <point x="142" y="28" type="curve" smooth="yes"/>
      <point x="142" y="33"/>
      <point x="167" y="153"/>
      <point x="196" y="291" type="curve"/>
    </contour>
    <contour>
      <point x="360" y="607" type="line" smooth="yes"/>
      <point x="431" y="607" smooth="yes"/>
      <point x="464" y="558" smooth="yes"/>
      <point x="464" y="499" type="curve" smooth="yes"/>
      <point x="464" y="418" smooth="yes"/>
      <point x="401" y="315" smooth="yes"/>
      <point x="301" y="315" type="curve" smooth="yes"/>
      <point x="201" y="315" type="line"/>
      <point x="264" y="607" type="line"/>
    </contour>
  </outline>
</glyph>
<glyph name="S" format="1">
  <advance width="457"/>
  <unicode hex="0053"/>
  <outline>
    <contour>
      <point x="177" y="-12" type="curve" smooth="yes"/>
      <point x="300" y="-12" smooth="yes"/>
      <point x="403" y="95" smooth="yes"/>
      <point x="403" y="193" type="curve" smooth="yes"/>
      <point x="403" y="241" smooth="yes"/>
      <point x="378" y="287" smooth="yes"/>
      <point x="320" y="317" type="curve" smooth="yes"/>
      <point x="217" y="370" type="line" smooth="yes"/>
      <point x="175" y="392" smooth="yes"/>
      <point x="156" y="430" smooth="yes"/>
      <point x="156" y="470" type="curve" smooth="yes"/>
      <point x="156" y="539" smooth="yes"/>
      <point x="213" y="613" smooth="yes"/>
      <point x="305" y="613" type="curve" smooth="yes"/>
      <point x="370" y="613" smooth="yes"/>
      <point x="420" y="579" smooth="yes"/>
      <point x="420" y="492" type="curve" smooth="yes"/>
      <point x="420" y="483"/>
      <point x="419" y="473"/>
      <point x="418" y="463" type="curve"/>
      <point x="435" y="463" type="line"/>
      <point x="472" y="636" type="line" name="hr01"/>
      <point x="454" y="636" type="line"/>
      <point x="449" y="619" type="line" smooth="yes"/>
      <point x="444" y="604" smooth="yes"/>
      <point x="439" y="598" smooth="yes"/>
      <point x="432" y="598" type="curve" smooth="yes"/>
      <point x="413" y="598" smooth="yes"/>
      <point x="383" y="642" smooth="yes"/>
      <point x="303" y="642" type="curve" smooth="yes" name="hr02"/>
      <point x="179" y="642" smooth="yes"/>
      <point x="96" y="541" smooth="yes"/>
      <point x="96" y="445" type="curve" smooth="yes"/>
      <point x="96" y="388" smooth="yes"/>
      <point x="125" y="334" smooth="yes"/>
      <point x="190" y="302" type="curve" smooth="yes"/>
      <point x="270" y="261" type="line" smooth="yes"/>
      <point x="315" y="239" smooth="yes"/>
      <point x="332" y="206" smooth="yes"/>
      <point x="332" y="167" type="curve" smooth="yes"/>
      <point x="332" y="96" smooth="yes"/>
      <point x="271" y="17" smooth="yes"/>
      <point x="175" y="17" type="curve" smooth="yes"/>
      <point x="97" y="17" smooth="yes"/>
      <point x="37" y="52" smooth="yes"/>
      <point x="37" y="143" type="curve" smooth="yes"/>
      <point x="37" y="151"/>
      <point x="37" y="159"/>
      <point x="38" y="167" type="curve"/>
      <point x="20" y="167" type="line"/>
      <point x="-15" y="0" type="line" name="hr03"/>
      <point x="4" y="0" type="line"/>
      <point x="8" y="28" smooth="yes"/>
      <point x="18" y="35" smooth="yes"/>
      <point x="27" y="35" type="curve" smooth="yes"/>
      <point x="48" y="35" smooth="yes"/>
      <point x="80" y="-12" smooth="yes"/>
    </contour>
  </outline>
</glyph>
<glyph name="T" format="1">
  <advance width="472"/>
  <unicode hex="0054"/>
  <outline>
    <contour>
      <point x="190" y="630" type="line" smooth="yes"/>
      <point x="137" y="630"/>
      <point x="103" y="634"/>
      <point x="87" y="639" type="curve" name="hr01"/>
      <point x="87" y="621" smooth="yes"/>
      <point x="80" y="565" smooth="yes"/>
      <point x="68" y="510" type="curve" smooth="yes"/>
      <point x="58" y="463" type="line"/>
      <point x="80" y="463" type="line"/>
      <point x="119" y="580" type="line" smooth="yes"/>
      <point x="125" y="598" smooth="yes"/>
      <point x="135" y="602" smooth="yes"/>
      <point x="150" y="602" type="curve" smooth="yes" name="hr02"/>
      <point x="277" y="602" type="line"/>
      <point x="157" y="33" type="line" smooth="yes"/>
      <point x="155" y="23" smooth="yes"/>
      <point x="151" y="18" smooth="yes"/>
      <point x="141" y="18" type="curve" smooth="yes"/>
      <point x="53" y="18" type="line"/>
      <point x="50" y="0" type="line"/>
      <point x="318" y="0" type="line"/>
      <point x="321" y="18" type="line"/>
      <point x="235" y="18" type="line" smooth="yes"/>
      <point x="230" y="18" smooth="yes"/>
      <point x="224" y="21" smooth="yes"/>
      <point x="224" y="28" type="curve" smooth="yes"/>
      <point x="224" y="37"/>
      <point x="302" y="399"/>
      <point x="345" y="602" type="curve"/>
      <point x="473" y="602" type="line" smooth="yes"/>
      <point x="487" y="602"/>
      <point x="496" y="598"/>
      <point x="496" y="584" type="curve"/>
      <point x="485" y="463" type="line"/>
      <point x="507" y="463" type="line"/>
      <point x="517" y="510" type="line" smooth="yes"/>
      <point x="529" y="565"/>
      <point x="544" y="621"/>
      <point x="552" y="639" type="curve" name="hr03"/>
      <point x="534" y="634"/>
      <point x="498" y="630"/>
      <point x="445" y="630" type="curve" name="hr04"/>
    </contour>
  </outline>
</glyph>
<glyph name="U" format="1">
  <advance width="609"/>
  <unicode hex="0055"/>
  <outline>
    <contour>
      <point x="89" y="195" type="line" smooth="yes" name="hr00"/>
      <point x="84" y="173" smooth="yes"/>
      <point x="82" y="153" smooth="yes"/>
      <point x="82" y="135" type="curve" smooth="yes"/>
      <point x="82" y="33" smooth="yes"/>
      <point x="152" y="-12" smooth="yes"/>
      <point x="255" y="-12" type="curve" smooth="yes"/>
      <point x="379" y="-12" smooth="yes"/>
      <point x="478" y="51" smooth="yes"/>
      <point x="509" y="195" type="curve" smooth="yes"/>
      <point x="594" y="598" type="line" smooth="yes"/>
      <point x="596" y="606" smooth="yes"/>
      <point x="600" y="612" smooth="yes"/>
      <point x="611" y="612" type="curve" smooth="yes"/>
      <point x="656" y="612" type="line"/>
      <point x="659" y="630" type="line"/>
      <point x="510" y="630" type="line"/>
      <point x="507" y="612" type="line"/>
      <point x="552" y="612" type="line" smooth="yes"/>
      <point x="559" y="612"/>
      <point x="562" y="607"/>
      <point x="562" y="601" type="curve"/>
      <point x="476" y="194" type="line" smooth="yes"/>
      <point x="449" y="65" smooth="yes"/>
      <point x="345" y="21" smooth="yes"/>
      <point x="277" y="21" type="curve" smooth="yes"/>
      <point x="204" y="21" smooth="yes"/>
      <point x="149" y="55" smooth="yes"/>
      <point x="149" y="137" type="curve" smooth="yes"/>
      <point x="149" y="152" smooth="yes"/>
      <point x="151" y="169" smooth="yes"/>
      <point x="155" y="188" type="curve" smooth="yes"/>
      <point x="242" y="598" type="line" smooth="yes"/>
      <point x="245" y="610" smooth="yes"/>
      <point x="252" y="612" smooth="yes"/>
      <point x="259" y="612" type="curve" smooth="yes"/>
      <point x="304" y="612" type="line"/>
      <point x="307" y="630" type="line"/>
      <point x="123" y="630" type="line"/>
      <point x="120" y="612" type="line"/>
      <point x="165" y="612" type="line" smooth="yes"/>
      <point x="170" y="612"/>
      <point x="176" y="610"/>
      <point x="176" y="604" type="curve"/>
    </contour>
  </outline>
</glyph>
<glyph name="V" format="1">
  <advance width="501"/>
  <unicode hex="0056"/>
  <outline>
    <contour>
      <point x="73" y="630" type="line" name="hr00"/>
      <point x="70" y="612" type="line"/>
      <point x="105" y="612" type="line" smooth="yes"/>
      <point x="115" y="612" smooth="yes"/>
      <point x="119" y="606" smooth="yes"/>
      <point x="120" y="598" type="curve" smooth="yes"/>
      <point x="188" y="0" type="line"/>
      <point x="220" y="0" type="line"/>
      <point x="542" y="598" type="line" smooth="yes"/>
      <point x="546" y="606" smooth="yes"/>
      <point x="552" y="612" smooth="yes"/>
      <point x="563" y="612" type="curve" smooth="yes"/>
      <point x="598" y="612" type="line"/>
      <point x="601" y="630" type="line"/>
      <point x="472" y="630" type="line"/>
      <point x="469" y="612" type="line"/>
      <point x="516" y="612" type="line"/>
      <point x="246" y="109" type="line"/>
      <point x="189" y="612" type="line"/>
      <point x="236" y="612" type="line"/>
      <point x="239" y="630" type="line"/>
    </contour>
  </outline>
</glyph>
<glyph name="W" format="1">
  <advance width="814"/>
  <unicode hex="0057"/>
  <outline>
    <contour>
      <point x="785" y="630" type="line" name="hr00"/>
      <point x="782" y="612" type="line"/>
      <point x="829" y="612" type="line"/>
      <point x="580" y="120" type="line"/>
      <point x="530" y="612" type="line"/>
      <point x="578" y="612" type="line"/>
      <point x="581" y="630" type="line"/>
      <point x="414" y="630" type="line"/>
      <point x="411" y="612" type="line"/>
      <point x="446" y="612" type="line" smooth="yes"/>
      <point x="457" y="612" smooth="yes"/>
      <point x="460" y="606" smooth="yes"/>
      <point x="461" y="598" type="curve" smooth="yes"/>
      <point x="466" y="551" type="line"/>
      <point x="240" y="117" type="line"/>
      <point x="199" y="612" type="line"/>
      <point x="246" y="612" type="line"/>
      <point x="249" y="630" type="line"/>
      <point x="83" y="630" type="line"/>
      <point x="80" y="612" type="line"/>
      <point x="115" y="612" type="line" smooth="yes"/>
      <point x="125" y="612" smooth="yes"/>
      <point x="129" y="606" smooth="yes"/>
      <point x="130" y="598" type="curve" smooth="yes"/>
      <point x="179" y="0" type="line"/>
      <point x="211" y="0" type="line"/>
      <point x="470" y="498" type="line"/>
      <point x="520" y="0" type="line"/>
      <point x="552" y="0" type="line"/>
      <point x="855" y="598" type="line" smooth="yes"/>
      <point x="859" y="606" smooth="yes"/>
      <point x="865" y="612" smooth="yes"/>
      <point x="876" y="612" type="curve" smooth="yes"/>
      <point x="911" y="612" type="line"/>
      <point x="914" y="630" type="line"/>
    </contour>
  </outline>
</glyph>
<glyph name="X" format="1">
  <advance width="488"/>
  <unicode hex="0058"/>
  <outline>
    <contour>
      <point x="337" y="18" type="line" name="hr00"/>
      <point x="290" y="18" type="line"/>
      <point x="287" y="0" type="line"/>
      <point x="453" y="0" type="line"/>
      <point x="456" y="18" type="line"/>
      <point x="421" y="18" type="line" smooth="yes"/>
      <point x="411" y="18" smooth="yes"/>
      <point x="409" y="24" smooth="yes"/>
      <point x="406" y="32" type="curve" smooth="yes"/>
      <point x="300" y="334" type="line"/>
      <point x="519" y="600" type="line" smooth="yes"/>
      <point x="524" y="606" smooth="yes"/>
      <point x="530" y="612" smooth="yes"/>
      <point x="540" y="612" type="curve" smooth="yes"/>
      <point x="575" y="612" type="line"/>
      <point x="578" y="630" type="line"/>
      <point x="448" y="630" type="line"/>
      <point x="445" y="612" type="line"/>
      <point x="492" y="612" type="line"/>
      <point x="289" y="365" type="line"/>
      <point x="203" y="612" type="line"/>
      <point x="251" y="612" type="line"/>
      <point x="254" y="630" type="line"/>
      <point x="87" y="630" type="line"/>
      <point x="84" y="612" type="line"/>
      <point x="120" y="612" type="line" smooth="yes"/>
      <point x="130" y="612" smooth="yes"/>
      <point x="132" y="606" smooth="yes"/>
      <point x="135" y="598" type="curve" smooth="yes"/>
      <point x="234" y="312" type="line"/>
      <point x="4" y="32" type="line" smooth="yes"/>
      <point x="-2" y="25" smooth="yes"/>
      <point x="-6" y="18" smooth="yes"/>
      <point x="-17" y="18" type="curve" smooth="yes"/>
      <point x="-52" y="18" type="line"/>
      <point x="-55" y="0" type="line"/>
      <point x="75" y="0" type="line"/>
      <point x="78" y="18" type="line"/>
      <point x="31" y="18" type="line"/>
      <point x="245" y="280" type="line"/>
    </contour>
  </outline>
</glyph>
<glyph name="Y" format="1">
  <advance width="455"/>
  <unicode hex="0059"/>
  <outline>
    <contour>
      <point x="247" y="190" type="line" name="hr00"/>
      <point x="496" y="598" type="line" smooth="yes"/>
      <point x="501" y="606" smooth="yes"/>
      <point x="506" y="612" smooth="yes"/>
      <point x="517" y="612" type="curve" smooth="yes"/>
      <point x="552" y="612" type="line"/>
      <point x="555" y="630" type="line"/>
      <point x="426" y="630" type="line"/>
      <point x="423" y="612" type="line"/>
      <point x="470" y="612" type="line"/>
      <point x="259" y="257" type="line"/>
      <point x="179" y="612" type="line"/>
      <point x="226" y="612" type="line"/>
      <point x="229" y="630" type="line"/>
      <point x="64" y="630" type="line"/>
      <point x="61" y="612" type="line"/>
      <point x="96" y="612" type="line" smooth="yes"/>
      <point x="106" y="612" smooth="yes"/>
      <point x="109" y="606" smooth="yes"/>
      <point x="111" y="598" type="curve" smooth="yes"/>
      <point x="203" y="185" type="line"/>
    </contour>
    <contour>
      <point x="201" y="242" type="line"/>
      <point x="157" y="33" type="line" smooth="yes"/>
      <point x="155" y="23" smooth="yes"/>
      <point x="151" y="18" smooth="yes"/>
      <point x="141" y="18" type="curve" smooth="yes"/>
      <point x="73" y="18" type="line"/>
      <point x="70" y="0" type="line"/>
      <point x="298" y="0" type="line"/>
      <point x="301" y="18" type="line"/>
      <point x="235" y="18" type="line" smooth="yes"/>
      <point x="230" y="18" smooth="yes"/>
      <point x="224" y="21" smooth="yes"/>
      <point x="224" y="28" type="curve" smooth="yes"/>
      <point x="224" y="32"/>
      <point x="242" y="116"/>
      <point x="265" y="225" type="curve"/>
    </contour>
  </outline>
</glyph>
<glyph name="Z" format="1">
  <advance width="546"/>
  <unicode hex="005A"/>
  <outline>
    <contour>
      <point x="0" y="0" type="line"/>
      <point x="327" y="0" type="line" smooth="yes"/>
      <point x="380" y="0"/>
      <point x="415" y="-4"/>
      <point x="431" y="-9" type="curve" name="hr01"/>
      <point x="431" y="10" smooth="yes"/>
      <point x="437" y="65" smooth="yes"/>
      <point x="449" y="120" type="curve" smooth="yes"/>
      <point x="459" y="167" type="line"/>
      <point x="437" y="167" type="line"/>
      <point x="398" y="50" type="line" smooth="yes"/>
      <point x="392" y="32" smooth="yes"/>
      <point x="382" y="28" smooth="yes"/>
      <point x="366" y="28" type="curve" smooth="yes" name="hr02"/>
      <point x="96" y="28" type="line"/>
      <point x="560" y="602" type="line"/>
      <point x="566" y="630" type="line"/>
      <point x="259" y="630" type="line" smooth="yes"/>
      <point x="206" y="630"/>
      <point x="172" y="634"/>
      <point x="155" y="639" type="curve" name="hr03"/>
      <point x="155" y="621" smooth="yes"/>
      <point x="149" y="565" smooth="yes"/>
      <point x="137" y="510" type="curve" smooth="yes"/>
      <point x="127" y="463" type="line"/>
      <point x="149" y="463" type="line"/>
      <point x="188" y="580" type="line" smooth="yes"/>
      <point x="194" y="598" smooth="yes"/>
      <point x="203" y="602" smooth="yes"/>
      <point x="219" y="602" type="curve" smooth="yes" name="hr04"/>
      <point x="470" y="602" type="line"/>
      <point x="5" y="28" type="line"/>
    </contour>
  </outline>
</glyph>
<glyph name="bracketleft" format="1">
  <advance width="250"/>
  <unicode hex="005B"/>
  <outline>
    <contour>
      <point x="213" y="598" type="line"/>
      <point x="214" y="606" smooth="yes"/>
      <point x="222" y="612" smooth="yes"/>
      <point x="229" y="612" type="curve" smooth="yes"/>
      <point x="302" y="612" type="line"/>
      <point x="305" y="630" type="line"/>
      <point x="230" y="630" type="line" smooth="yes"/>
      <point x="196" y="630"/>
      <point x="163" y="633"/>
      <point x="152" y="636" type="curve" name="hr01"/>
      <point x="-8" y="-113" type="line"/>
      <point x="5" y="-110" smooth="yes"/>
      <point x="40" y="-107" smooth="yes"/>
      <point x="74" y="-107" type="curve" smooth="yes"/>
      <point x="149" y="-107" type="line"/>
      <point x="153" y="-89" type="line"/>
      <point x="80" y="-89" type="line" smooth="yes"/>
      <point x="74" y="-89" smooth="yes"/>
      <point x="69" y="-85" smooth="yes"/>
      <point x="69" y="-79" type="curve" smooth="yes"/>
      <point x="69" y="-78"/>
      <point x="70" y="-76"/>
      <point x="70" y="-75" type="curve"/>
    </contour>
  </outline>
</glyph>
<glyph name="bracketright" format="1">
  <advance width="250"/>
  <unicode hex="005D"/>
  <outline>
    <contour>
      <point x="52" y="-75" type="line" smooth="yes"/>
      <point x="50" y="-83" smooth="yes"/>
      <point x="43" y="-89" smooth="yes"/>
      <point x="36" y="-89" type="curve" smooth="yes"/>
      <point x="-38" y="-89" type="line"/>
      <point x="-42" y="-107" type="line"/>
      <point x="34" y="-107" type="line" smooth="yes"/>
      <point x="68" y="-107"/>
      <point x="101" y="-110"/>
      <point x="111" y="-113" type="curve"/>
      <point x="271" y="636" type="line"/>
      <point x="259" y="633" smooth="yes"/>
      <point x="224" y="630" smooth="yes"/>
      <point x="190" y="630" type="curve" smooth="yes" name="hr01"/>
      <point x="114" y="630" type="line"/>
      <point x="111" y="612" type="line"/>
      <point x="185" y="612" type="line" smooth="yes"/>
      <point x="191" y="612" smooth="yes"/>
      <point x="195" y="607" smooth="yes"/>
      <point x="195" y="600" type="curve" smooth="yes"/>
      <point x="195" y="600"/>
      <point x="195" y="599"/>
      <point x="195" y="598" type="curve"/>
    </contour>
  </outline>
</glyph>
<glyph name="asciicircum" format="1">
  <advance width="505"/>
  <unicode hex="005E"/>
  <outline>
    <contour>
      <point x="384" y="644" type="line" name="hr00"/>
      <point x="334" y="644" type="line"/>
      <point x="96" y="270" type="line"/>
      <point x="149" y="270" type="line"/>
      <point x="347" y="584" type="line"/>
      <point x="412" y="270" type="line"/>
      <point x="464" y="270" type="line"/>
    </contour>
  </outline>
</glyph>
<glyph name="underscore" format="1">
  <advance width="406"/>
  <unicode hex="005F"/>
  <outline>
    <contour>
      <point x="34" y="-51" type="line" name="hr00"/>
      <point x="363" y="-51" type="line"/>
      <point x="371" y="-12" type="line"/>
      <point x="42" y="-12" type="line"/>
    </contour>
  </outline>
</glyph>
<glyph name="grave" format="1">
  <advance width="232"/>
  <unicode hex="0060"/>
  <outline>
    <contour>
      <point x="189" y="489" type="line" name="hr00"/>
      <point x="202" y="505" type="line"/>
      <point x="91" y="625" type="line" smooth="yes"/>
      <point x="79" y="638" smooth="yes"/>
      <point x="68" y="639" smooth="yes"/>
      <point x="60" y="639" type="curve" smooth="yes"/>
      <point x="43" y="639" smooth="yes"/>
      <point x="31" y="625" smooth="yes"/>
      <point x="31" y="606" type="curve" smooth="yes"/>
      <point x="31" y="592" smooth="yes"/>
      <point x="38" y="577" smooth="yes"/>
      <point x="58" y="566" type="curve" smooth="yes"/>
    </contour>
  </outline>
</glyph>
<glyph name="a" format="1">
  <advance width="500"/>
  <unicode hex="0061"/>
  <outline>
    <contour>
      <point x="348" y="49" type="curve" smooth="yes" name="hr00"/>
      <point x="348" y="94"/>
      <point x="398" y="287"/>
      <point x="445" y="425" type="curve"/>
      <point x="431" y="435" type="line"/>
      <point x="400" y="381" type="line"/>
      <point x="373" y="421" smooth="yes"/>
      <point x="331" y="444" smooth="yes"/>
      <point x="283" y="444" type="curve" smooth="yes"/>
      <point x="123" y="444" smooth="yes"/>
      <point x="40" y="272" smooth="yes"/>
      <point x="40" y="142" type="curve" smooth="yes"/>
      <point x="40" y="45" smooth="yes"/>
      <point x="89" y="-12" smooth="yes"/>
      <point x="150" y="-12" type="curve" smooth="yes"/>
      <point x="189" y="-12"/>
      <point x="241" y="6"/>
      <point x="294" y="111" type="curve"/>
      <point x="299" y="111" type="line"/>
      <point x="296" y="91" smooth="yes"/>
      <point x="294" y="74" smooth="yes"/>
      <point x="294" y="63" type="curve" smooth="yes"/>
      <point x="294" y="11" smooth="yes"/>
      <point x="314" y="-12" smooth="yes"/>
      <point x="356" y="-12" type="curve" smooth="yes"/>
      <point x="396" y="-12"/>
      <point x="437" y="22"/>
      <point x="468" y="110" type="curve"/>
      <point x="452" y="114" type="line"/>
      <point x="430" y="48" smooth="yes"/>
      <point x="397" y="16" smooth="yes"/>
      <point x="373" y="16" type="curve" smooth="yes"/>
      <point x="356" y="16" smooth="yes"/>
      <point x="348" y="30" smooth="yes"/>
    </contour>
    <contour>
      <point x="174" y="18" type="curve" smooth="yes"/>
      <point x="135" y="18" smooth="yes"/>
      <point x="106" y="53" smooth="yes"/>
      <point x="106" y="130" type="curve" smooth="yes"/>
      <point x="106" y="227" smooth="yes"/>
      <point x="158" y="420" smooth="yes"/>
      <point x="281" y="420" type="curve" smooth="yes"/>
      <point x="313" y="420"/>
      <point x="339" y="410"/>
      <point x="364" y="386" type="curve"/>
      <point x="354" y="350" smooth="yes"/>
      <point x="345" y="309" smooth="yes"/>
      <point x="334" y="269" type="curve" smooth="yes"/>
      <point x="290" y="102" smooth="yes"/>
      <point x="227" y="18" smooth="yes"/>
    </contour>
  </outline>
</glyph>
<glyph name="b" format="1">
  <advance width="467"/>
  <unicode hex="0062"/>
  <outline>
    <contour>
      <point x="129" y="172" type="line" name="hr00"/>
      <point x="172" y="338"/>
      <point x="206" y="455"/>
      <point x="272" y="647" type="curve"/>
      <point x="258" y="657" type="line"/>
      <point x="214" y="645"/>
      <point x="177" y="638"/>
      <point x="129" y="632" type="curve"/>
      <point x="130" y="615" type="line"/>
      <point x="194" y="620" type="line"/>
      <point x="37" y="-6" type="line"/>
      <point x="54" y="-12" type="line"/>
      <point x="84" y="63" type="line"/>
      <point x="114" y="31" type="line"/>
      <point x="183" y="314" smooth="yes"/>
      <point x="267" y="406" smooth="yes"/>
      <point x="315" y="406" type="curve" smooth="yes"/>
      <point x="349" y="406" smooth="yes"/>
      <point x="377" y="369" smooth="yes"/>
      <point x="377" y="298" type="curve" smooth="yes"/>
      <point x="377" y="197" smooth="yes"/>
      <point x="323" y="10" smooth="yes"/>
      <point x="201" y="10" type="curve" smooth="yes"/>
      <point x="159" y="10"/>
      <point x="115" y="28"/>
      <point x="78" y="86" type="curve"/>
      <point x="69" y="59" type="line"/>
      <point x="95" y="17" smooth="yes"/>
      <point x="145" y="-12" smooth="yes"/>
      <point x="204" y="-12" type="curve" smooth="yes"/>
      <point x="364" y="-12" smooth="yes"/>
      <point x="447" y="160" smooth="yes"/>
      <point x="447" y="290" type="curve" smooth="yes"/>
      <point x="447" y="387" smooth="yes"/>
      <point x="398" y="444" smooth="yes"/>
      <point x="337" y="444" type="curve" smooth="yes"/>
      <point x="287" y="444" smooth="yes"/>
      <point x="223" y="407" smooth="yes"/>
      <point x="153" y="216" type="curve" smooth="yes"/>
      <point x="137" y="172" type="line"/>
    </contour>
  </outline>
</glyph>
<glyph name="c" format="1">
  <advance width="397"/>
  <unicode hex="0063"/>
  <outline>
    <contour>
      <point x="276" y="420" type="curve" smooth="yes" name="hr00"/>
      <point x="308" y="420" smooth="yes"/>
      <point x="320" y="398" smooth="yes"/>
      <point x="320" y="368" type="curve" smooth="yes"/>
      <point x="320" y="343"/>
      <point x="309" y="309"/>
      <point x="291" y="282" type="curve"/>
      <point x="299" y="272" smooth="yes"/>
      <point x="315" y="266" smooth="yes"/>
      <point x="332" y="266" type="curve" smooth="yes"/>
      <point x="369" y="266" smooth="yes"/>
      <point x="382" y="321" smooth="yes"/>
      <point x="382" y="350" type="curve" smooth="yes"/>
      <point x="382" y="404" smooth="yes"/>
      <point x="351" y="444" smooth="yes"/>
      <point x="281" y="444" type="curve" smooth="yes"/>
      <point x="127" y="444" smooth="yes"/>
      <point x="40" y="275" smooth="yes"/>
      <point x="40" y="147" type="curve" smooth="yes"/>
      <point x="40" y="45" smooth="yes"/>
      <point x="98" y="-12" smooth="yes"/>
      <point x="182" y="-12" type="curve" smooth="yes"/>
      <point x="246" y="-12"/>
      <point x="314" y="31"/>
      <point x="347" y="116" type="curve"/>
      <point x="331" y="120" type="line"/>
      <point x="301" y="50" smooth="yes"/>
      <point x="249" y="12" smooth="yes"/>
      <point x="186" y="12" type="curve" smooth="yes"/>
      <point x="136" y="12" smooth="yes"/>
      <point x="106" y="55" smooth="yes"/>
      <point x="106" y="131" type="curve" smooth="yes"/>
      <point x="106" y="227" smooth="yes"/>
      <point x="159" y="420" smooth="yes"/>
    </contour>
  </outline>
</glyph>
<glyph name="d" format="1">
  <advance width="500"/>
  <unicode hex="0064"/>
  <outline>
    <contour>
      <point x="348" y="49" type="curve" name="hr00"/>
      <point x="348" y="128"/>
      <point x="456" y="509"/>
      <point x="503" y="647" type="curve"/>
      <point x="489" y="657" type="line"/>
      <point x="445" y="645"/>
      <point x="408" y="638"/>
      <point x="360" y="632" type="curve"/>
      <point x="361" y="615" type="line"/>
      <point x="425" y="620" type="line"/>
      <point x="393" y="504" smooth="yes"/>
      <point x="294" y="135" smooth="yes"/>
      <point x="294" y="63" type="curve" smooth="yes"/>
      <point x="294" y="11" smooth="yes"/>
      <point x="314" y="-12" smooth="yes"/>
      <point x="356" y="-12" type="curve" smooth="yes"/>
      <point x="396" y="-12"/>
      <point x="437" y="22"/>
      <point x="468" y="110" type="curve"/>
      <point x="452" y="114" type="line"/>
      <point x="430" y="48" smooth="yes"/>
      <point x="397" y="16" smooth="yes"/>
      <point x="373" y="16" type="curve" smooth="yes"/>
      <point x="356" y="16" smooth="yes"/>
      <point x="348" y="30" smooth="yes"/>
    </contour>
    <contour>
      <point x="304" y="111" type="line"/>
      <point x="342" y="298" type="line"/>
      <point x="294" y="113" smooth="yes"/>
      <point x="230" y="18" smooth="yes"/>
      <point x="174" y="18" type="curve" smooth="yes"/>
      <point x="135" y="18" smooth="yes"/>
      <point x="106" y="53" smooth="yes"/>
      <point x="106" y="130" type="curve" smooth="yes"/>
      <point x="106" y="227" smooth="yes"/>
      <point x="158" y="420" smooth="yes"/>
      <point x="281" y="420" type="curve" smooth="yes"/>
      <point x="328" y="420"/>
      <point x="364" y="399"/>
      <point x="398" y="342" type="curve"/>
      <point x="412" y="360" type="line"/>
      <point x="387" y="413" smooth="yes"/>
      <point x="339" y="444" smooth="yes"/>
      <point x="283" y="444" type="curve" smooth="yes"/>
      <point x="123" y="444" smooth="yes"/>
      <point x="40" y="272" smooth="yes"/>
      <point x="40" y="142" type="curve" smooth="yes"/>
      <point x="40" y="45" smooth="yes"/>
      <point x="89" y="-12" smooth="yes"/>
      <point x="150" y="-12" type="curve" smooth="yes"/>
      <point x="189" y="-12"/>
      <point x="241" y="6"/>
      <point x="294" y="111" type="curve"/>
    </contour>
  </outline>
</glyph>
<glyph name="e" format="1">
  <advance width="397"/>
  <unicode hex="0065"/>
  <outline>
    <contour>
      <point x="387" y="350" type="curve" smooth="yes" name="hr00"/>
      <point x="387" y="404" smooth="yes"/>
      <point x="354" y="444" smooth="yes"/>
      <point x="281" y="444" type="curve" smooth="yes"/>
      <point x="127" y="444" smooth="yes"/>
      <point x="40" y="275" smooth="yes"/>
      <point x="40" y="147" type="curve" smooth="yes"/>
      <point x="40" y="45" smooth="yes"/>
      <point x="98" y="-12" smooth="yes"/>
      <point x="182" y="-12" type="curve" smooth="yes"/>
      <point x="246" y="-12"/>
      <point x="314" y="31"/>
      <point x="347" y="116" type="curve"/>
      <point x="331" y="120" type="line"/>
      <point x="301" y="50" smooth="yes"/>
      <point x="249" y="12" smooth="yes"/>
      <point x="186" y="12" type="curve" smooth="yes"/>
      <point x="136" y="12" smooth="yes"/>
      <point x="106" y="55" smooth="yes"/>
      <point x="106" y="131" type="curve" smooth="yes"/>
      <point x="106" y="227" smooth="yes"/>
      <point x="159" y="420" smooth="yes"/>
      <point x="276" y="420" type="curve" smooth="yes"/>
      <point x="312" y="420" smooth="yes"/>
      <point x="331" y="392" smooth="yes"/>
      <point x="331" y="357" type="curve" smooth="yes"/>
      <point x="331" y="300" smooth="yes"/>
      <point x="277" y="223" smooth="yes"/>
      <point x="157" y="223" type="curve" smooth="yes"/>
      <point x="139" y="223"/>
      <point x="120" y="225"/>
      <point x="99" y="228" type="curve"/>
      <point x="99" y="209" type="line"/>
      <point x="117" y="205" smooth="yes"/>
      <point x="139" y="203" smooth="yes"/>
      <point x="163" y="203" type="curve" smooth="yes"/>
      <point x="260" y="203" smooth="yes"/>
      <point x="387" y="238" smooth="yes"/>
    </contour>
  </outline>
</glyph>
<glyph name="f" format="1">
  <advance width="290"/>
  <unicode hex="0066"/>
  <outline>
    <contour>
      <point x="52" y="396" type="line" name="hr00"/>
      <point x="304" y="396" type="line"/>
      <point x="309" y="415" type="line"/>
      <point x="57" y="415" type="line"/>
    </contour>
    <contour>
      <point x="222" y="471" type="line" smooth="yes"/>
      <point x="242" y="565" smooth="yes"/>
      <point x="272" y="637" smooth="yes"/>
      <point x="334" y="637" type="curve" smooth="yes"/>
      <point x="366" y="637" smooth="yes"/>
      <point x="378" y="617" smooth="yes"/>
      <point x="378" y="591" type="curve" smooth="yes"/>
      <point x="378" y="569"/>
      <point x="367" y="539"/>
      <point x="349" y="516" type="curve"/>
      <point x="357" y="507" smooth="yes"/>
      <point x="373" y="502" smooth="yes"/>
      <point x="390" y="502" type="curve" smooth="yes"/>
      <point x="427" y="502" smooth="yes"/>
      <point x="440" y="551" smooth="yes"/>
      <point x="440" y="577" type="curve" smooth="yes"/>
      <point x="440" y="624" smooth="yes"/>
      <point x="409" y="660" smooth="yes"/>
      <point x="339" y="660" type="curve" smooth="yes"/>
      <point x="240" y="660" smooth="yes"/>
      <point x="168" y="531" smooth="yes"/>
      <point x="142" y="402" type="curve" smooth="yes"/>
      <point x="84" y="106" type="line" smooth="yes"/>
      <point x="41" y="-109" smooth="yes"/>
      <point x="23" y="-205" smooth="yes"/>
      <point x="-35" y="-205" type="curve" smooth="yes"/>
      <point x="-61" y="-205" smooth="yes"/>
      <point x="-71" y="-186" smooth="yes"/>
      <point x="-71" y="-162" type="curve" smooth="yes"/>
      <point x="-71" y="-137"/>
      <point x="-58" y="-106"/>
      <point x="-41" y="-93" type="curve"/>
      <point x="-48" y="-85" smooth="yes"/>
      <point x="-64" y="-80" smooth="yes"/>
      <point x="-80" y="-80" type="curve" smooth="yes"/>
      <point x="-113" y="-80" smooth="yes"/>
      <point x="-125" y="-124" smooth="yes"/>
      <point x="-125" y="-148" type="curve" smooth="yes"/>
      <point x="-125" y="-191" smooth="yes"/>
      <point x="-98" y="-228" smooth="yes"/>
      <point x="-45" y="-228" type="curve" smooth="yes"/>
      <point x="36" y="-228" smooth="yes"/>
      <point x="90" y="-142" smooth="yes"/>
      <point x="128" y="32" type="curve" smooth="yes"/>
    </contour>
  </outline>
</glyph>
<glyph name="g" format="1">
  <advance width="426"/>
  <unicode hex="0067"/>
  <outline>
    <contour>
      <point x="111" y="58" type="line" smooth="yes"/>
      <point x="83" y="64" smooth="yes"/>
      <point x="71" y="84" smooth="yes"/>
      <point x="71" y="104" type="curve" smooth="yes"/>
      <point x="71" y="126" smooth="yes"/>
      <point x="87" y="148" smooth="yes"/>
      <point x="117" y="148" type="curve" smooth="yes"/>
      <point x="215" y="148" type="line"/>
      <point x="218" y="162" type="line"/>
      <point x="117" y="162" type="line" smooth="yes"/>
      <point x="54" y="162" smooth="yes"/>
      <point x="23" y="119" smooth="yes"/>
      <point x="23" y="78" type="curve" smooth="yes"/>
      <point x="23" y="45" smooth="yes"/>
      <point x="43" y="13" smooth="yes"/>
      <point x="84" y="4" type="curve" smooth="yes"/>
      <point x="256" y="-34" type="line" smooth="yes"/>
      <point x="299" y="-44" smooth="yes"/>
      <point x="317" y="-63" smooth="yes"/>
      <point x="317" y="-92" type="curve" smooth="yes"/>
      <point x="317" y="-162" smooth="yes"/>
      <point x="233" y="-209" smooth="yes"/>
      <point x="157" y="-209" type="curve" smooth="yes"/>
      <point x="89" y="-209" smooth="yes"/>
      <point x="27" y="-177" smooth="yes"/>
      <point x="27" y="-98" type="curve" smooth="yes"/>
      <point x="27" y="-56"/>
      <point x="46" y="-9"/>
      <point x="89" y="12" type="curve"/>
      <point x="89" y="12"/>
      <point x="69" y="18"/>
      <point x="69" y="18" type="curve"/>
      <point x="6" y="-12" smooth="yes"/>
      <point x="-24" y="-59" smooth="yes"/>
      <point x="-24" y="-103" type="curve" smooth="yes"/>
      <point x="-24" y="-168" smooth="yes"/>
      <point x="48" y="-228" smooth="yes"/>
      <point x="156" y="-228" type="curve" smooth="yes"/>
      <point x="270" y="-228" smooth="yes"/>
      <point x="366" y="-141" smooth="yes"/>
      <point x="366" y="-67" type="curve" smooth="yes"/>
      <point x="366" y="-19" smooth="yes"/>
      <point x="340" y="6" smooth="yes"/>
      <point x="270" y="22" type="curve" smooth="yes"/>
    </contour>
    <contour>
      <point x="279" y="430" type="line"/>
      <point x="357" y="430" smooth="yes"/>
      <point x="396" y="481" smooth="yes"/>
      <point x="396" y="523" type="curve" smooth="yes"/>
      <point x="396" y="548" smooth="yes"/>
      <point x="381" y="569" smooth="yes"/>
      <point x="353" y="569" type="curve" smooth="yes"/>
      <point x="335" y="569"/>
      <point x="322" y="556"/>
      <point x="312" y="535" type="curve"/>
      <point x="334" y="521" smooth="yes"/>
      <point x="344" y="505" smooth="yes"/>
      <point x="344" y="490" type="curve" smooth="yes"/>
      <point x="344" y="465"/>
      <point x="316" y="444"/>
      <point x="278" y="444" type="curve"/>
    </contour>
    <contour>
      <point x="96" y="257" type="curve" smooth="yes"/>
      <point x="96" y="187" smooth="yes"/>
      <point x="143" y="148" smooth="yes"/>
      <point x="215" y="148" type="curve" smooth="yes"/>
      <point x="305" y="148" smooth="yes"/>
      <point x="395" y="218" smooth="yes"/>
      <point x="395" y="335" type="curve" smooth="yes" name="hr01"/>
      <point x="395" y="405" smooth="yes"/>
      <point x="349" y="444" smooth="yes"/>
      <point x="278" y="444" type="curve" smooth="yes"/>
      <point x="173" y="444" smooth="yes"/>
      <point x="96" y="353" smooth="yes"/>
    </contour>
    <contour>
      <point x="277" y="425" type="curve" smooth="yes"/>
      <point x="314" y="425" smooth="yes"/>
      <point x="340" y="395" smooth="yes"/>
      <point x="340" y="343" type="curve" smooth="yes"/>
      <point x="340" y="234" smooth="yes"/>
      <point x="269" y="167" smooth="yes"/>
      <point x="216" y="167" type="curve" smooth="yes"/>
      <point x="178" y="167" smooth="yes"/>
      <point x="152" y="196" smooth="yes"/>
      <point x="152" y="248" type="curve" smooth="yes"/>
      <point x="152" y="310" smooth="yes"/>
      <point x="196" y="425" smooth="yes"/>
    </contour>
  </outline>
</glyph>
<glyph name="h" format="1">
  <advance width="495"/>
  <unicode hex="0068"/>
  <outline>
    <contour>
      <point x="107" y="0" type="line" name="hr00"/>
      <point x="181" y="327" smooth="yes"/>
      <point x="275" y="411" smooth="yes"/>
      <point x="334" y="411" type="curve" smooth="yes"/>
      <point x="364" y="411" smooth="yes"/>
      <point x="380" y="389" smooth="yes"/>
      <point x="380" y="357" type="curve" smooth="yes"/>
      <point x="380" y="277" smooth="yes"/>
      <point x="289" y="118" smooth="yes"/>
      <point x="289" y="56" type="curve" smooth="yes"/>
      <point x="289" y="10" smooth="yes"/>
      <point x="312" y="-12" smooth="yes"/>
      <point x="351" y="-12" type="curve" smooth="yes"/>
      <point x="391" y="-12"/>
      <point x="432" y="22"/>
      <point x="463" y="110" type="curve"/>
      <point x="447" y="114" type="line"/>
      <point x="425" y="48" smooth="yes"/>
      <point x="392" y="16" smooth="yes"/>
      <point x="368" y="16" type="curve" smooth="yes"/>
      <point x="351" y="16" smooth="yes"/>
      <point x="343" y="30" smooth="yes"/>
      <point x="343" y="49" type="curve" smooth="yes"/>
      <point x="343" y="116" smooth="yes"/>
      <point x="440" y="270" smooth="yes"/>
      <point x="440" y="354" type="curve" smooth="yes"/>
      <point x="440" y="411" smooth="yes"/>
      <point x="410" y="444" smooth="yes"/>
      <point x="362" y="444" type="curve" smooth="yes"/>
      <point x="315" y="444" smooth="yes"/>
      <point x="231" y="431" smooth="yes"/>
      <point x="153" y="216" type="curve" smooth="yes"/>
      <point x="137" y="172" type="line"/>
      <point x="129" y="172" type="line"/>
      <point x="172" y="338"/>
      <point x="206" y="455"/>
      <point x="272" y="647" type="curve"/>
      <point x="258" y="657" type="line"/>
      <point x="214" y="645"/>
      <point x="177" y="638"/>
      <point x="129" y="632" type="curve"/>
      <point x="130" y="615" type="line"/>
      <point x="194" y="620" type="line"/>
      <point x="37" y="-6" type="line"/>
    </contour>
  </outline>
</glyph>
<glyph name="i" format="1">
  <advance width="276"/>
  <unicode hex="0069"/>
  <outline>
    <contour>
      <point x="170" y="576" type="curve" smooth="yes" name="hr00"/>
      <point x="170" y="551" smooth="yes"/>
      <point x="190" y="531" smooth="yes"/>
      <point x="215" y="531" type="curve" smooth="yes"/>
      <point x="240" y="531" smooth="yes"/>
      <point x="260" y="551" smooth="yes"/>
      <point x="260" y="576" type="curve" smooth="yes"/>
      <point x="260" y="601" smooth="yes"/>
      <point x="240" y="621" smooth="yes"/>
      <point x="215" y="621" type="curve" smooth="yes"/>
      <point x="190" y="621" smooth="yes"/>
      <point x="170" y="601" smooth="yes"/>
    </contour>
    <contour>
      <point x="70" y="63" type="curve" smooth="yes"/>
      <point x="70" y="11" smooth="yes"/>
      <point x="90" y="-12" smooth="yes"/>
      <point x="132" y="-12" type="curve" smooth="yes"/>
      <point x="172" y="-12"/>
      <point x="213" y="22"/>
      <point x="244" y="110" type="curve"/>
      <point x="228" y="114" type="line"/>
      <point x="206" y="48" smooth="yes"/>
      <point x="173" y="16" smooth="yes"/>
      <point x="149" y="16" type="curve" smooth="yes"/>
      <point x="132" y="16" smooth="yes"/>
      <point x="124" y="30" smooth="yes"/>
      <point x="124" y="49" type="curve" smooth="yes"/>
      <point x="124" y="94"/>
      <point x="174" y="287"/>
      <point x="221" y="425" type="curve"/>
      <point x="207" y="435" type="line"/>
      <point x="163" y="423"/>
      <point x="126" y="416"/>
      <point x="78" y="410" type="curve"/>
      <point x="79" y="393" type="line"/>
      <point x="143" y="398" type="line"/>
      <point x="113" y="282" smooth="yes"/>
      <point x="70" y="115" smooth="yes"/>
    </contour>
  </outline>
</glyph>
<glyph name="j" format="1">
  <advance width="250"/>
  <unicode hex="006A"/>
  <outline>
    <contour>
      <point x="170" y="576" type="curve" smooth="yes" name="hr00"/>
      <point x="170" y="551" smooth="yes"/>
      <point x="190" y="531" smooth="yes"/>
      <point x="215" y="531" type="curve" smooth="yes"/>
      <point x="240" y="531" smooth="yes"/>
      <point x="260" y="551" smooth="yes"/>
      <point x="260" y="576" type="curve" smooth="yes"/>
      <point x="260" y="601" smooth="yes"/>
      <point x="240" y="621" smooth="yes"/>
      <point x="215" y="621" type="curve" smooth="yes"/>
      <point x="190" y="621" smooth="yes"/>
      <point x="170" y="601" smooth="yes"/>
    </contour>
    <contour>
      <point x="143" y="398" type="line"/>
      <point x="84" y="106" type="line" smooth="yes"/>
      <point x="41" y="-109" smooth="yes"/>
      <point x="23" y="-205" smooth="yes"/>
      <point x="-35" y="-205" type="curve" smooth="yes"/>
      <point x="-61" y="-205" smooth="yes"/>
      <point x="-71" y="-186" smooth="yes"/>
      <point x="-71" y="-162" type="curve" smooth="yes"/>
      <point x="-71" y="-137"/>
      <point x="-58" y="-106"/>
      <point x="-41" y="-93" type="curve"/>
      <point x="-48" y="-85" smooth="yes"/>
      <point x="-64" y="-80" smooth="yes"/>
      <point x="-80" y="-80" type="curve" smooth="yes"/>
      <point x="-113" y="-80" smooth="yes"/>
      <point x="-125" y="-124" smooth="yes"/>
      <point x="-125" y="-148" type="curve" smooth="yes"/>
      <point x="-125" y="-191" smooth="yes"/>
      <point x="-98" y="-228" smooth="yes"/>
      <point x="-45" y="-228" type="curve" smooth="yes"/>
      <point x="36" y="-228" smooth="yes"/>
      <point x="84" y="-141" smooth="yes"/>
      <point x="126" y="32" type="curve" smooth="yes"/>
      <point x="221" y="425" type="line"/>
      <point x="207" y="435" type="line"/>
      <point x="163" y="423"/>
      <point x="126" y="416"/>
      <point x="78" y="410" type="curve"/>
      <point x="79" y="393" type="line"/>
    </contour>
  </outline>
</glyph>
<glyph name="k" format="1">
  <advance width="468"/>
  <unicode hex="006B"/>
  <outline>
    <contour>
      <point x="162" y="220" type="line" name="hr00"/>
      <point x="177" y="218" smooth="yes"/>
      <point x="194" y="217" smooth="yes"/>
      <point x="212" y="217" type="curve" smooth="yes"/>
      <point x="365" y="217" smooth="yes"/>
      <point x="439" y="308" smooth="yes"/>
      <point x="439" y="375" type="curve" smooth="yes"/>
      <point x="439" y="413" smooth="yes"/>
      <point x="414" y="444" smooth="yes"/>
      <point x="365" y="444" type="curve" smooth="yes"/>
      <point x="301" y="444" smooth="yes"/>
      <point x="228" y="408" smooth="yes"/>
      <point x="154" y="216" type="curve" smooth="yes"/>
      <point x="137" y="172" type="line"/>
      <point x="129" y="172" type="line"/>
      <point x="172" y="338"/>
      <point x="206" y="455"/>
      <point x="272" y="647" type="curve"/>
      <point x="258" y="657" type="line"/>
      <point x="214" y="645"/>
      <point x="177" y="638"/>
      <point x="129" y="632" type="curve"/>
      <point x="130" y="615" type="line"/>
      <point x="194" y="620" type="line"/>
      <point x="37" y="-6" type="line"/>
      <point x="107" y="0" type="line"/>
      <point x="182" y="328" smooth="yes"/>
      <point x="278" y="415" smooth="yes"/>
      <point x="340" y="415" type="curve" smooth="yes"/>
      <point x="371" y="415" smooth="yes"/>
      <point x="386" y="394" smooth="yes"/>
      <point x="386" y="367" type="curve" smooth="yes"/>
      <point x="386" y="313" smooth="yes"/>
      <point x="326" y="233" smooth="yes"/>
      <point x="206" y="233" type="curve" smooth="yes"/>
      <point x="166" y="233" type="line"/>
    </contour>
    <contour>
      <point x="162" y="217" type="line"/>
      <point x="167" y="218" smooth="yes"/>
      <point x="173" y="218" smooth="yes"/>
      <point x="178" y="218" type="curve" smooth="yes"/>
      <point x="249" y="218" smooth="yes"/>
      <point x="258" y="145" smooth="yes"/>
      <point x="258" y="58" type="curve" smooth="yes"/>
      <point x="258" y="12" smooth="yes"/>
      <point x="284" y="-12" smooth="yes"/>
      <point x="326" y="-12" type="curve" smooth="yes"/>
      <point x="366" y="-12"/>
      <point x="407" y="22"/>
      <point x="438" y="110" type="curve"/>
      <point x="422" y="114" type="line"/>
      <point x="400" y="48" smooth="yes"/>
      <point x="367" y="16" smooth="yes"/>
      <point x="343" y="16" type="curve" smooth="yes"/>
      <point x="326" y="16" smooth="yes"/>
      <point x="318" y="30" smooth="yes"/>
      <point x="318" y="49" type="curve" smooth="yes"/>
      <point x="318" y="194"/>
      <point x="294" y="228"/>
      <point x="184" y="228" type="curve"/>
    </contour>
    <contour>
      <point x="245" y="205" type="line"/>
      <point x="259" y="205" type="line"/>
      <point x="263" y="227" type="line"/>
      <point x="245" y="227" type="line"/>
    </contour>
  </outline>
</glyph>
<glyph name="l" format="1">
  <advance width="266"/>
  <unicode hex="006C"/>
  <outline>
    <contour>
      <point x="114" y="49" type="curve" smooth="yes" name="hr00"/>
      <point x="114" y="128"/>
      <point x="222" y="509"/>
      <point x="269" y="647" type="curve"/>
      <point x="255" y="657" type="line"/>
      <point x="211" y="645"/>
      <point x="174" y="638"/>
      <point x="126" y="632" type="curve"/>
      <point x="127" y="615" type="line"/>
      <point x="191" y="620" type="line"/>
      <point x="159" y="504" smooth="yes"/>
      <point x="60" y="135" smooth="yes"/>
      <point x="60" y="63" type="curve" smooth="yes"/>
      <point x="60" y="11" smooth="yes"/>
      <point x="80" y="-12" smooth="yes"/>
      <point x="122" y="-12" type="curve" smooth="yes"/>
      <point x="162" y="-12"/>
      <point x="203" y="22"/>
      <point x="234" y="110" type="curve"/>
      <point x="218" y="114" type="line"/>
      <point x="196" y="48" smooth="yes"/>
      <point x="163" y="16" smooth="yes"/>
      <point x="139" y="16" type="curve" smooth="yes"/>
      <point x="122" y="16" smooth="yes"/>
      <point x="114" y="30" smooth="yes"/>
    </contour>
  </outline>
</glyph>
<glyph name="m" format="1">
  <advance width="736"/>
  <unicode hex="006D"/>
  <outline>
    <contour>
      <point x="359" y="0" type="line" name="hr00"/>
      <point x="433" y="327" smooth="yes"/>
      <point x="527" y="411" smooth="yes"/>
      <point x="586" y="411" type="curve" smooth="yes"/>
      <point x="609" y="411" smooth="yes"/>
      <point x="621" y="389" smooth="yes"/>
      <point x="621" y="357" type="curve" smooth="yes"/>
      <point x="621" y="277" smooth="yes"/>
      <point x="530" y="118" smooth="yes"/>
      <point x="530" y="56" type="curve" smooth="yes"/>
      <point x="530" y="10" smooth="yes"/>
      <point x="553" y="-12" smooth="yes"/>
      <point x="592" y="-12" type="curve" smooth="yes"/>
      <point x="632" y="-12"/>
      <point x="673" y="22"/>
      <point x="704" y="110" type="curve"/>
      <point x="688" y="114" type="line"/>
      <point x="666" y="48" smooth="yes"/>
      <point x="633" y="16" smooth="yes"/>
      <point x="609" y="16" type="curve" smooth="yes"/>
      <point x="592" y="16" smooth="yes"/>
      <point x="584" y="30" smooth="yes"/>
      <point x="584" y="49" type="curve" smooth="yes"/>
      <point x="584" y="116" smooth="yes"/>
      <point x="681" y="270" smooth="yes"/>
      <point x="681" y="354" type="curve" smooth="yes"/>
      <point x="681" y="411" smooth="yes"/>
      <point x="655" y="444" smooth="yes"/>
      <point x="614" y="444" type="curve" smooth="yes"/>
      <point x="567" y="444" smooth="yes"/>
      <point x="483" y="431" smooth="yes"/>
      <point x="405" y="216" type="curve" smooth="yes"/>
      <point x="389" y="172" type="line"/>
      <point x="380" y="172" type="line"/>
      <point x="401" y="235" type="line" smooth="yes"/>
      <point x="412" y="267" smooth="yes"/>
      <point x="430" y="320" smooth="yes"/>
      <point x="430" y="365" type="curve" smooth="yes"/>
      <point x="430" y="409" smooth="yes"/>
      <point x="413" y="444" smooth="yes"/>
      <point x="360" y="444" type="curve" smooth="yes"/>
      <point x="313" y="444" smooth="yes"/>
      <point x="231" y="408" smooth="yes"/>
      <point x="161" y="216" type="curve" smooth="yes"/>
      <point x="145" y="172" type="line"/>
      <point x="137" y="172" type="line"/>
      <point x="161" y="267"/>
      <point x="184" y="340"/>
      <point x="221" y="425" type="curve"/>
      <point x="207" y="435" type="line"/>
      <point x="163" y="423"/>
      <point x="126" y="416"/>
      <point x="78" y="410" type="curve"/>
      <point x="79" y="393" type="line"/>
      <point x="143" y="398" type="line"/>
      <point x="45" y="-6" type="line"/>
      <point x="115" y="0" type="line"/>
      <point x="185" y="300" smooth="yes"/>
      <point x="273" y="411" smooth="yes"/>
      <point x="332" y="411" type="curve" smooth="yes"/>
      <point x="364" y="411" smooth="yes"/>
      <point x="378" y="386" smooth="yes"/>
      <point x="378" y="357" type="curve" smooth="yes"/>
      <point x="378" y="320" smooth="yes"/>
      <point x="349" y="226" smooth="yes"/>
      <point x="324" y="131" type="curve" smooth="yes"/>
      <point x="288" y="-6" type="line"/>
    </contour>
  </outline>
</glyph>
<glyph name="n" format="1">
  <advance width="503"/>
  <unicode hex="006E"/>
  <outline>
    <contour>
      <point x="351" y="49" type="curve" smooth="yes" name="hr00"/>
      <point x="351" y="116" smooth="yes"/>
      <point x="448" y="270" smooth="yes"/>
      <point x="448" y="354" type="curve" smooth="yes"/>
      <point x="448" y="411" smooth="yes"/>
      <point x="418" y="444" smooth="yes"/>
      <point x="370" y="444" type="curve" smooth="yes"/>
      <point x="323" y="444" smooth="yes"/>
      <point x="239" y="431" smooth="yes"/>
      <point x="161" y="216" type="curve" smooth="yes"/>
      <point x="145" y="172" type="line"/>
      <point x="137" y="172" type="line"/>
      <point x="161" y="267"/>
      <point x="184" y="340"/>
      <point x="221" y="425" type="curve"/>
      <point x="207" y="435" type="line"/>
      <point x="163" y="423"/>
      <point x="126" y="416"/>
      <point x="78" y="410" type="curve"/>
      <point x="79" y="393" type="line"/>
      <point x="143" y="398" type="line"/>
      <point x="45" y="-6" type="line"/>
      <point x="115" y="0" type="line"/>
      <point x="189" y="327" smooth="yes"/>
      <point x="283" y="411" smooth="yes"/>
      <point x="342" y="411" type="curve" smooth="yes"/>
      <point x="372" y="411" smooth="yes"/>
      <point x="388" y="389" smooth="yes"/>
      <point x="388" y="357" type="curve" smooth="yes"/>
      <point x="388" y="277" smooth="yes"/>
      <point x="297" y="118" smooth="yes"/>
      <point x="297" y="56" type="curve" smooth="yes"/>
      <point x="297" y="10" smooth="yes"/>
      <point x="320" y="-12" smooth="yes"/>
      <point x="359" y="-12" type="curve" smooth="yes"/>
      <point x="399" y="-12"/>
      <point x="440" y="22"/>
      <point x="471" y="110" type="curve"/>
      <point x="455" y="114" type="line"/>
      <point x="433" y="48" smooth="yes"/>
      <point x="400" y="16" smooth="yes"/>
      <point x="376" y="16" type="curve" smooth="yes"/>
      <point x="359" y="16" smooth="yes"/>
      <point x="351" y="30" smooth="yes"/>
    </contour>
  </outline>
</glyph>
<glyph name="o" format="1">
  <advance width="460"/>
  <unicode hex="006F"/>
  <outline>
    <contour>
      <point x="40" y="145" type="curve" smooth="yes" name="hr00"/>
      <point x="40" y="44" smooth="yes"/>
      <point x="95" y="-12" smooth="yes"/>
      <point x="182" y="-12" type="curve" smooth="yes"/>
      <point x="338" y="-12" smooth="yes"/>
      <point x="420" y="159" smooth="yes"/>
      <point x="420" y="288" type="curve" smooth="yes"/>
      <point x="420" y="388" smooth="yes"/>
      <point x="365" y="444" smooth="yes"/>
      <point x="279" y="444" type="curve" smooth="yes"/>
      <point x="123" y="444" smooth="yes"/>
      <point x="40" y="274" smooth="yes"/>
    </contour>
    <contour>
      <point x="275" y="422" type="curve" smooth="yes"/>
      <point x="325" y="422" smooth="yes"/>
      <point x="357" y="378" smooth="yes"/>
      <point x="357" y="300" type="curve" smooth="yes"/>
      <point x="357" y="207" smooth="yes"/>
      <point x="303" y="10" smooth="yes"/>
      <point x="186" y="10" type="curve" smooth="yes"/>
      <point x="136" y="10" smooth="yes"/>
      <point x="103" y="54" smooth="yes"/>
      <point x="103" y="134" type="curve" smooth="yes"/>
      <point x="103" y="227" smooth="yes"/>
      <point x="158" y="422" smooth="yes"/>
    </contour>
  </outline>
</glyph>
<glyph name="p" format="1">
  <advance width="476"/>
  <unicode hex="0070"/>
  <outline>
    <contour>
      <point x="208" y="435" type="line" name="hr00"/>
      <point x="164" y="423"/>
      <point x="127" y="416"/>
      <point x="79" y="410" type="curve"/>
      <point x="80" y="393" type="line"/>
      <point x="144" y="398" type="line"/>
      <point x="-7" y="-222" type="line"/>
      <point x="63" y="-216" type="line"/>
      <point x="123" y="31" type="line" smooth="yes"/>
      <point x="192" y="314" smooth="yes"/>
      <point x="281" y="406" smooth="yes"/>
      <point x="334" y="406" type="curve" smooth="yes"/>
      <point x="363" y="406" smooth="yes"/>
      <point x="386" y="369" smooth="yes"/>
      <point x="386" y="298" type="curve" smooth="yes"/>
      <point x="386" y="198" smooth="yes"/>
      <point x="341" y="13" smooth="yes"/>
      <point x="213" y="13" type="curve" smooth="yes"/>
      <point x="168" y="13"/>
      <point x="124" y="30"/>
      <point x="87" y="86" type="curve"/>
      <point x="80" y="69" type="line"/>
      <point x="113" y="17" smooth="yes"/>
      <point x="154" y="-8" smooth="yes"/>
      <point x="216" y="-8" type="curve" smooth="yes"/>
      <point x="375" y="-8" smooth="yes"/>
      <point x="456" y="160" smooth="yes"/>
      <point x="456" y="290" type="curve" smooth="yes"/>
      <point x="456" y="387" smooth="yes"/>
      <point x="407" y="444" smooth="yes"/>
      <point x="352" y="444" type="curve" smooth="yes"/>
      <point x="304" y="444" smooth="yes"/>
      <point x="232" y="409" smooth="yes"/>
      <point x="162" y="216" type="curve" smooth="yes"/>
      <point x="146" y="172" type="line"/>
      <point x="138" y="172" type="line"/>
      <point x="162" y="267"/>
      <point x="185" y="340"/>
      <point x="222" y="425" type="curve"/>
    </contour>
  </outline>
</glyph>
<glyph name="q" format="1">
  <advance width="461"/>
  <unicode hex="0071"/>
  <outline>
    <contour>
      <point x="373" y="401" type="line" name="hr00"/>
      <point x="304" y="112" smooth="yes"/>
      <point x="230" y="18" smooth="yes"/>
      <point x="172" y="18" type="curve" smooth="yes"/>
      <point x="136" y="18" smooth="yes"/>
      <point x="106" y="58" smooth="yes"/>
      <point x="106" y="134" type="curve" smooth="yes"/>
      <point x="106" y="234" smooth="yes"/>
      <point x="161" y="419" smooth="yes"/>
      <point x="286" y="419" type="curve" smooth="yes"/>
      <point x="328" y="419"/>
      <point x="372" y="402"/>
      <point x="409" y="346" type="curve"/>
      <point x="418" y="373" type="line"/>
      <point x="392" y="415" smooth="yes"/>
      <point x="342" y="444" smooth="yes"/>
      <point x="283" y="444" type="curve" smooth="yes"/>
      <point x="123" y="444" smooth="yes"/>
      <point x="40" y="272" smooth="yes"/>
      <point x="40" y="142" type="curve" smooth="yes"/>
      <point x="40" y="45" smooth="yes"/>
      <point x="89" y="-12" smooth="yes"/>
      <point x="150" y="-12" type="curve" smooth="yes"/>
      <point x="200" y="-12"/>
      <point x="247" y="20"/>
      <point x="294" y="111" type="curve"/>
      <point x="299" y="111" type="line"/>
      <point x="203" y="-215" type="line"/>
      <point x="217" y="-225" type="line"/>
      <point x="261" y="-213"/>
      <point x="298" y="-206"/>
      <point x="346" y="-200" type="curve"/>
      <point x="345" y="-183" type="line"/>
      <point x="281" y="-188" type="line"/>
      <point x="450" y="438" type="line"/>
      <point x="433" y="444" type="line"/>
      <point x="403" y="369" type="line"/>
    </contour>
  </outline>
</glyph>
<glyph name="r" format="1">
  <advance width="371"/>
  <unicode hex="0072"/>
  <outline>
    <contour>
      <point x="207" y="435" type="line" name="hr00"/>
      <point x="163" y="423"/>
      <point x="126" y="416"/>
      <point x="78" y="410" type="curve"/>
      <point x="79" y="393" type="line"/>
      <point x="143" y="398" type="line"/>
      <point x="45" y="-6" type="line"/>
      <point x="115" y="0" type="line"/>
      <point x="189" y="327" smooth="yes"/>
      <point x="284" y="405" smooth="yes"/>
      <point x="314" y="405" type="curve" smooth="yes"/>
      <point x="332" y="405" smooth="yes"/>
      <point x="338" y="392" smooth="yes"/>
      <point x="338" y="376" type="curve" smooth="yes"/>
      <point x="338" y="348"/>
      <point x="321" y="309"/>
      <point x="310" y="294" type="curve"/>
      <point x="321" y="283" smooth="yes"/>
      <point x="336" y="278" smooth="yes"/>
      <point x="352" y="278" type="curve" smooth="yes"/>
      <point x="384" y="278" smooth="yes"/>
      <point x="401" y="321" smooth="yes"/>
      <point x="401" y="366" type="curve" smooth="yes"/>
      <point x="401" y="410" smooth="yes"/>
      <point x="379" y="444" smooth="yes"/>
      <point x="338" y="444" type="curve" smooth="yes"/>
      <point x="299" y="444" smooth="yes"/>
      <point x="231" y="407" smooth="yes"/>
      <point x="161" y="216" type="curve" smooth="yes"/>
      <point x="145" y="172" type="line"/>
      <point x="137" y="172" type="line"/>
      <point x="161" y="267"/>
      <point x="184" y="340"/>
      <point x="221" y="425" type="curve"/>
    </contour>
  </outline>
</glyph>
<glyph name="s" format="1">
  <advance width="379"/>
  <unicode hex="0073"/>
  <outline>
    <contour>
      <point x="139" y="339" type="curve" smooth="yes"/>
      <point x="139" y="389" smooth="yes"/>
      <point x="180" y="420" smooth="yes"/>
      <point x="235" y="420" type="curve" smooth="yes"/>
      <point x="281" y="420" smooth="yes"/>
      <point x="309" y="398" smooth="yes"/>
      <point x="309" y="356" type="curve" smooth="yes"/>
      <point x="309" y="352"/>
      <point x="308" y="323"/>
      <point x="303" y="296" type="curve"/>
      <point x="320" y="293" type="line"/>
      <point x="329" y="344"/>
      <point x="348" y="405"/>
      <point x="354" y="417" type="curve"/>
      <point x="339" y="423" smooth="yes"/>
      <point x="305" y="444" smooth="yes"/>
      <point x="245" y="444" type="curve" smooth="yes"/>
      <point x="147" y="444" smooth="yes"/>
      <point x="87" y="385" smooth="yes"/>
      <point x="87" y="314" type="curve" smooth="yes"/>
      <point x="87" y="203" smooth="yes"/>
      <point x="256" y="186" smooth="yes"/>
      <point x="256" y="103" type="curve" smooth="yes" name="hr01"/>
      <point x="256" y="46" smooth="yes"/>
      <point x="211" y="9" smooth="yes"/>
      <point x="151" y="9" type="curve" smooth="yes"/>
      <point x="97" y="9" smooth="yes"/>
      <point x="67" y="39" smooth="yes"/>
      <point x="67" y="78" type="curve" smooth="yes"/>
      <point x="67" y="94"/>
      <point x="69" y="107"/>
      <point x="74" y="136" type="curve"/>
      <point x="57" y="139" type="line"/>
      <point x="49" y="94"/>
      <point x="31" y="33"/>
      <point x="25" y="21" type="curve"/>
      <point x="60" y="-1" smooth="yes"/>
      <point x="104" y="-12" smooth="yes"/>
      <point x="148" y="-12" type="curve" smooth="yes"/>
      <point x="234" y="-12" smooth="yes"/>
      <point x="317" y="31" smooth="yes"/>
      <point x="317" y="121" type="curve" smooth="yes"/>
      <point x="317" y="224" smooth="yes"/>
      <point x="139" y="245" smooth="yes"/>
    </contour>
  </outline>
</glyph>
<glyph name="t" format="1">
  <advance width="276"/>
  <unicode hex="0074"/>
  <outline>
    <contour>
      <point x="67" y="396" type="line" name="hr00"/>
      <point x="289" y="396" type="line"/>
      <point x="294" y="415" type="line"/>
      <point x="72" y="415" type="line"/>
    </contour>
    <contour>
      <point x="226" y="538" type="line"/>
      <point x="184" y="444"/>
      <point x="145" y="415"/>
      <point x="72" y="415" type="curve"/>
      <point x="144" y="409" type="line"/>
      <point x="106" y="263" smooth="yes"/>
      <point x="70" y="109" smooth="yes"/>
      <point x="70" y="63" type="curve" smooth="yes"/>
      <point x="70" y="11" smooth="yes"/>
      <point x="90" y="-12" smooth="yes"/>
      <point x="132" y="-12" type="curve" smooth="yes"/>
      <point x="172" y="-12"/>
      <point x="213" y="22"/>
      <point x="244" y="110" type="curve"/>
      <point x="228" y="114" type="line"/>
      <point x="206" y="48" smooth="yes"/>
      <point x="173" y="16" smooth="yes"/>
      <point x="149" y="16" type="curve" smooth="yes"/>
      <point x="132" y="16" smooth="yes"/>
      <point x="124" y="30" smooth="yes"/>
      <point x="124" y="49" type="curve" smooth="yes"/>
      <point x="124" y="128"/>
      <point x="210" y="420"/>
      <point x="240" y="528" type="curve"/>
    </contour>
  </outline>
</glyph>
<glyph name="u" format="1">
  <advance width="517"/>
  <unicode hex="0075"/>
  <outline>
    <contour>
      <point x="311" y="63" type="curve" smooth="yes" name="hr00"/>
      <point x="311" y="11" smooth="yes"/>
      <point x="331" y="-12" smooth="yes"/>
      <point x="373" y="-12" type="curve" smooth="yes"/>
      <point x="413" y="-12"/>
      <point x="454" y="22"/>
      <point x="485" y="110" type="curve"/>
      <point x="469" y="114" type="line"/>
      <point x="447" y="48" smooth="yes"/>
      <point x="414" y="16" smooth="yes"/>
      <point x="390" y="16" type="curve" smooth="yes"/>
      <point x="373" y="16" smooth="yes"/>
      <point x="365" y="30" smooth="yes"/>
      <point x="365" y="49" type="curve" smooth="yes"/>
      <point x="365" y="94"/>
      <point x="415" y="287"/>
      <point x="462" y="425" type="curve"/>
      <point x="448" y="435" type="line"/>
      <point x="404" y="423"/>
      <point x="367" y="416"/>
      <point x="319" y="410" type="curve"/>
      <point x="320" y="393" type="line"/>
      <point x="384" y="398" type="line"/>
      <point x="350" y="267" type="line" smooth="yes"/>
      <point x="311" y="116" smooth="yes"/>
      <point x="248" y="18" smooth="yes"/>
      <point x="186" y="18" type="curve" smooth="yes"/>
      <point x="150" y="18" smooth="yes"/>
      <point x="131" y="38" smooth="yes"/>
      <point x="131" y="89" type="curve" smooth="yes"/>
      <point x="131" y="160"/>
      <point x="168" y="279"/>
      <point x="215" y="425" type="curve"/>
      <point x="201" y="435" type="line"/>
      <point x="157" y="423"/>
      <point x="120" y="416"/>
      <point x="72" y="410" type="curve"/>
      <point x="73" y="393" type="line"/>
      <point x="137" y="398" type="line"/>
      <point x="107" y="278" smooth="yes"/>
      <point x="73" y="165" smooth="yes"/>
      <point x="73" y="88" type="curve" smooth="yes"/>
      <point x="73" y="26" smooth="yes"/>
      <point x="96" y="-12" smooth="yes"/>
      <point x="163" y="-12" type="curve" smooth="yes"/>
      <point x="203" y="-12"/>
      <point x="256" y="6"/>
      <point x="311" y="111" type="curve"/>
      <point x="316" y="111" type="line"/>
      <point x="313" y="91" smooth="yes"/>
      <point x="311" y="74" smooth="yes"/>
    </contour>
  </outline>
</glyph>
<glyph name="v" format="1">
  <advance width="447"/>
  <unicode hex="0076"/>
  <outline>
    <contour>
      <point x="200" y="21" type="curve" smooth="yes" name="hr00"/>
      <point x="167" y="21" smooth="yes"/>
      <point x="149" y="46" smooth="yes"/>
      <point x="149" y="81" type="curve" smooth="yes"/>
      <point x="149" y="162" smooth="yes"/>
      <point x="211" y="313" smooth="yes"/>
      <point x="211" y="374" type="curve" smooth="yes"/>
      <point x="211" y="420" smooth="yes"/>
      <point x="188" y="444" smooth="yes"/>
      <point x="146" y="444" type="curve" smooth="yes"/>
      <point x="106" y="444"/>
      <point x="66" y="410"/>
      <point x="39" y="322" type="curve"/>
      <point x="56" y="318" type="line"/>
      <point x="74" y="384" smooth="yes"/>
      <point x="106" y="416" smooth="yes"/>
      <point x="130" y="416" type="curve" smooth="yes"/>
      <point x="149" y="416" smooth="yes"/>
      <point x="156" y="400" smooth="yes"/>
      <point x="156" y="378" type="curve" smooth="yes"/>
      <point x="156" y="311" smooth="yes"/>
      <point x="89" y="167" smooth="yes"/>
      <point x="89" y="83" type="curve" smooth="yes"/>
      <point x="89" y="23" smooth="yes"/>
      <point x="122" y="-12" smooth="yes"/>
      <point x="171" y="-12" type="curve" smooth="yes"/>
      <point x="333" y="-12" smooth="yes"/>
      <point x="422" y="226" smooth="yes"/>
      <point x="422" y="362" type="curve" smooth="yes"/>
      <point x="422" y="398" smooth="yes"/>
      <point x="413" y="444" smooth="yes"/>
      <point x="385" y="444" type="curve" smooth="yes"/>
      <point x="369" y="444"/>
      <point x="351" y="433"/>
      <point x="339" y="423" type="curve"/>
      <point x="365" y="390" smooth="yes"/>
      <point x="386" y="354" smooth="yes"/>
      <point x="386" y="289" type="curve" smooth="yes"/>
      <point x="386" y="185" smooth="yes"/>
      <point x="289" y="21" smooth="yes"/>
    </contour>
  </outline>
</glyph>
<glyph name="w" format="1">
  <advance width="667"/>
  <unicode hex="0077"/>
  <outline>
    <contour>
      <point x="358" y="198" type="line" name="hr00"/>
      <point x="327" y="110" smooth="yes"/>
      <point x="261" y="21" smooth="yes"/>
      <point x="198" y="21" type="curve" smooth="yes"/>
      <point x="166" y="21" smooth="yes"/>
      <point x="149" y="46" smooth="yes"/>
      <point x="149" y="81" type="curve" smooth="yes"/>
      <point x="149" y="162" smooth="yes"/>
      <point x="211" y="313" smooth="yes"/>
      <point x="211" y="374" type="curve" smooth="yes"/>
      <point x="211" y="420" smooth="yes"/>
      <point x="188" y="444" smooth="yes"/>
      <point x="146" y="444" type="curve" smooth="yes"/>
      <point x="106" y="444"/>
      <point x="66" y="410"/>
      <point x="39" y="322" type="curve"/>
      <point x="56" y="318" type="line"/>
      <point x="74" y="384" smooth="yes"/>
      <point x="106" y="416" smooth="yes"/>
      <point x="130" y="416" type="curve" smooth="yes"/>
      <point x="149" y="416" smooth="yes"/>
      <point x="156" y="400" smooth="yes"/>
      <point x="156" y="378" type="curve" smooth="yes"/>
      <point x="156" y="311" smooth="yes"/>
      <point x="89" y="167" smooth="yes"/>
      <point x="89" y="83" type="curve" smooth="yes"/>
      <point x="89" y="23" smooth="yes"/>
      <point x="122" y="-12" smooth="yes"/>
      <point x="171" y="-12" type="curve" smooth="yes"/>
      <point x="273" y="-12"/>
      <point x="336" y="90"/>
      <point x="373" y="199" type="curve"/>
    </contour>
    <contour>
      <point x="319" y="83" type="curve" smooth="yes"/>
      <point x="319" y="23" smooth="yes"/>
      <point x="353" y="-12" smooth="yes"/>
      <point x="403" y="-12" type="curve" smooth="yes"/>
      <point x="561" y="-12" smooth="yes"/>
      <point x="642" y="226" smooth="yes"/>
      <point x="642" y="362" type="curve" smooth="yes"/>
      <point x="642" y="398" smooth="yes"/>
      <point x="633" y="444" smooth="yes"/>
      <point x="605" y="444" type="curve" smooth="yes"/>
      <point x="589" y="444"/>
      <point x="571" y="433"/>
      <point x="559" y="423" type="curve"/>
      <point x="585" y="390" smooth="yes"/>
      <point x="606" y="354" smooth="yes"/>
      <point x="606" y="289" type="curve" smooth="yes"/>
      <point x="606" y="185" smooth="yes"/>
      <point x="512" y="21" smooth="yes"/>
      <point x="427" y="21" type="curve" smooth="yes"/>
      <point x="395" y="21" smooth="yes"/>
      <point x="379" y="46" smooth="yes"/>
      <point x="379" y="81" type="curve" smooth="yes"/>
      <point x="379" y="162" smooth="yes"/>
      <point x="440" y="267" smooth="yes"/>
      <point x="440" y="362" type="curve" smooth="yes"/>
      <point x="440" y="398" smooth="yes"/>
      <point x="431" y="444" smooth="yes"/>
      <point x="403" y="444" type="curve" smooth="yes"/>
      <point x="387" y="444"/>
      <point x="369" y="433"/>
      <point x="357" y="423" type="curve"/>
      <point x="374" y="398" smooth="yes"/>
      <point x="380" y="371" smooth="yes"/>
      <point x="380" y="343" type="curve" smooth="yes"/>
      <point x="380" y="256" smooth="yes"/>
      <point x="319" y="158" smooth="yes"/>
    </contour>
  </outline>
</glyph>
<glyph name="x" format="1">
  <advance width="461"/>
  <unicode hex="0078"/>
  <outline>
    <contour>
      <point x="163" y="444" type="curve" smooth="yes" name="hr00"/>
      <point x="123" y="444"/>
      <point x="82" y="410"/>
      <point x="51" y="322" type="curve"/>
      <point x="67" y="318" type="line"/>
      <point x="89" y="384" smooth="yes"/>
      <point x="122" y="416" smooth="yes"/>
      <point x="146" y="416" type="curve" smooth="yes"/>
      <point x="231" y="416" smooth="yes"/>
      <point x="173" y="-12" smooth="yes"/>
      <point x="318" y="-12" type="curve" smooth="yes"/>
      <point x="358" y="-12"/>
      <point x="399" y="22"/>
      <point x="430" y="110" type="curve"/>
      <point x="414" y="114" type="line"/>
      <point x="392" y="48" smooth="yes"/>
      <point x="359" y="16" smooth="yes"/>
      <point x="335" y="16" type="curve" smooth="yes"/>
      <point x="250" y="16" smooth="yes"/>
      <point x="308" y="444" smooth="yes"/>
    </contour>
    <contour>
      <point x="182" y="153" type="line" smooth="yes"/>
      <point x="133" y="68"/>
      <point x="76" y="47"/>
      <point x="20" y="42" type="curve"/>
      <point x="20" y="18" smooth="yes"/>
      <point x="24" y="-12" smooth="yes"/>
      <point x="50" y="-12" type="curve" smooth="yes"/>
      <point x="99" y="-12" smooth="yes"/>
      <point x="154" y="61" smooth="yes"/>
      <point x="196" y="135" type="curve" smooth="yes"/>
      <point x="244" y="219" type="line"/>
      <point x="219" y="217" type="line"/>
    </contour>
    <contour>
      <point x="289" y="279" type="line" smooth="yes"/>
      <point x="338" y="364"/>
      <point x="395" y="385"/>
      <point x="451" y="390" type="curve"/>
      <point x="451" y="414" smooth="yes"/>
      <point x="447" y="444" smooth="yes"/>
      <point x="421" y="444" type="curve" smooth="yes"/>
      <point x="372" y="444" smooth="yes"/>
      <point x="317" y="371" smooth="yes"/>
      <point x="275" y="297" type="curve" smooth="yes"/>
      <point x="227" y="213" type="line"/>
      <point x="252" y="215" type="line"/>
    </contour>
  </outline>
</glyph>
<glyph name="y" format="1">
  <advance width="472"/>
  <unicode hex="0079"/>
  <outline>
    <contour>
      <point x="391" y="289" type="curve" smooth="yes" name="hr00"/>
      <point x="391" y="185" smooth="yes"/>
      <point x="289" y="21" smooth="yes"/>
      <point x="200" y="21" type="curve" smooth="yes"/>
      <point x="167" y="21" smooth="yes"/>
      <point x="149" y="46" smooth="yes"/>
      <point x="149" y="81" type="curve" smooth="yes"/>
      <point x="149" y="162" smooth="yes"/>
      <point x="211" y="313" smooth="yes"/>
      <point x="211" y="374" type="curve" smooth="yes"/>
      <point x="211" y="420" smooth="yes"/>
      <point x="188" y="444" smooth="yes"/>
      <point x="146" y="444" type="curve" smooth="yes"/>
      <point x="106" y="444"/>
      <point x="66" y="410"/>
      <point x="39" y="322" type="curve"/>
      <point x="56" y="318" type="line"/>
      <point x="74" y="384" smooth="yes"/>
      <point x="106" y="416" smooth="yes"/>
      <point x="130" y="416" type="curve" smooth="yes"/>
      <point x="149" y="416" smooth="yes"/>
      <point x="156" y="400" smooth="yes"/>
      <point x="156" y="378" type="curve" smooth="yes"/>
      <point x="156" y="311" smooth="yes"/>
      <point x="89" y="167" smooth="yes"/>
      <point x="89" y="83" type="curve" smooth="yes"/>
      <point x="89" y="23" smooth="yes"/>
      <point x="122" y="-12" smooth="yes"/>
      <point x="171" y="-12" type="curve" smooth="yes"/>
      <point x="274" y="-12"/>
      <point x="347" y="84"/>
      <point x="387" y="189" type="curve"/>
      <point x="342" y="-69" smooth="yes"/>
      <point x="160" y="-202" smooth="yes"/>
      <point x="71" y="-202" type="curve" smooth="yes"/>
      <point x="39" y="-202" smooth="yes"/>
      <point x="18" y="-185" smooth="yes"/>
      <point x="18" y="-152" type="curve" smooth="yes"/>
      <point x="18" y="-130"/>
      <point x="29" y="-107"/>
      <point x="47" y="-84" type="curve"/>
      <point x="37" y="-75" smooth="yes"/>
      <point x="23" y="-70" smooth="yes"/>
      <point x="6" y="-70" type="curve" smooth="yes"/>
      <point x="-31" y="-70" smooth="yes"/>
      <point x="-44" y="-119" smooth="yes"/>
      <point x="-44" y="-145" type="curve" smooth="yes"/>
      <point x="-44" y="-192" smooth="yes"/>
      <point x="-13" y="-228" smooth="yes"/>
      <point x="57" y="-228" type="curve" smooth="yes"/>
      <point x="205" y="-228" smooth="yes"/>
      <point x="424" y="-29" smooth="yes"/>
      <point x="424" y="326" type="curve" smooth="yes"/>
      <point x="424" y="401" smooth="yes"/>
      <point x="413" y="444" smooth="yes"/>
      <point x="385" y="444" type="curve" smooth="yes"/>
      <point x="369" y="444"/>
      <point x="351" y="433"/>
      <point x="339" y="423" type="curve"/>
      <point x="365" y="397" smooth="yes"/>
      <point x="391" y="354" smooth="yes"/>
    </contour>
  </outline>
</glyph>
<glyph name="z" format="1">
  <advance width="371"/>
  <unicode hex="007A"/>
  <outline>
    <contour>
      <point x="350" y="438" type="line" name="hr00"/>
      <point x="339" y="400" smooth="yes"/>
      <point x="321" y="388" smooth="yes"/>
      <point x="303" y="388" type="curve" smooth="yes"/>
      <point x="266" y="388" smooth="yes"/>
      <point x="221" y="444" smooth="yes"/>
      <point x="145" y="444" type="curve" smooth="yes"/>
      <point x="105" y="444"/>
      <point x="73" y="416"/>
      <point x="62" y="314" type="curve"/>
      <point x="81" y="311" type="line"/>
      <point x="92" y="369" smooth="yes"/>
      <point x="119" y="387" smooth="yes"/>
      <point x="153" y="387" type="curve" smooth="yes"/>
      <point x="204" y="387"/>
      <point x="250" y="353"/>
      <point x="290" y="350" type="curve"/>
      <point x="34" y="71" type="line" smooth="yes"/>
      <point x="19" y="54"/>
      <point x="7" y="28"/>
      <point x="-4" y="-7" type="curve"/>
      <point x="11" y="-12" type="line"/>
      <point x="22" y="25" smooth="yes"/>
      <point x="39" y="52" smooth="yes"/>
      <point x="65" y="52" type="curve" smooth="yes"/>
      <point x="117" y="52" smooth="yes"/>
      <point x="165" y="-12" smooth="yes"/>
      <point x="243" y="-12" type="curve" smooth="yes"/>
      <point x="283" y="-12"/>
      <point x="315" y="17"/>
      <point x="326" y="123" type="curve"/>
      <point x="307" y="126" type="line"/>
      <point x="296" y="64" smooth="yes"/>
      <point x="269" y="46" smooth="yes"/>
      <point x="235" y="46" type="curve" smooth="yes"/>
      <point x="181" y="46"/>
      <point x="128" y="86"/>
      <point x="83" y="89" type="curve"/>
      <point x="337" y="365" type="line" smooth="yes"/>
      <point x="359" y="389"/>
      <point x="362" y="410"/>
      <point x="366" y="434" type="curve"/>
    </contour>
  </outline>
</glyph>
<glyph name="braceleft" format="1">
  <advance width="274"/>
  <unicode hex="007B"/>
  <outline>
    <contour>
      <point x="128" y="263" type="line"/>
      <point x="156" y="263" smooth="yes"/>
      <point x="181" y="280" smooth="yes"/>
      <point x="190" y="322" type="curve" smooth="yes"/>
      <point x="220" y="466"/>
      <point x="217" y="549"/>
      <point x="316" y="620" type="curve"/>
      <point x="309" y="635" type="line"/>
      <point x="182" y="573" smooth="yes"/>
      <point x="142" y="468" smooth="yes"/>
      <point x="115" y="341" type="curve" smooth="yes"/>
      <point x="103" y="284" type="line" smooth="yes"/>
      <point x="101" y="276" smooth="yes"/>
      <point x="94" y="270" smooth="yes"/>
      <point x="87" y="270" type="curve" smooth="yes"/>
      <point x="49" y="270" type="line"/>
      <point x="45" y="252" type="line"/>
      <point x="83" y="252" type="line" smooth="yes"/>
      <point x="89" y="252" smooth="yes"/>
      <point x="93" y="248" smooth="yes"/>
      <point x="93" y="241" type="curve" smooth="yes"/>
      <point x="93" y="225" smooth="yes"/>
      <point x="64" y="137" smooth="yes"/>
      <point x="64" y="53" type="curve" smooth="yes"/>
      <point x="64" y="-16"/>
      <point x="86" y="-73"/>
      <point x="150" y="-113" type="curve"/>
      <point x="164" y="-98" type="line"/>
      <point x="136" y="-69" smooth="yes"/>
      <point x="126" y="-37" smooth="yes"/>
      <point x="126" y="1" type="curve" smooth="yes"/>
      <point x="126" y="79" smooth="yes"/>
      <point x="166" y="179" smooth="yes"/>
      <point x="166" y="220" type="curve" smooth="yes" name="hr01"/>
      <point x="166" y="247"/>
      <point x="151" y="259"/>
      <point x="128" y="259" type="curve"/>
    </contour>
  </outline>
</glyph>
<glyph name="bar" format="1">
  <advance width="236"/>
  <unicode hex="007C"/>
  <outline>
    <contour>
      <point x="82" y="-107" type="line" name="hr00"/>
      <point x="154" y="-107" type="line"/>
      <point x="154" y="630" type="line"/>
      <point x="82" y="630" type="line"/>
    </contour>
  </outline>
</glyph>
<glyph name="braceright" format="1">
  <advance width="255"/>
  <unicode hex="007D"/>
  <outline>
    <contour>
      <point x="155" y="259" type="line"/>
      <point x="127" y="259" smooth="yes"/>
      <point x="102" y="242" smooth="yes"/>
      <point x="93" y="200" type="curve" smooth="yes"/>
      <point x="63" y="56"/>
      <point x="66" y="-27"/>
      <point x="-33" y="-98" type="curve"/>
      <point x="-26" y="-113" type="line"/>
      <point x="101" y="-51" smooth="yes"/>
      <point x="141" y="54" smooth="yes"/>
      <point x="168" y="181" type="curve" smooth="yes"/>
      <point x="180" y="238" type="line" smooth="yes"/>
      <point x="182" y="246" smooth="yes"/>
      <point x="189" y="252" smooth="yes"/>
      <point x="196" y="252" type="curve" smooth="yes"/>
      <point x="234" y="252" type="line"/>
      <point x="238" y="270" type="line"/>
      <point x="200" y="270" type="line" smooth="yes"/>
      <point x="194" y="270" smooth="yes"/>
      <point x="190" y="274" smooth="yes"/>
      <point x="190" y="281" type="curve" smooth="yes"/>
      <point x="190" y="297" smooth="yes"/>
      <point x="219" y="385" smooth="yes"/>
      <point x="219" y="469" type="curve" smooth="yes"/>
      <point x="219" y="538"/>
      <point x="197" y="595"/>
      <point x="133" y="635" type="curve"/>
      <point x="119" y="620" type="line"/>
      <point x="147" y="591" smooth="yes"/>
      <point x="157" y="559" smooth="yes"/>
      <point x="157" y="521" type="curve" smooth="yes"/>
      <point x="157" y="443" smooth="yes"/>
      <point x="117" y="343" smooth="yes"/>
      <point x="117" y="302" type="curve" smooth="yes" name="hr01"/>
      <point x="117" y="275"/>
      <point x="132" y="263"/>
      <point x="155" y="263" type="curve"/>
    </contour>
  </outline>
</glyph>
<glyph name="asciitilde" format="1">
  <advance width="505"/>
  <unicode hex="007E"/>
  <outline>
    <contour>
      <point x="449" y="243" type="line"/>
      <point x="419" y="225" smooth="yes"/>
      <point x="391" y="216" smooth="yes"/>
      <point x="361" y="216" type="curve" smooth="yes"/>
      <point x="304" y="216" smooth="yes"/>
      <point x="250" y="241" smooth="yes"/>
      <point x="189" y="241" type="curve" smooth="yes" name="hr01"/>
      <point x="152" y="241"/>
      <point x="113" y="230"/>
      <point x="72" y="197" type="curve"/>
      <point x="85" y="164" type="line" name="hr02"/>
      <point x="114" y="182" smooth="yes"/>
      <point x="141" y="189" smooth="yes"/>
      <point x="171" y="189" type="curve" smooth="yes" name="hr03"/>
      <point x="227" y="189" smooth="yes"/>
      <point x="280" y="164" smooth="yes"/>
      <point x="340" y="164" type="curve" smooth="yes" name="hr04"/>
      <point x="376" y="164"/>
      <point x="418" y="175"/>
      <point x="461" y="210" type="curve"/>
    </contour>
  </outline>
</glyph>
<glyph name="exclamdown" format="1">
  <advance width="260"/>
  <unicode hex="00A1"/>
  <outline>
    <contour>
      <point x="130" y="262" type="line" name="hr00"/>
      <point x="88" y="94" smooth="yes"/>
      <point x="3" y="-124" smooth="yes"/>
      <point x="3" y="-173" type="curve" smooth="yes"/>
      <point x="3" y="-197" smooth="yes"/>
      <point x="15" y="-210" smooth="yes"/>
      <point x="37" y="-210" type="curve" smooth="yes"/>
      <point x="65" y="-210" smooth="yes"/>
      <point x="90" y="-187" smooth="yes"/>
      <point x="95" y="-151" type="curve" smooth="yes"/>
      <point x="99" y="-121"/>
      <point x="132" y="112"/>
      <point x="154" y="262" type="curve"/>
    </contour>
    <contour>
      <point x="215" y="396" type="curve" smooth="yes"/>
      <point x="215" y="422" smooth="yes"/>
      <point x="193" y="444" smooth="yes"/>
      <point x="167" y="444" type="curve" smooth="yes"/>
      <point x="141" y="444" smooth="yes"/>
      <point x="119" y="422" smooth="yes"/>
      <point x="119" y="396" type="curve" smooth="yes"/>
      <point x="119" y="370" smooth="yes"/>
      <point x="141" y="348" smooth="yes"/>
      <point x="167" y="348" type="curve" smooth="yes"/>
      <point x="193" y="348" smooth="yes"/>
      <point x="215" y="370" smooth="yes"/>
    </contour>
  </outline>
</glyph>
<glyph name="cent" format="1">
  <advance width="412"/>
  <unicode hex="00A2"/>
  <outline>
    <contour>
      <point x="181" y="-55" type="line" name="hr00"/>
      <point x="206" y="64" type="line"/>
      <point x="271" y="69"/>
      <point x="338" y="112"/>
      <point x="371" y="187" type="curve"/>
      <point x="353" y="192" type="line"/>
      <point x="322" y="125" smooth="yes"/>
      <point x="262" y="89" smooth="yes"/>
      <point x="198" y="89" type="curve" smooth="yes"/>
      <point x="142" y="89" smooth="yes"/>
      <point x="108" y="132" smooth="yes"/>
      <point x="108" y="209" type="curve" smooth="yes"/>
      <point x="108" y="376" smooth="yes"/>
      <point x="204" y="478" smooth="yes"/>
      <point x="283" y="478" type="curve" smooth="yes"/>
      <point x="319" y="478" smooth="yes"/>
      <point x="332" y="453" smooth="yes"/>
      <point x="332" y="423" type="curve" smooth="yes"/>
      <point x="332" y="396"/>
      <point x="322" y="372"/>
      <point x="306" y="346" type="curve"/>
      <point x="312" y="339" smooth="yes"/>
      <point x="327" y="331" smooth="yes"/>
      <point x="346" y="331" type="curve" smooth="yes"/>
      <point x="385" y="331" smooth="yes"/>
      <point x="396" y="387" smooth="yes"/>
      <point x="396" y="415" type="curve" smooth="yes"/>
      <point x="396" y="461"/>
      <point x="369" y="499"/>
      <point x="299" y="502" type="curve"/>
      <point x="324" y="621" type="line"/>
      <point x="294" y="621" type="line"/>
      <point x="269" y="502" type="line"/>
      <point x="155" y="491" smooth="yes"/>
      <point x="36" y="387" smooth="yes"/>
      <point x="36" y="223" type="curve" smooth="yes"/>
      <point x="36" y="128"/>
      <point x="93" y="72"/>
      <point x="176" y="65" type="curve"/>
      <point x="151" y="-55" type="line"/>
    </contour>
  </outline>
</glyph>
<glyph name="sterling" format="1">
  <advance width="440"/>
  <unicode hex="00A3"/>
  <outline>
    <contour>
      <point x="186" y="307" type="curve" smooth="yes"/>
      <point x="186" y="501" smooth="yes"/>
      <point x="257" y="551" smooth="yes"/>
      <point x="320" y="551" type="curve" smooth="yes"/>
      <point x="362" y="551" smooth="yes"/>
      <point x="378" y="526" smooth="yes"/>
      <point x="378" y="493" type="curve" smooth="yes"/>
      <point x="378" y="466"/>
      <point x="368" y="440"/>
      <point x="349" y="414" type="curve"/>
      <point x="357" y="407" smooth="yes"/>
      <point x="371" y="399" smooth="yes"/>
      <point x="391" y="399" type="curve" smooth="yes"/>
      <point x="424" y="399" smooth="yes"/>
      <point x="441" y="447" smooth="yes"/>
      <point x="441" y="489" type="curve" smooth="yes"/>
      <point x="441" y="539" smooth="yes"/>
      <point x="412" y="579" smooth="yes"/>
      <point x="333" y="579" type="curve" smooth="yes"/>
      <point x="243" y="579" smooth="yes"/>
      <point x="114" y="494" smooth="yes"/>
      <point x="114" y="312" type="curve" smooth="yes"/>
      <point x="114" y="257" smooth="yes"/>
      <point x="117" y="209" smooth="yes"/>
      <point x="117" y="168" type="curve" smooth="yes"/>
      <point x="117" y="44" smooth="yes"/>
      <point x="67" y="8" smooth="yes"/>
      <point x="37" y="8" type="curve" smooth="yes"/>
      <point x="14" y="8" smooth="yes"/>
      <point x="4" y="21" smooth="yes"/>
      <point x="4" y="37" type="curve" smooth="yes"/>
      <point x="4" y="58" smooth="yes"/>
      <point x="22" y="82" smooth="yes"/>
      <point x="52" y="82" type="curve" smooth="yes"/>
      <point x="127" y="82" smooth="yes"/>
      <point x="146" y="-12" smooth="yes"/>
      <point x="260" y="-12" type="curve" smooth="yes"/>
      <point x="310" y="-12"/>
      <point x="357" y="22"/>
      <point x="396" y="144" type="curve"/>
      <point x="373" y="148" type="line"/>
      <point x="345" y="78" smooth="yes"/>
      <point x="308" y="57" smooth="yes"/>
      <point x="266" y="57" type="curve" smooth="yes" name="hr01"/>
      <point x="188" y="57" smooth="yes"/>
      <point x="121" y="105" smooth="yes"/>
      <point x="57" y="105" type="curve" smooth="yes"/>
      <point x="11" y="105" smooth="yes"/>
      <point x="-20" y="69" smooth="yes"/>
      <point x="-20" y="36" type="curve" smooth="yes"/>
      <point x="-20" y="13" smooth="yes"/>
      <point x="-5" y="-12" smooth="yes"/>
      <point x="32" y="-12" type="curve" smooth="yes"/>
      <point x="160" y="-12" smooth="yes"/>
      <point x="186" y="167" smooth="yes"/>
    </contour>
    <contour>
      <point x="322" y="278" type="line"/>
      <point x="42" y="278" type="line"/>
      <point x="35" y="247" type="line"/>
      <point x="315" y="247" type="line"/>
    </contour>
  </outline>
</glyph>
<glyph name="currency" format="1">
  <advance width="440"/>
  <unicode hex="00A4"/>
  <outline>
    <contour>
      <point x="115" y="206" type="line" name="hr00"/>
      <point x="15" y="120" type="line"/>
      <point x="36" y="94" type="line"/>
      <point x="135" y="179" type="line"/>
    </contour>
    <contour>
      <point x="368" y="379" type="line"/>
      <point x="470" y="467" type="line"/>
      <point x="450" y="494" type="line"/>
      <point x="346" y="405" type="line"/>
    </contour>
    <contour>
      <point x="86" y="259" type="curve" smooth="yes"/>
      <point x="86" y="188" smooth="yes"/>
      <point x="136" y="134" smooth="yes"/>
      <point x="208" y="134" type="curve" smooth="yes"/>
      <point x="302" y="134" smooth="yes"/>
      <point x="398" y="226" smooth="yes"/>
      <point x="398" y="329" type="curve" smooth="yes"/>
      <point x="398" y="400" smooth="yes"/>
      <point x="348" y="454" smooth="yes"/>
      <point x="276" y="454" type="curve" smooth="yes"/>
      <point x="173" y="454" smooth="yes"/>
      <point x="86" y="352" smooth="yes"/>
    </contour>
    <contour>
      <point x="304" y="184" type="line"/>
      <point x="372" y="89" type="line"/>
      <point x="399" y="111" type="line"/>
      <point x="329" y="206" type="line"/>
    </contour>
    <contour>
      <point x="185" y="402" type="line"/>
      <point x="115" y="498" type="line"/>
      <point x="88" y="476" type="line"/>
      <point x="157" y="382" type="line"/>
    </contour>
    <contour>
      <point x="270" y="419" type="curve"/>
      <point x="326" y="419" smooth="yes"/>
      <point x="364" y="378" smooth="yes"/>
      <point x="364" y="322" type="curve" smooth="yes"/>
      <point x="364" y="241" smooth="yes"/>
      <point x="289" y="169" smooth="yes"/>
      <point x="214" y="169" type="curve" smooth="yes"/>
      <point x="158" y="169" smooth="yes"/>
      <point x="121" y="210" smooth="yes"/>
      <point x="121" y="265" type="curve" smooth="yes"/>
      <point x="121" y="345"/>
      <point x="194" y="419"/>
    </contour>
  </outline>
</glyph>
<glyph name="yen" format="1">
  <advance width="440"/>
  <unicode hex="00A5"/>
  <outline>
    <contour>
      <point x="415" y="278" type="line" name="hr00"/>
      <point x="301" y="278" type="line"/>
      <point x="323" y="312" type="line"/>
      <point x="422" y="312" type="line"/>
      <point x="429" y="343" type="line"/>
      <point x="342" y="343" type="line"/>
      <point x="463" y="534" type="line" smooth="yes"/>
      <point x="468" y="542" smooth="yes"/>
      <point x="473" y="548" smooth="yes"/>
      <point x="484" y="548" type="curve" smooth="yes"/>
      <point x="501" y="548" type="line"/>
      <point x="504" y="566" type="line"/>
      <point x="408" y="566" type="line"/>
      <point x="405" y="548" type="line"/>
      <point x="437" y="548" type="line"/>
      <point x="253" y="249" type="line"/>
      <point x="176" y="548" type="line"/>
      <point x="213" y="548" type="line"/>
      <point x="216" y="566" type="line"/>
      <point x="78" y="566" type="line"/>
      <point x="75" y="548" type="line"/>
      <point x="93" y="548" type="line" smooth="yes"/>
      <point x="103" y="548" smooth="yes"/>
      <point x="106" y="542" smooth="yes"/>
      <point x="108" y="534" type="curve" smooth="yes"/>
      <point x="155" y="343" type="line"/>
      <point x="73" y="343" type="line"/>
      <point x="66" y="312" type="line"/>
      <point x="163" y="312" type="line"/>
      <point x="171" y="278" type="line"/>
      <point x="59" y="278" type="line"/>
      <point x="52" y="247" type="line"/>
      <point x="179" y="247" type="line"/>
      <point x="188" y="211" type="line"/>
      <point x="151" y="33" type="line" smooth="yes"/>
      <point x="149" y="23" smooth="yes"/>
      <point x="145" y="18" smooth="yes"/>
      <point x="135" y="18" type="curve" smooth="yes"/>
      <point x="57" y="18" type="line"/>
      <point x="54" y="0" type="line"/>
      <point x="302" y="0" type="line"/>
      <point x="305" y="18" type="line"/>
      <point x="229" y="18" type="line" smooth="yes"/>
      <point x="224" y="18" smooth="yes"/>
      <point x="218" y="21" smooth="yes"/>
      <point x="218" y="28" type="curve" smooth="yes"/>
      <point x="218" y="31"/>
      <point x="234" y="105"/>
      <point x="255" y="204" type="curve"/>
      <point x="282" y="247" type="line"/>
      <point x="408" y="247" type="line"/>
    </contour>
  </outline>
</glyph>
<glyph name="brokenbar" format="1">
  <advance width="236"/>
  <unicode hex="00A6"/>
  <outline>
    <contour>
      <point x="82" y="366" type="line" name="hr00"/>
      <point x="154" y="366" type="line"/>
      <point x="154" y="630" type="line"/>
      <point x="82" y="630" type="line"/>
    </contour>
    <contour>
      <point x="82" y="-107" type="line"/>
      <point x="154" y="-107" type="line"/>
      <point x="154" y="157" type="line"/>
      <point x="82" y="157" type="line"/>
    </contour>
  </outline>
</glyph>
<glyph name="section" format="1">
  <advance width="441"/>
  <unicode hex="00A7"/>
  <outline>
    <contour>
      <point x="148" y="245" type="line" name="hr00"/>
      <point x="202" y="212" type="line" smooth="yes"/>
      <point x="255" y="180" smooth="yes"/>
      <point x="289" y="111" smooth="yes"/>
      <point x="289" y="50" type="curve" smooth="yes"/>
      <point x="289" y="-18" smooth="yes"/>
      <point x="249" y="-80" smooth="yes"/>
      <point x="171" y="-80" type="curve" smooth="yes"/>
      <point x="113" y="-80" smooth="yes"/>
      <point x="89" y="-44" smooth="yes"/>
      <point x="89" y="-5" type="curve" smooth="yes"/>
      <point x="89" y="30"/>
      <point x="104" y="66"/>
      <point x="132" y="83" type="curve"/>
      <point x="125" y="91" smooth="yes"/>
      <point x="106" y="104" smooth="yes"/>
      <point x="81" y="104" type="curve" smooth="yes"/>
      <point x="42" y="104" smooth="yes"/>
      <point x="15" y="60" smooth="yes"/>
      <point x="15" y="11" type="curve" smooth="yes"/>
      <point x="15" y="-51" smooth="yes"/>
      <point x="56" y="-117" smooth="yes"/>
      <point x="169" y="-117" type="curve" smooth="yes"/>
      <point x="291" y="-117" smooth="yes"/>
      <point x="358" y="-35" smooth="yes"/>
      <point x="358" y="49" type="curve" smooth="yes"/>
      <point x="358" y="104" smooth="yes"/>
      <point x="324" y="167" smooth="yes"/>
      <point x="267" y="201" type="curve" smooth="yes"/>
      <point x="158" y="265" type="line"/>
    </contour>
    <contour>
      <point x="308" y="280" type="line"/>
      <point x="254" y="313" type="line" smooth="yes"/>
      <point x="201" y="345" smooth="yes"/>
      <point x="167" y="414" smooth="yes"/>
      <point x="167" y="475" type="curve" smooth="yes"/>
      <point x="167" y="543" smooth="yes"/>
      <point x="207" y="605" smooth="yes"/>
      <point x="285" y="605" type="curve" smooth="yes"/>
      <point x="343" y="605" smooth="yes"/>
      <point x="367" y="569" smooth="yes"/>
      <point x="367" y="530" type="curve" smooth="yes"/>
      <point x="367" y="495"/>
      <point x="352" y="459"/>
      <point x="324" y="442" type="curve"/>
      <point x="331" y="434" smooth="yes"/>
      <point x="350" y="421" smooth="yes"/>
      <point x="375" y="421" type="curve" smooth="yes"/>
      <point x="414" y="421" smooth="yes"/>
      <point x="441" y="465" smooth="yes"/>
      <point x="441" y="514" type="curve" smooth="yes"/>
      <point x="441" y="576" smooth="yes"/>
      <point x="400" y="642" smooth="yes"/>
      <point x="287" y="642" type="curve" smooth="yes"/>
      <point x="165" y="642" smooth="yes"/>
      <point x="98" y="560" smooth="yes"/>
      <point x="98" y="476" type="curve" smooth="yes"/>
      <point x="98" y="421" smooth="yes"/>
      <point x="132" y="358" smooth="yes"/>
      <point x="189" y="324" type="curve" smooth="yes"/>
      <point x="298" y="260" type="line"/>
    </contour>
  </outline>
</glyph>
<glyph name="dieresis" format="1">
  <advance width="310"/>
  <unicode hex="00A8"/>
  <outline>
    <contour>
      <point x="30" y="576" type="curve" smooth="yes" name="hr00"/>
      <point x="30" y="551" smooth="yes"/>
      <point x="50" y="531" smooth="yes"/>
      <point x="75" y="531" type="curve" smooth="yes"/>
      <point x="100" y="531" smooth="yes"/>
      <point x="120" y="551" smooth="yes"/>
      <point x="120" y="576" type="curve" smooth="yes"/>
      <point x="120" y="601" smooth="yes"/>
      <point x="100" y="621" smooth="yes"/>
      <point x="75" y="621" type="curve" smooth="yes"/>
      <point x="50" y="621" smooth="yes"/>
      <point x="30" y="601" smooth="yes"/>
    </contour>
    <contour>
      <point x="190" y="576" type="curve" smooth="yes"/>
      <point x="190" y="551" smooth="yes"/>
      <point x="210" y="531" smooth="yes"/>
      <point x="235" y="531" type="curve" smooth="yes"/>
      <point x="260" y="531" smooth="yes"/>
      <point x="280" y="551" smooth="yes"/>
      <point x="280" y="576" type="curve" smooth="yes"/>
      <point x="280" y="601" smooth="yes"/>
      <point x="260" y="621" smooth="yes"/>
      <point x="235" y="621" type="curve" smooth="yes"/>
      <point x="210" y="621" smooth="yes"/>
      <point x="190" y="601" smooth="yes"/>
    </contour>
  </outline>
</glyph>
<glyph name="copyright" format="1">
  <advance width="549"/>
  <unicode hex="00A9"/>
  <outline>
    <contour>
      <point x="351" y="281" type="curve" smooth="yes" name="hr00"/>
      <point x="357" y="281" smooth="yes"/>
      <point x="359" y="277" smooth="yes"/>
      <point x="359" y="271" type="curve" smooth="yes"/>
      <point x="359" y="260" type="line"/>
      <point x="370" y="260" type="line"/>
      <point x="389" y="349" type="line"/>
      <point x="378" y="349" type="line"/>
      <point x="359" y="296" smooth="yes"/>
      <point x="315" y="276" smooth="yes"/>
      <point x="276" y="276" type="curve" smooth="yes"/>
      <point x="236" y="276" smooth="yes"/>
      <point x="212" y="307" smooth="yes"/>
      <point x="212" y="364" type="curve" smooth="yes"/>
      <point x="212" y="484" smooth="yes"/>
      <point x="280" y="560" smooth="yes"/>
      <point x="337" y="560" type="curve" smooth="yes"/>
      <point x="374" y="560" smooth="yes"/>
      <point x="407" y="543" smooth="yes"/>
      <point x="407" y="495" type="curve" smooth="yes"/>
      <point x="407" y="487" type="line"/>
      <point x="418" y="487" type="line"/>
      <point x="438" y="581" type="line"/>
      <point x="427" y="581" type="line"/>
      <point x="423" y="570" type="line" smooth="yes"/>
      <point x="420" y="564" smooth="yes"/>
      <point x="417" y="560" smooth="yes"/>
      <point x="411" y="560" type="curve" smooth="yes"/>
      <point x="398" y="560" smooth="yes"/>
      <point x="380" y="583" smooth="yes"/>
      <point x="341" y="583" type="curve" smooth="yes"/>
      <point x="254" y="583" smooth="yes"/>
      <point x="162" y="504" smooth="yes"/>
      <point x="162" y="370" type="curve" smooth="yes"/>
      <point x="162" y="295" smooth="yes"/>
      <point x="206" y="254" smooth="yes"/>
      <point x="271" y="254" type="curve" smooth="yes"/>
      <point x="316" y="254" smooth="yes"/>
      <point x="343" y="281" smooth="yes"/>
    </contour>
    <contour>
      <point x="70" y="366" type="curve" smooth="yes"/>
      <point x="70" y="258" smooth="yes"/>
      <point x="146" y="176" smooth="yes"/>
      <point x="255" y="176" type="curve" smooth="yes"/>
      <point x="398" y="176" smooth="yes"/>
      <point x="542" y="316" smooth="yes"/>
      <point x="542" y="472" type="curve" smooth="yes"/>
      <point x="542" y="579" smooth="yes"/>
      <point x="467" y="660" smooth="yes"/>
      <point x="358" y="660" type="curve" smooth="yes"/>
      <point x="203" y="660" smooth="yes"/>
      <point x="70" y="507" smooth="yes"/>
    </contour>
    <contour>
      <point x="95" y="366" type="curve" smooth="yes"/>
      <point x="95" y="495" smooth="yes"/>
      <point x="216" y="635" smooth="yes"/>
      <point x="358" y="635" type="curve" smooth="yes"/>
      <point x="452" y="635" smooth="yes"/>
      <point x="517" y="565" smooth="yes"/>
      <point x="517" y="472" type="curve" smooth="yes"/>
      <point x="517" y="329" smooth="yes"/>
      <point x="386" y="201" smooth="yes"/>
      <point x="255" y="201" type="curve" smooth="yes"/>
      <point x="161" y="201" smooth="yes"/>
      <point x="95" y="272" smooth="yes"/>
    </contour>
  </outline>
</glyph>
<glyph name="ordfeminine" format="1">
  <advance width="367"/>
  <unicode hex="00AA"/>
  <outline>
    <contour>
      <point x="263" y="409" type="curve" smooth="yes"/>
      <point x="263" y="437"/>
      <point x="292" y="550"/>
      <point x="320" y="633" type="curve"/>
      <point x="308" y="642" type="line"/>
      <point x="290" y="611" type="line"/>
      <point x="274" y="631" smooth="yes"/>
      <point x="248" y="648" smooth="yes"/>
      <point x="217" y="648" type="curve" smooth="yes"/>
      <point x="121" y="648" smooth="yes"/>
      <point x="70" y="545" smooth="yes"/>
      <point x="70" y="467" type="curve" smooth="yes"/>
      <point x="70" y="409" smooth="yes"/>
      <point x="101" y="375" smooth="yes"/>
      <point x="140" y="375" type="curve" smooth="yes"/>
      <point x="161" y="375"/>
      <point x="193" y="384"/>
      <point x="219" y="434" type="curve"/>
      <point x="223" y="434" type="line"/>
      <point x="222" y="429" smooth="yes"/>
      <point x="222" y="423" smooth="yes"/>
      <point x="222" y="420" type="curve" smooth="yes"/>
      <point x="222" y="392" smooth="yes"/>
      <point x="235" y="375" smooth="yes"/>
      <point x="261" y="375" type="curve" smooth="yes"/>
      <point x="290" y="375"/>
      <point x="309" y="395"/>
      <point x="328" y="448" type="curve"/>
      <point x="317" y="450" type="line"/>
      <point x="304" y="411" smooth="yes"/>
      <point x="286" y="392" smooth="yes"/>
      <point x="274" y="392" type="curve" smooth="yes"/>
      <point x="267" y="392" smooth="yes"/>
      <point x="263" y="398" smooth="yes"/>
    </contour>
    <contour>
      <point x="154" y="393" type="curve" smooth="yes"/>
      <point x="133" y="393" smooth="yes"/>
      <point x="118" y="414" smooth="yes"/>
      <point x="118" y="460" type="curve" smooth="yes"/>
      <point x="118" y="518" smooth="yes"/>
      <point x="148" y="634" smooth="yes"/>
      <point x="219" y="634" type="curve" smooth="yes" name="hr01"/>
      <point x="236" y="634"/>
      <point x="252" y="627"/>
      <point x="265" y="614" type="curve"/>
      <point x="230" y="459" smooth="yes"/>
      <point x="192" y="393" smooth="yes"/>
    </contour>
  </outline>
</glyph>
<glyph name="guillemotleft" format="1">
  <advance width="375"/>
  <unicode hex="00AB"/>
  <outline>
    <contour>
      <point x="175" y="225" type="line" name="hr00"/>
      <point x="291" y="54" type="line"/>
      <point x="309" y="68" type="line"/>
      <point x="255" y="231" type="line"/>
      <point x="378" y="394" type="line"/>
      <point x="366" y="408" type="line"/>
      <point x="178" y="237" type="line"/>
    </contour>
    <contour>
      <point x="33" y="225" type="line"/>
      <point x="149" y="54" type="line"/>
      <point x="168" y="68" type="line"/>
      <point x="113" y="231" type="line"/>
      <point x="237" y="394" type="line"/>
      <point x="224" y="408" type="line"/>
      <point x="36" y="237" type="line"/>
    </contour>
  </outline>
</glyph>
<glyph name="logicalnot" format="1">
  <advance width="505"/>
  <unicode hex="00AC"/>
  <outline>
    <contour>
      <point x="420" y="44" type="line" name="hr00"/>
      <point x="458" y="223" type="line"/>
      <point x="85" y="223" type="line"/>
      <point x="74" y="170" type="line"/>
      <point x="397" y="170" type="line"/>
      <point x="370" y="44" type="line"/>
    </contour>
  </outline>
</glyph>
<glyph name="registered" format="1">
  <advance width="549"/>
  <unicode hex="00AE"/>
  <outline>
    <contour>
      <point x="70" y="366" type="curve" smooth="yes" name="hr00"/>
      <point x="70" y="258" smooth="yes"/>
      <point x="146" y="176" smooth="yes"/>
      <point x="255" y="176" type="curve" smooth="yes"/>
      <point x="398" y="176" smooth="yes"/>
      <point x="542" y="316" smooth="yes"/>
      <point x="542" y="472" type="curve" smooth="yes"/>
      <point x="542" y="579" smooth="yes"/>
      <point x="467" y="660" smooth="yes"/>
      <point x="358" y="660" type="curve" smooth="yes"/>
      <point x="203" y="660" smooth="yes"/>
      <point x="70" y="507" smooth="yes"/>
    </contour>
    <contour>
      <point x="283" y="276" type="line"/>
      <point x="259" y="276" type="line" smooth="yes"/>
      <point x="251" y="276" smooth="yes"/>
      <point x="249" y="281" smooth="yes"/>
      <point x="249" y="286" type="curve" smooth="yes"/>
      <point x="249" y="287"/>
      <point x="249" y="289"/>
      <point x="272" y="399" type="curve"/>
      <point x="300" y="399" type="line"/>
      <point x="338" y="258" type="line"/>
      <point x="346" y="260" smooth="yes"/>
      <point x="361" y="262" smooth="yes"/>
      <point x="375" y="262" type="curve" smooth="yes"/>
      <point x="402" y="262" type="line"/>
      <point x="405" y="276" type="line"/>
      <point x="394" y="276" type="line" smooth="yes"/>
      <point x="388" y="276" smooth="yes"/>
      <point x="386" y="280" smooth="yes"/>
      <point x="384" y="285" type="curve" smooth="yes"/>
      <point x="350" y="406" type="line"/>
      <point x="393" y="421" smooth="yes"/>
      <point x="429" y="456" smooth="yes"/>
      <point x="429" y="509" type="curve" smooth="yes"/>
      <point x="429" y="553" smooth="yes"/>
      <point x="393" y="579" smooth="yes"/>
      <point x="347" y="579" type="curve" smooth="yes"/>
      <point x="232" y="579" type="line"/>
      <point x="229" y="565" type="line"/>
      <point x="245" y="565" type="line" smooth="yes"/>
      <point x="251" y="565" smooth="yes"/>
      <point x="256" y="561" smooth="yes"/>
      <point x="256" y="555" type="curve" smooth="yes"/>
      <point x="256" y="554" smooth="yes"/>
      <point x="257" y="553" smooth="yes"/>
      <point x="200" y="288" type="curve" smooth="yes"/>
      <point x="198" y="279" smooth="yes"/>
      <point x="190" y="276" smooth="yes"/>
      <point x="183" y="276" type="curve" smooth="yes"/>
      <point x="167" y="276" type="line"/>
      <point x="164" y="262" type="line"/>
      <point x="280" y="262" type="line"/>
    </contour>
    <contour>
      <point x="340" y="558" type="line" smooth="yes"/>
      <point x="368" y="558" smooth="yes"/>
      <point x="380" y="536" smooth="yes"/>
      <point x="380" y="510" type="curve" smooth="yes"/>
      <point x="380" y="470" smooth="yes"/>
      <point x="353" y="421" smooth="yes"/>
      <point x="311" y="421" type="curve" smooth="yes"/>
      <point x="277" y="421" type="line"/>
      <point x="306" y="558" type="line"/>
    </contour>
    <contour>
      <point x="95" y="366" type="curve" smooth="yes"/>
      <point x="95" y="495" smooth="yes"/>
      <point x="216" y="635" smooth="yes"/>
      <point x="358" y="635" type="curve" smooth="yes"/>
      <point x="452" y="635" smooth="yes"/>
      <point x="517" y="565" smooth="yes"/>
      <point x="517" y="472" type="curve" smooth="yes"/>
      <point x="517" y="329" smooth="yes"/>
      <point x="386" y="201" smooth="yes"/>
      <point x="255" y="201" type="curve" smooth="yes"/>
      <point x="161" y="201" smooth="yes"/>
      <point x="95" y="272" smooth="yes"/>
    </contour>
  </outline>
</glyph>
<glyph name="macron" format="1">
  <advance width="301"/>
  <unicode hex="00AF"/>
  <outline>
    <contour>
      <point x="30" y="557" type="line" name="hr00"/>
      <point x="260" y="557" type="line"/>
      <point x="271" y="611" type="line"/>
      <point x="41" y="611" type="line"/>
    </contour>
  </outline>
</glyph>
<glyph name="degree" format="1">
  <advance width="258"/>
  <unicode hex="00B0"/>
  <outline>
    <contour>
      <point x="201" y="639" type="curve" smooth="yes" name="hr00"/>
      <point x="139" y="639" smooth="yes"/>
      <point x="90" y="585" smooth="yes"/>
      <point x="90" y="527" type="curve" smooth="yes"/>
      <point x="90" y="474" smooth="yes"/>
      <point x="129" y="430" smooth="yes"/>
      <point x="186" y="430" type="curve" smooth="yes"/>
      <point x="248" y="430" smooth="yes"/>
      <point x="298" y="484" smooth="yes"/>
      <point x="298" y="542" type="curve" smooth="yes"/>
      <point x="298" y="599" smooth="yes"/>
      <point x="252" y="639" smooth="yes"/>
    </contour>
    <contour>
      <point x="201" y="605" type="curve" smooth="yes"/>
      <point x="234" y="605" smooth="yes"/>
      <point x="263" y="579" smooth="yes"/>
      <point x="263" y="542" type="curve" smooth="yes"/>
      <point x="263" y="501" smooth="yes"/>
      <point x="229" y="464" smooth="yes"/>
      <point x="186" y="464" type="curve" smooth="yes"/>
      <point x="150" y="464" smooth="yes"/>
      <point x="125" y="492" smooth="yes"/>
      <point x="125" y="527" type="curve" smooth="yes"/>
      <point x="125" y="568" smooth="yes"/>
      <point x="159" y="605" smooth="yes"/>
    </contour>
  </outline>
</glyph>
<glyph name="twosuperior" format="1">
  <advance width="292"/>
  <unicode hex="00B2"/>
  <outline>
    <contour>
      <point x="194" y="560" type="curve" smooth="yes"/>
      <point x="220" y="560" smooth="yes"/>
      <point x="236" y="542" smooth="yes"/>
      <point x="236" y="511" type="curve" smooth="yes"/>
      <point x="236" y="485" smooth="yes"/>
      <point x="219" y="427" smooth="yes"/>
      <point x="166" y="374" type="curve" smooth="yes"/>
      <point x="4" y="213" type="line"/>
      <point x="167" y="213" type="line" smooth="yes"/>
      <point x="200" y="213"/>
      <point x="225" y="209"/>
      <point x="239" y="205" type="curve" name="hr01"/>
      <point x="240" y="219" smooth="yes"/>
      <point x="243" y="258" smooth="yes"/>
      <point x="251" y="293" type="curve" smooth="yes"/>
      <point x="258" y="326" type="line"/>
      <point x="239" y="326" type="line"/>
      <point x="220" y="269" type="line" smooth="yes"/>
      <point x="217" y="261" smooth="yes"/>
      <point x="213" y="258" smooth="yes"/>
      <point x="206" y="258" type="curve" smooth="yes" name="hr02"/>
      <point x="83" y="258" type="line"/>
      <point x="180" y="353" type="line" smooth="yes"/>
      <point x="230" y="402" smooth="yes"/>
      <point x="294" y="458" smooth="yes"/>
      <point x="294" y="510" type="curve" smooth="yes"/>
      <point x="294" y="547" smooth="yes"/>
      <point x="265" y="579" smooth="yes"/>
      <point x="197" y="579" type="curve" smooth="yes"/>
      <point x="124" y="579" smooth="yes"/>
      <point x="79" y="532" smooth="yes"/>
      <point x="79" y="486" type="curve" smooth="yes"/>
      <point x="79" y="471" smooth="yes"/>
      <point x="86" y="462" smooth="yes"/>
      <point x="101" y="462" type="curve" smooth="yes"/>
      <point x="115" y="462"/>
      <point x="129" y="467"/>
      <point x="136" y="472" type="curve"/>
      <point x="135" y="477" smooth="yes"/>
      <point x="134" y="482" smooth="yes"/>
      <point x="134" y="488" type="curve" smooth="yes"/>
      <point x="134" y="520" smooth="yes"/>
      <point x="150" y="560" smooth="yes"/>
    </contour>
  </outline>
</glyph>
<glyph name="threesuperior" format="1">
  <advance width="292"/>
  <unicode hex="00B3"/>
  <outline>
    <contour>
      <point x="77" y="388" type="line"/>
      <point x="91" y="391" smooth="yes"/>
      <point x="102" y="392" smooth="yes"/>
      <point x="110" y="392" type="curve" smooth="yes"/>
      <point x="153" y="392" smooth="yes"/>
      <point x="184" y="372" smooth="yes"/>
      <point x="184" y="329" type="curve" smooth="yes"/>
      <point x="184" y="280" smooth="yes"/>
      <point x="146" y="225" smooth="yes"/>
      <point x="95" y="225" type="curve" smooth="yes"/>
      <point x="70" y="225" smooth="yes"/>
      <point x="58" y="240" smooth="yes"/>
      <point x="58" y="260" type="curve" smooth="yes"/>
      <point x="58" y="275"/>
      <point x="64" y="294"/>
      <point x="77" y="311" type="curve"/>
      <point x="71" y="317" smooth="yes"/>
      <point x="61" y="323" smooth="yes"/>
      <point x="46" y="323" type="curve" smooth="yes"/>
      <point x="22" y="323" smooth="yes"/>
      <point x="10" y="295" smooth="yes"/>
      <point x="10" y="266" type="curve" smooth="yes"/>
      <point x="10" y="232" smooth="yes"/>
      <point x="33" y="205" smooth="yes"/>
      <point x="90" y="205" type="curve" smooth="yes"/>
      <point x="179" y="205" smooth="yes"/>
      <point x="241" y="271" smooth="yes"/>
      <point x="241" y="334" type="curve" smooth="yes"/>
      <point x="241" y="368"/>
      <point x="219" y="399"/>
      <point x="171" y="408" type="curve"/>
      <point x="226" y="430" smooth="yes"/>
      <point x="260" y="477" smooth="yes"/>
      <point x="260" y="514" type="curve" smooth="yes" name="hr01"/>
      <point x="260" y="556" smooth="yes"/>
      <point x="218" y="579" smooth="yes"/>
      <point x="175" y="579" type="curve" smooth="yes"/>
      <point x="130" y="579" smooth="yes"/>
      <point x="69" y="552" smooth="yes"/>
      <point x="69" y="492" type="curve" smooth="yes"/>
      <point x="69" y="477" smooth="yes"/>
      <point x="75" y="466" smooth="yes"/>
      <point x="90" y="466" type="curve" smooth="yes"/>
      <point x="102" y="466"/>
      <point x="116" y="471"/>
      <point x="126" y="479" type="curve"/>
      <point x="124" y="486" smooth="yes"/>
      <point x="123" y="494" smooth="yes"/>
      <point x="123" y="501" type="curve" smooth="yes"/>
      <point x="123" y="532" smooth="yes"/>
      <point x="143" y="560" smooth="yes"/>
      <point x="171" y="560" type="curve" smooth="yes"/>
      <point x="194" y="560" smooth="yes"/>
      <point x="205" y="542" smooth="yes"/>
      <point x="205" y="518" type="curve" smooth="yes"/>
      <point x="205" y="479" smooth="yes"/>
      <point x="172" y="422" smooth="yes"/>
      <point x="106" y="410" type="curve" smooth="yes"/>
      <point x="79" y="405" type="line"/>
    </contour>
  </outline>
</glyph>
